<svg xmlns="http://www.w3.org/2000/svg" width="315.75" height="302.232" viewBox="0 0 315.75 302.232">
  <g id="Group_11222" data-name="Group 11222" transform="translate(-39.47 -45.226)">
    <rect id="Rectangle_304" data-name="Rectangle 304" width="19.842" height="8.385" transform="translate(52.066 246.787)" fill="none" stroke="#ebebeb" stroke-miterlimit="10" stroke-width="1"/>
    <rect id="Rectangle_305" data-name="Rectangle 305" width="19.842" height="8.385" transform="translate(40.997 257.36)" fill="none" stroke="#ebebeb" stroke-miterlimit="10" stroke-width="1"/>
    <rect id="Rectangle_306" data-name="Rectangle 306" width="19.842" height="8.385" transform="translate(302.111 157.634)" fill="none" stroke="#ebebeb" stroke-miterlimit="10" stroke-width="1"/>
    <rect id="Rectangle_307" data-name="Rectangle 307" width="19.842" height="8.385" transform="translate(291.042 168.207)" fill="none" stroke="#ebebeb" stroke-miterlimit="10" stroke-width="1"/>
    <rect id="Rectangle_308" data-name="Rectangle 308" width="19.842" height="8.385" transform="translate(280.017 157.634)" fill="none" stroke="#ebebeb" stroke-miterlimit="10" stroke-width="1"/>
    <rect id="Rectangle_309" data-name="Rectangle 309" width="19.842" height="8.385" transform="translate(333.851 257.36)" fill="none" stroke="#ebebeb" stroke-miterlimit="10" stroke-width="1"/>
    <rect id="Rectangle_310" data-name="Rectangle 310" width="19.842" height="8.385" transform="translate(322.783 45.726)" fill="none" stroke="#ebebeb" stroke-miterlimit="10" stroke-width="1"/>
    <rect id="Rectangle_311" data-name="Rectangle 311" width="19.842" height="8.385" transform="translate(333.851 56.298)" fill="none" stroke="#ebebeb" stroke-miterlimit="10" stroke-width="1"/>
    <g id="Group_11149" data-name="Group 11149" transform="translate(306.973 58.66)">
      <rect id="Rectangle_312" data-name="Rectangle 312" width="36.798" height="36.798" transform="translate(1.914 1.915)" fill="#fff"/>
      <path id="Path_13773" data-name="Path 13773" d="M396.307,62.989v40.625h40.625V62.989ZM435.019,101.7h-36.8V64.9h36.8Z" transform="translate(-396.307 -62.988)" fill="#dbdbdb"/>
      <rect id="Rectangle_313" data-name="Rectangle 313" width="12.72" height="28.68" transform="translate(36.063 18.865) rotate(90)" fill="#ebebeb"/>
      <rect id="Rectangle_314" data-name="Rectangle 314" width="14.695" height="14.695" transform="translate(27.661 12.966) rotate(90)" fill="#c7c7c7"/>
      <rect id="Rectangle_315" data-name="Rectangle 315" width="1.569" height="40.627" transform="translate(40.627)" fill="#c7c7c7"/>
    </g>
    <g id="Group_11150" data-name="Group 11150" transform="translate(306.973 110.911)">
      <rect id="Rectangle_316" data-name="Rectangle 316" width="36.798" height="36.798" transform="translate(1.914 1.914)" fill="#fff"/>
      <rect id="Rectangle_317" data-name="Rectangle 317" width="9.609" height="27.756" transform="translate(8.238 7.803)" fill="#c7c7c7"/>
      <path id="Path_13774" data-name="Path 13774" d="M396.307,132.721v40.625h40.625V132.721Zm38.712,38.712h-36.8v-36.8h36.8Z" transform="translate(-396.307 -132.72)" fill="#dbdbdb"/>
      <rect id="Rectangle_318" data-name="Rectangle 318" width="14.693" height="14.693" transform="translate(12.966 12.966)" fill="#ebebeb"/>
      <rect id="Rectangle_319" data-name="Rectangle 319" width="1.569" height="40.627" transform="translate(40.627 0)" fill="#c7c7c7"/>
    </g>
    <g id="Group_11151" data-name="Group 11151" transform="translate(306.973 163.161)">
      <rect id="Rectangle_320" data-name="Rectangle 320" width="36.798" height="36.798" transform="translate(1.914 1.914)" fill="#fff"/>
      <rect id="Rectangle_321" data-name="Rectangle 321" width="20.191" height="12.072" transform="translate(5.996 6.931)" fill="#ebebeb"/>
      <path id="Path_13775" data-name="Path 13775" d="M396.307,202.452v40.625h40.625V202.452Zm38.712,38.712h-36.8v-36.8h36.8Z" transform="translate(-396.307 -202.452)" fill="#dbdbdb"/>
      <rect id="Rectangle_322" data-name="Rectangle 322" width="14.693" height="14.693" transform="translate(12.966 12.966)" fill="#c7c7c7"/>
      <rect id="Rectangle_323" data-name="Rectangle 323" width="1.569" height="40.627" transform="translate(40.627 0)" fill="#c7c7c7"/>
    </g>
    <g id="Group_11153" data-name="Group 11153" transform="translate(264.804 65.497)">
      <path id="Path_13776" data-name="Path 13776" d="M344.559,102.582a18.382,18.382,0,0,0,18.473,5.711,18.384,18.384,0,1,0-18.473-5.711Z" transform="translate(-340.028 -72.112)" fill="#ebebeb"/>
      <g id="Group_11152" data-name="Group 11152" transform="translate(4.531 10.787)">
        <path id="Path_13777" data-name="Path 13777" d="M358.187,90.449a5.595,5.595,0,1,0,7-3.69A5.595,5.595,0,0,0,358.187,90.449Z" transform="translate(-349.048 -86.508)" fill="#fff"/>
        <path id="Path_13778" data-name="Path 13778" d="M346.758,107.556l-.683,2.205a18.382,18.382,0,0,0,18.473,5.711l.68-2.2a9.668,9.668,0,0,0-18.47-5.719Z" transform="translate(-346.075 -90.077)" fill="#fff"/>
      </g>
    </g>
    <g id="Group_11155" data-name="Group 11155" transform="translate(86.713 83.941)">
      <path id="Path_13779" data-name="Path 13779" d="M107.657,118.869a12.12,12.12,0,0,0,12.734.555,12.118,12.118,0,1,0-12.734-.555Z" transform="translate(-102.352 -96.728)" fill="#ebebeb"/>
      <g id="Group_11154" data-name="Group 11154" transform="translate(5.305 7.051)">
        <path id="Path_13780" data-name="Path 13780" d="M113.7,109.663a3.688,3.688,0,1,0,3.846-3.522A3.687,3.687,0,0,0,113.7,109.663Z" transform="translate(-110.501 -106.137)" fill="#fff"/>
        <path id="Path_13781" data-name="Path 13781" d="M109.5,122.21l-.067,1.52a12.12,12.12,0,0,0,12.734.555l.067-1.515a6.373,6.373,0,0,0-12.733-.56Z" transform="translate(-109.432 -108.639)" fill="#fff"/>
      </g>
    </g>
    <g id="Group_11157" data-name="Group 11157" transform="translate(285.763 116.063)">
      <path id="Path_13782" data-name="Path 13782" d="M372.706,155.97a8.523,8.523,0,0,0,2.574.847,8.666,8.666,0,1,0-2.574-.847Z" transform="translate(-368.001 -139.596)" fill="#ebebeb"/>
      <g id="Group_11156" data-name="Group 11156" transform="translate(4.606 5.042)">
        <path id="Path_13783" data-name="Path 13783" d="M375.956,149.17a2.637,2.637,0,1,0,2.421-2.836A2.637,2.637,0,0,0,375.956,149.17Z" transform="translate(-374.599 -146.326)" fill="#fff"/>
        <path id="Path_13784" data-name="Path 13784" d="M374.162,158.356l.085,1.084a8.523,8.523,0,0,0,2.574.847,8.616,8.616,0,0,0,6.511-1.567l-.085-1.08a4.557,4.557,0,1,0-9.085.716Z" transform="translate(-374.148 -148.11)" fill="#fff"/>
      </g>
    </g>
    <ellipse id="Ellipse_152" data-name="Ellipse 152" cx="133.068" cy="12.812" rx="133.068" ry="12.812" transform="translate(64.277 321.833)" fill="#ebebeb"/>
    <g id="Group_11176" data-name="Group 11176" transform="translate(234.94 198.807)">
      <g id="Group_11173" data-name="Group 11173">
        <g id="Group_11172" data-name="Group 11172">
          <g id="Group_11160" data-name="Group 11160" transform="translate(41.338 13.668)">
            <path id="Path_13785" data-name="Path 13785" d="M379.485,281.309c-2.846-2.789-6.524-6.158-10.875-4.956-4.093,1.131-5.66,5.6-6.394,9.323-.945,4.8-1.68,9.643-2.441,14.473q-1.154,7.318-2.195,14.653-.595,4.137-1.174,8.277-.288,2.069-.575,4.14c-.188,1.354-.414,2.706-.489,4.072-.024.435.659.5.754.083.528-2.3.746-4.7,1.083-7.031s.68-4.7,1.024-7.048q1.024-7,2.091-13.995t2.176-13.987c.631-3.95.929-8.86,4.432-11.467a6.773,6.773,0,0,1,6.551-.614A19.583,19.583,0,0,1,379.4,281.4.06.06,0,0,0,379.485,281.309Z" transform="translate(-355.342 -270.231)" fill="#263238"/>
            <g id="Group_11159" data-name="Group 11159" transform="translate(10.72)">
              <path id="Path_13786" data-name="Path 13786" d="M379.177,276.495s-5.818-2.094-8.688,2.152.56,15.045,27.05,21.138a74.8,74.8,0,0,0-6.374-23.945C385.487,263.456,375.368,268.145,379.177,276.495Z" transform="translate(-369.649 -268.266)" fill="#ffab1d"/>
              <g id="Group_11158" data-name="Group 11158" transform="translate(6.332 6.317)">
                <path id="Path_13787" data-name="Path 13787" d="M398.2,300.627a20.8,20.8,0,0,0-1.332-2.149q-.664-1.024-1.344-2.039c-.34-.508-.688-1.012-1.036-1.517.025-.122.032-.25.049-.378.031-.229.061-.459.091-.689.065-.5.138-.991.211-1.487s.156-.987.25-1.478a7.809,7.809,0,0,1,.347-1.561c.033-.077-.106-.115-.116-.025a5.794,5.794,0,0,1-.237.877c-.061.223-.12.446-.178.67q-.193.753-.364,1.512c-.1.467-.193.935-.273,1.406-.038.226-.072.453-.1.68-.472-.674-.953-1.341-1.45-2-1.406-1.853-2.895-3.636-4.434-5.375.006-.017.023-.027.023-.048a47.9,47.9,0,0,1,.688-8.276c.017-.074-.1-.115-.112-.04a28.434,28.434,0,0,0-.99,7.919q-.827-.926-1.675-1.837-1.935-2.08-3.947-4.09c-.055-.054-.14.025-.088.082,2.232,2.4,4.352,4.906,6.417,7.453a45.571,45.571,0,0,0-4.842.179c-1.8.133-3.581.363-5.364.61-.076.01-.053.128.023.117a50.241,50.241,0,0,1,5.355-.48c1.729-.072,3.448.006,5.174,0q1.672,2.076,3.307,4.182l-.246,0c-.406-.008-.812-.014-1.218-.007-.8.014-1.611.07-2.413.139a36.634,36.634,0,0,0-4.891.732.06.06,0,0,0,.023.118c1.627-.184,3.259-.336,4.9-.394.782-.028,1.562-.028,2.344-.028.406,0,.811,0,1.218,0a1.533,1.533,0,0,0,.669-.061c.713.925,1.426,1.85,2.131,2.779q.843,1.11,1.662,2.24c.556.77,1.06,1.61,1.678,2.33C398.144,300.749,398.224,300.687,398.2,300.627Z" transform="translate(-378.159 -277.193)" fill="#263238"/>
                <path id="Path_13788" data-name="Path 13788" d="M383.83,287.232a17.8,17.8,0,0,0-2.833-.138c-.946,0-1.891.028-2.836.061a.06.06,0,1,0,.008.118c.958-.069,1.915-.085,2.876-.071.927.014,1.856.1,2.782.078A.024.024,0,0,0,383.83,287.232Z" transform="translate(-378.099 -279.304)" fill="#263238"/>
                <path id="Path_13789" data-name="Path 13789" d="M396.695,289.2c.109-.9.222-1.813.415-2.7a.06.06,0,1,0-.116-.024c-.136.89-.309,1.774-.441,2.666q-.1.669-.181,1.339a6.192,6.192,0,0,0-.109,1.263.081.081,0,0,0,.155.012,7.7,7.7,0,0,0,.137-1.261Q396.618,289.841,396.695,289.2Z" transform="translate(-382.651 -279.133)" fill="#263238"/>
                <path id="Path_13790" data-name="Path 13790" d="M394.2,276.737c-.232.88-.462,1.771-.624,2.668-.082.455-.152.912-.214,1.37a5.5,5.5,0,0,0-.088,1.338.036.036,0,0,0,.069.005,7.616,7.616,0,0,0,.209-1.276q.089-.661.2-1.317c.16-.924.324-1.838.558-2.747C394.334,276.7,394.221,276.662,394.2,276.737Z" transform="translate(-381.9 -276.697)" fill="#263238"/>
              </g>
            </g>
          </g>
          <g id="Group_11162" data-name="Group 11162" transform="translate(10.333 38.842)">
            <path id="Path_13791" data-name="Path 13791" d="M344.121,337.684q-.219-2.5-.484-5-.523-4.951-1.194-9.882c-.441-3.279-.863-6.565-1.39-9.831a24.538,24.538,0,0,0-1.01-4.464,4.238,4.238,0,0,0-2.473-2.79c-3.117-1.076-5.22,2.156-6.478,4.442-.037.069.062.12.1.058.753-1.083,2.836-4.123,5.2-3.982,1.591.1,2.864,1.221,3.627,5.188,1.9,9.884,3.618,29.941,3.818,31.253.106.7.6.665.6-.08C344.455,340.96,344.264,339.317,344.121,337.684Z" transform="translate(-318.255 -302.776)" fill="#263238"/>
            <path id="Path_13792" data-name="Path 13792" d="M327.641,308.019s2.724-9.619-3.3-4.81c-10.024,8.006-10.381,25.421-10.381,25.421s17.819-10.35,20.035-17.177C337.3,301.286,327.641,308.019,327.641,308.019Z" transform="translate(-313.963 -301.863)" fill="#ffab1d"/>
            <g id="Group_11161" data-name="Group 11161" transform="translate(1.131 4.946)">
              <path id="Path_13793" data-name="Path 13793" d="M331.393,314.4c-1.4.284-2.816.47-4.228.672q-1,.145-2.006.282c-.451.061-.908.1-1.363.161,1.328-1.829,2.666-3.651,3.939-5.516.049-.072-.062-.147-.12-.088a41.326,41.326,0,0,0-2.978,3.436c-.261-.745-.527-1.488-.79-2.233-.3-.862-.629-1.718-.847-2.605-.019-.075-.135-.04-.115.034.244.882.416,1.781.651,2.665.228.853.487,1.7.79,2.527-.653.847-1.278,1.716-1.887,2.593-.306-.869-.687-1.71-.955-2.593a.06.06,0,0,0-.115.034c.319.976.492,1.992.791,2.973-.409.6-.818,1.2-1.209,1.8-.719,1.112-1.4,2.244-2.061,3.385a.263.263,0,0,0-.156.269c-1.126,1.947-2.2,3.923-3.253,5.917a.06.06,0,0,0,.1.058c1.057-1.97,2.234-3.887,3.458-5.77,0,0,.009,0,.013,0a2.719,2.719,0,0,1,.583-.112c.205-.042.411-.088.615-.133.461-.1.917-.22,1.375-.333.9-.224,1.8-.437,2.716-.6.075-.013.04-.128-.035-.114-1.078.2-2.16.327-3.25.453-.515.06-1.028.126-1.54.208l-.073.01q.961-1.46,1.947-2.9c.648-.939,1.313-1.867,1.981-2.792.618-.086,1.231-.249,1.843-.366q1.035-.2,2.069-.4c1.379-.273,2.753-.582,4.14-.812C331.5,314.5,331.469,314.38,331.393,314.4Z" transform="translate(-315.473 -308.464)" fill="#263238"/>
              <path id="Path_13794" data-name="Path 13794" d="M322.171,316.836c-.083-.254-.16-.51-.241-.765a15.374,15.374,0,0,1-.408-1.613c-.015-.076-.131-.04-.115.034.116.543.244,1.084.368,1.625a10.452,10.452,0,0,0,.464,1.6.108.108,0,0,0,.206-.062C322.37,317.379,322.26,317.109,322.171,316.836Z" transform="translate(-316.96 -309.956)" fill="#263238"/>
              <path id="Path_13795" data-name="Path 13795" d="M337.5,313.408c-.812.122-1.633.179-2.45.251s-1.633.186-2.449.308c-.044.007-.046.075,0,.072.82-.056,1.634-.12,2.451-.226s1.629-.229,2.449-.285C337.582,313.522,337.576,313.4,337.5,313.408Z" transform="translate(-319.759 -309.703)" fill="#263238"/>
            </g>
          </g>
          <g id="Group_11165" data-name="Group 11165" transform="translate(0 4.621)">
            <path id="Path_13796" data-name="Path 13796" d="M355.5,314.757c-.317-7.082-.766-14.152-1.478-21.206-.355-3.513-.752-7.024-1.246-10.519a75.266,75.266,0,0,0-2.028-10.181,19.559,19.559,0,0,0-3.39-7.178,7.692,7.692,0,0,0-6.848-2.989c-3.1.383-5.6,2.336-7.754,4.457-2.422,2.381-4.639,4.979-6.882,7.525q-.852.967-1.689,1.944c-.05.058.036.141.087.082,2.193-2.52,4.472-4.968,6.855-7.308,2.2-2.163,4.473-4.527,7.525-5.42a7.754,7.754,0,0,1,4.372-.1,6.95,6.95,0,0,1,2.987,1.892,15.654,15.654,0,0,1,3.368,6.55c1.9,6.509,2.587,13.335,3.294,20.058.719,6.83,1.2,13.678,1.547,20.537.345,6.9.614,13.8,1.278,20.672.082.848.192,1.694.3,2.539.073.569.955.569.909-.022C356.147,328.983,355.819,321.875,355.5,314.757Z" transform="translate(-306.189 -257.806)" fill="#263238"/>
            <g id="Group_11164" data-name="Group 11164">
              <path id="Path_13797" data-name="Path 13797" d="M326.353,266.293s4.044-7.485-.735-9.885-20.772,15.452-25.445,41.557c0,0,25.831-11.428,34.6-22.817S333.6,261.252,326.353,266.293Z" transform="translate(-300.173 -256.192)" fill="#ffab1d"/>
              <g id="Group_11163" data-name="Group 11163" transform="translate(4.04 8.677)">
                <path id="Path_13798" data-name="Path 13798" d="M331.5,275.284c-2.9.007-5.8-.22-8.7-.2.544-.624,1.086-1.249,1.636-1.869a27.344,27.344,0,0,0,2.269-2.637c.041-.06-.046-.145-.1-.1a21.111,21.111,0,0,0-2.2,2.2q-1.09,1.158-2.171,2.327c-1.11,1.2-2.2,2.421-3.282,3.644,0-.119,0-.238,0-.352,0-.508,0-1.017,0-1.525.007-.985.022-1.969.031-2.954.019-2,.014-4,.153-5.994.005-.076-.115-.073-.12,0-.139,2-.345,4-.444,6-.049.985-.072,1.969-.084,2.955-.006.508-.014,1.017-.01,1.526,0,.277-.009.569.013.855-.169.192-.345.377-.513.569-2.317,2.647-4.52,5.386-6.664,8.172,0-.154-.024-.311-.038-.462-.03-.307-.067-.614-.1-.921-.075-.666-.166-1.329-.266-1.992q-.14-.934-.3-1.866c-.118-.7-.289-1.4-.341-2.11a.06.06,0,1,0-.118.019,18.374,18.374,0,0,1,.243,2.127q.091.958.177,1.915c.058.64.115,1.279.181,1.918.031.307.059.614.092.922.017.154.035.306.056.46a.869.869,0,0,0,.125.366c-.369.48-.74.959-1.1,1.442-1.465,1.938-2.9,3.9-4.341,5.857-.044.061.04.145.087.082,1.361-1.776,2.763-3.519,4.183-5.248,1.063.046,2.147-.033,3.21-.051,1.12-.019,2.24-.024,3.361-.028a.06.06,0,0,0,0-.119c-1.12.019-2.24.037-3.361.04-1.021,0-2.063-.046-3.084.01q1.872-2.278,3.776-4.532c.461-.548.925-1.1,1.387-1.644a6.356,6.356,0,0,0,1.3.043l1.527,0c.955,0,1.909-.025,2.863-.04,1.971-.031,3.944-.1,5.916-.1a.06.06,0,0,0,0-.119c-1.974-.025-3.948-.11-5.922-.16-.955-.024-1.911-.055-2.866-.068l-1.527-.017c-.29,0-.589-.024-.883-.013q1.625-1.93,3.254-3.857a.147.147,0,0,0,.06-.07q1.588-1.874,3.188-3.736c.147-.169.3-.336.443-.506,3.01.094,6.015-.1,9.025-.046C331.581,275.4,331.579,275.284,331.5,275.284Z" transform="translate(-305.564 -267.772)" fill="#263238"/>
                <path id="Path_13799" data-name="Path 13799" d="M337.946,284.647l-.7.006a.054.054,0,0,0,0,.108l.7.006C338.025,284.768,338.023,284.646,337.946,284.647Z" transform="translate(-313.493 -272.003)" fill="#263238"/>
                <path id="Path_13800" data-name="Path 13800" d="M334.266,284.612q-1.395-.019-2.79-.058-.7-.02-1.4-.044a5.183,5.183,0,0,0-1.3.015c-.046.01-.037.074,0,.086a4.961,4.961,0,0,0,1.3.092q.7.013,1.394.02,1.395.015,2.789.009A.06.06,0,0,0,334.266,284.612Z" transform="translate(-311.378 -271.96)" fill="#263238"/>
                <path id="Path_13801" data-name="Path 13801" d="M323.355,296.12a38.743,38.743,0,0,0-5.712-.516c-.028,0-.025.039,0,.042,1.9.181,3.8.283,5.683.59C323.4,296.248,323.431,296.131,323.355,296.12Z" transform="translate(-308.588 -274.75)" fill="#263238"/>
                <path id="Path_13802" data-name="Path 13802" d="M314.672,283.936c-.019-.166-.038-.332-.06-.5-.049-.374-.107-.746-.166-1.119q-.167-1.064-.37-2.123c-.012-.065-.125-.048-.117.019q.134,1.094.236,2.192c.033.36.06.719.092,1.079a3.032,3.032,0,0,0,.145,1.024c.055.112.222.067.25-.039A1.407,1.407,0,0,0,314.672,283.936Z" transform="translate(-307.669 -270.877)" fill="#263238"/>
              </g>
            </g>
          </g>
          <g id="Group_11168" data-name="Group 11168" transform="translate(38.824)">
            <path id="Path_13803" data-name="Path 13803" d="M362.22,255.554c-.925-1.721-2.1-3.995-4.41-3.851-1.9.119-2.763,2.064-3.171,3.671-1.258,4.971-1.346,10.215-1.592,15.309-.518,10.767-.983,21.545-1.051,32.326q-.028,4.482.02,8.965c.028,3.047.019,6.113.214,9.154a.224.224,0,0,0,.448-.01c.017-2.607-.076-5.215-.086-7.823q-.015-3.816.051-7.632.124-7.728.412-15.454c.19-5.118.415-10.235.632-15.352q.163-3.836.332-7.672c.112-2.477.219-4.957.5-7.422.159-1.38.363-2.761.651-4.12a5.739,5.739,0,0,1,1.191-2.762,2.6,2.6,0,0,1,3.368-.244,7.142,7.142,0,0,1,2.388,2.979C362.153,255.686,362.256,255.622,362.22,255.554Z" transform="translate(-351.986 -250.444)" fill="#263238"/>
            <g id="Group_11167" data-name="Group 11167" transform="translate(4.702)">
              <path id="Path_13804" data-name="Path 13804" d="M363.168,254.313s-1.9-6.7,2.3-3.35c6.983,5.577,7.231,17.708,7.231,17.708s-12.413-7.21-13.956-11.965C356.441,249.623,363.168,254.313,363.168,254.313Z" transform="translate(-358.261 -250.025)" fill="#ffab1d"/>
              <g id="Group_11166" data-name="Group 11166" transform="translate(3.026 3.609)">
                <path id="Path_13805" data-name="Path 13805" d="M371.1,265.316c-.114-.185-.236-.366-.353-.549a3.554,3.554,0,0,0,0-.572c0-.288,0-.577,0-.865q.02-.849.062-1.7c0-.077-.116-.073-.12,0q-.044.832-.067,1.665c-.008.278-.021.556-.029.834,0,.109-.018.233-.024.357q-.731-1.135-1.505-2.241c-.15-.214-.307-.422-.46-.633a13.007,13.007,0,0,1-.037-2.188c.01-.779.02-1.557.047-2.336,0-.077-.117-.074-.119,0-.022.81-.063,1.618-.1,2.428a15.552,15.552,0,0,0-.047,1.733c-1.2-1.63-2.47-3.2-3.758-4.765-.043-.052-.134.022-.092.075.8,1.009,1.562,2.044,2.31,3.091-1.46-.341-2.945-.536-4.43-.752-.076-.01-.1.1-.029.116,1.572.238,3.114.632,4.664.974.013,0,.019-.006.031-.006q.892,1.257,1.767,2.524c.238.343.469.692.7,1.037l-.066-.008c-.161-.023-.322-.047-.483-.067-.342-.041-.688-.068-1.033-.1-.715-.056-1.433-.094-2.149-.133-.076,0-.074.118,0,.12.706.016,1.407.069,2.109.145.37.04.74.091,1.11.134.162.019.324.037.485.058l.142.02q.6.879,1.194,1.759c.7,1.036,1.326,2.147,2.075,3.148a.057.057,0,0,0,.1-.06A32.2,32.2,0,0,0,371.1,265.316Z" transform="translate(-362.299 -255.252)" fill="#263238"/>
                <path id="Path_13806" data-name="Path 13806" d="M369.865,257.338c0-.262.005-.522.005-.783a11.874,11.874,0,0,1,.066-1.641.06.06,0,1,0-.118-.013c0,.542-.059,1.084-.085,1.626-.013.271-.013.542-.014.814,0,.125,0,.251,0,.376a1.148,1.148,0,0,0,.029.39.055.055,0,0,0,.1,0,1.128,1.128,0,0,0,.016-.359C369.867,257.609,369.865,257.473,369.865,257.338Z" transform="translate(-364.159 -254.842)" fill="#263238"/>
                <path id="Path_13807" data-name="Path 13807" d="M366.862,261.776c-.462-.079-.934-.1-1.4-.142-.513-.043-1.023-.088-1.533-.154a.06.06,0,1,0-.013.118c.979.063,1.955.238,2.936.273A.048.048,0,0,0,366.862,261.776Z" transform="translate(-362.689 -256.506)" fill="#263238"/>
              </g>
            </g>
            <path id="Path_13808" data-name="Path 13808" d="M373.067,261.9c.036.051.012.2.012.258v.217c0,.156,0,.312,0,.468s0,.312,0,.469a.984.984,0,0,0,.022.409.027.027,0,0,0,.046,0,.413.413,0,0,0,.024-.194c0-.072,0-.145,0-.217q0-.234,0-.468c0-.156,0-.312,0-.468v-.217c0-.066-.025-.2.013-.258C373.246,261.793,372.987,261.791,373.067,261.9Z" transform="translate(-357.267 -252.982)" fill="#263238"/>
          </g>
          <g id="Group_11171" data-name="Group 11171" transform="translate(28.013 30.591)">
            <path id="Path_13809" data-name="Path 13809" d="M358.891,302.913c-2.611-1.96-4.956-4.776-8.467-4.914-2.9-.114-4.929,2.067-6.09,4.5a25.473,25.473,0,0,0-1.421,4q-.785,2.751-1.479,5.527c-.909,3.64-1.691,7.315-2.324,11.012-.353,2.062-.682,4.131-.943,6.206a52.291,52.291,0,0,0-.61,6.354.33.33,0,0,0,.648.071c.354-1.735.5-3.528.758-5.281s.524-3.528.823-5.285q.9-5.275,2.079-10.5c.749-3.283,1.485-6.618,2.545-9.817.759-2.292,1.978-4.969,4.454-5.793,3.767-1.254,7.188,1.935,9.945,4C358.87,303.045,358.953,302.959,358.891,302.913Z" transform="translate(-337.558 -292.642)" fill="#263238"/>
            <g id="Group_11170" data-name="Group 11170" transform="translate(9.597)">
              <path id="Path_13810" data-name="Path 13810" d="M359.4,299.248s-2.406-6.871,1.074-8.219c5.216-2.019,18.868,13.358,16.2,36.917A134.283,134.283,0,0,1,358.333,315.6c-7.788-6.537-9.782-15.075-6.351-17.283S359.4,299.248,359.4,299.248Z" transform="translate(-350.366 -290.851)" fill="#ffab1d"/>
              <g id="Group_11169" data-name="Group 11169" transform="translate(4.601 7.159)">
                <path id="Path_13811" data-name="Path 13811" d="M377.42,325.292a18.084,18.084,0,0,0-1.269-2.376c-.446-.806-.9-1.61-1.362-2.405-.907-1.55-1.807-3.105-2.736-4.643-.151-.249-.306-.5-.457-.744.02-.091.036-.184.057-.276l.155-.682c.116-.51.2-1.027.3-1.542.189-1.009.364-2.03.636-3.02.02-.073-.1-.1-.118-.021-.216,1.008-.534,2-.832,2.985-.147.486-.3.97-.431,1.46-.044.169-.088.336-.132.505-1.122-1.839-2.263-3.669-3.492-5.436a2.45,2.45,0,0,0,.122-.755c.037-.345.079-.689.119-1.033.092-.775.181-1.55.3-2.322a44.922,44.922,0,0,1,.826-4.514c.02-.075-.1-.1-.118-.021-.375,1.484-.785,2.967-1.066,4.472-.138.737-.268,1.478-.367,2.222-.049.372-.088.746-.127,1.119-.011.11-.028.223-.043.337-.378-.534-.757-1.068-1.153-1.589-1.2-1.584-2.453-3.132-3.713-4.673-.049-.059-.147.009-.1.069a83.181,83.181,0,0,1,5.932,8.663c.345.553.683,1.11,1.025,1.666l-.339-.043c-.441-.056-.888-.084-1.33-.125q-1.332-.124-2.664-.231c-1.777-.142-3.559-.25-5.331-.441-.076-.008-.1.109-.021.118,1.8.206,3.584.495,5.373.749q1.321.188,2.642.355a10.446,10.446,0,0,0,2.034.208q1.048,1.7,2.1,3.4a3.815,3.815,0,0,0-.471-.018c-.3-.005-.593,0-.889,0h-1.651c-1.144,0-2.288.023-3.433.022-.077,0-.065.118.011.119,1.16.014,2.316.073,3.474.133q.825.043,1.648.1c.274.019.548.042.823.059a1.684,1.684,0,0,0,.725-.028c.592.966,1.191,1.928,1.782,2.894.546.892,1.1,1.78,1.662,2.659a21.279,21.279,0,0,0,1.789,2.685C377.351,325.4,377.448,325.367,377.42,325.292Z" transform="translate(-357.293 -300.406)" fill="#263238"/>
                <path id="Path_13812" data-name="Path 13812" d="M376.278,308.188a16.743,16.743,0,0,1-.471,2.24q-.291,1.145-.664,2.267a.074.074,0,1,0,.141.045q.351-1.114.627-2.248c.183-.757.3-1.529.485-2.284C376.415,308.134,376.287,308.112,376.278,308.188Z" transform="translate(-361.178 -302.345)" fill="#263238"/>
                <path id="Path_13813" data-name="Path 13813" d="M363.858,314.007a.882.882,0,0,0-.575-.214c-.332-.046-.664-.091-1-.136-.617-.085-1.236-.153-1.855-.226-1.285-.151-2.572-.275-3.857-.437-.076-.01-.1.108-.021.118,1.212.148,2.419.331,3.63.49.593.077,1.185.162,1.78.231.285.034.571.064.857.1a3.024,3.024,0,0,1,.979.168C363.858,314.125,363.9,314.049,363.858,314.007Z" transform="translate(-356.507 -303.562)" fill="#263238"/>
                <path id="Path_13814" data-name="Path 13814" d="M375.353,328.118c-.605-.052-1.218-.071-1.826-.09l-.921-.028-.442-.013a2.768,2.768,0,0,1-.575-.034c-.085-.022-.094.133-.005.118a2.594,2.594,0,0,1,.539.016l.479.029.92.055c.607.036,1.218.073,1.826.076A.066.066,0,0,0,375.353,328.118Z" transform="translate(-360.271 -307.311)" fill="#263238"/>
                <path id="Path_13815" data-name="Path 13815" d="M381.475,323.6q.1-.517.2-1.036.187-1.018.374-2.037a.06.06,0,0,0-.118-.021l-.447,1.985c-.074.33-.148.662-.217.994-.031.153-.064.306-.1.459a1.266,1.266,0,0,0-.055.486c.01.055.093.1.132.041A2.5,2.5,0,0,0,381.475,323.6Z" transform="translate(-362.674 -305.434)" fill="#263238"/>
              </g>
            </g>
          </g>
        </g>
      </g>
      <g id="Group_11175" data-name="Group 11175" transform="translate(23.11 68.633)">
        <g id="Group_11174" data-name="Group 11174" transform="translate(2.187 2.278)">
          <path id="Path_13816" data-name="Path 13816" d="M333.934,344.661l.735,8.352,2.5,28.2h22.084l3.118-28.2.921-8.352Z" transform="translate(-333.934 -344.661)" fill="#455a64"/>
          <path id="Path_13817" data-name="Path 13817" d="M333.934,344.661l.735,8.352h27.7l.921-8.352Z" transform="translate(-333.934 -344.661)" fill="#263238"/>
        </g>
        <rect id="Rectangle_324" data-name="Rectangle 324" width="33.728" height="6.776" transform="translate(33.728 6.776) rotate(180)" fill="#455a64"/>
      </g>
    </g>
    <line id="Line_45" data-name="Line 45" x2="314.75" transform="translate(39.97 306.361)" fill="none" stroke="#c2c2c2" stroke-linecap="round" stroke-linejoin="round" stroke-width="1"/>
    <path id="Path_13818" data-name="Path 13818" d="M286.531,62.424H164.266a12.482,12.482,0,0,0-12.366,12.6V326.7a12.491,12.491,0,0,0,12.366,12.6H286.531a12.5,12.5,0,0,0,12.381-12.6V75.023A12.494,12.494,0,0,0,286.531,62.424Zm4.643,256.5c0,6.625-4.961,11.984-11.08,11.984H170.717c-6.132,0-11.093-5.359-11.093-11.984V84.561c0-13.495,4.961-14.153,11.093-14.153H192.63c1.273,0,2.315,1.446,2.315,3.24v.773c0,4.2,2.3,4.216,5.12,4.216h50.668c2.85,0,5.135-.014,5.135-4.216v-.773c0-1.794,1.027-3.24,2.321-3.24h21.906c6.119,0,11.08,1.793,11.08,14.153Z" transform="translate(-28.061 -4.186)" fill="#263238"/>
    <line id="Line_46" data-name="Line 46" x1="0.412" transform="translate(131.154 299.882)" fill="none"/>
    <path id="Path_13819" data-name="Path 13819" d="M293.768,87.508V321.87c0,6.625-4.962,11.984-11.08,11.984H173.311c-6.133,0-11.094-5.359-11.094-11.984V87.508c0-13.495,4.961-14.153,11.094-14.153h21.913c1.273,0,2.314,1.446,2.314,3.24v.774c0,4.2,2.3,4.216,5.121,4.216h50.668c2.85,0,5.135-.014,5.135-4.216v-.774c0-1.794,1.027-3.24,2.321-3.24h21.906C288.807,73.355,293.768,75.148,293.768,87.508Z" transform="translate(-30.647 -6.927)" fill="#fff"/>
    <path id="Path_13820" data-name="Path 13820" d="M293.768,87.512v21.262H162.217V87.512c0-13.495,4.961-14.153,11.094-14.153h21.913c1.273,0,2.314,1.446,2.314,3.24v.773c0,4.2,2.3,4.216,5.121,4.216h50.668c2.85,0,5.135-.014,5.135-4.216V76.6c0-1.794,1.027-3.24,2.321-3.24h21.906C288.807,73.359,293.768,75.152,293.768,87.512Z" transform="translate(-30.647 -6.928)" fill="#ffab1d"/>
    <path id="Path_13821" data-name="Path 13821" d="M254.309,76.488H240.488a.854.854,0,0,1-.854-.853h0a.854.854,0,0,1,.854-.853h13.821a.854.854,0,0,1,.853.853h0A.854.854,0,0,1,254.309,76.488Z" transform="translate(-50.056 -7.284)" fill="#fff"/>
    <g id="Group_11183" data-name="Group 11183" transform="translate(140.475 70.5)">
      <g id="Group_11180" data-name="Group 11180" transform="translate(0 0)">
        <g id="u5Zjqx" transform="translate(15.9)">
          <g id="Group_11177" data-name="Group 11177">
            <path id="Path_13822" data-name="Path 13822" d="M200.065,79.775l-.212.21-.12.121a2.882,2.882,0,0,0-4.081,0c-.037-.039-.075-.079-.114-.119-.069-.07-.139-.14-.209-.211l-.006,0V79.77l.015-.013c.089-.079.176-.161.268-.237a3.11,3.11,0,0,1,.619-.395,3.143,3.143,0,0,1,.82-.276c.136-.025.273-.037.41-.055.046-.005.35-.007.359-.006.093.007.187.011.279.021a3.2,3.2,0,0,1,.752.18,3.282,3.282,0,0,1,.51.238,3.217,3.217,0,0,1,.486.34c.076.065.149.134.223.2Z" transform="translate(-195.323 -78.789)" fill="#fff"/>
            <path id="Path_13823" data-name="Path 13823" d="M196.547,81.086l-.335-.332a2.41,2.41,0,0,1,3.409,0l-.336.334a1.937,1.937,0,0,0-2.738,0Z" transform="translate(-195.546 -79.104)" fill="#fff"/>
            <path id="Path_13824" data-name="Path 13824" d="M199.174,81.736l-.333.332a.989.989,0,0,0-1.4,0l-.332-.333A1.453,1.453,0,0,1,199.174,81.736Z" transform="translate(-195.77 -79.419)" fill="#fff"/>
          </g>
          <path id="Path_13825" data-name="Path 13825" d="M198.687,82.626a.3.3,0,1,1-.3-.3A.3.3,0,0,1,198.687,82.626Z" transform="translate(-196.015 -79.676)" fill="#fff"/>
        </g>
        <g id="Group_11178" data-name="Group 11178" transform="translate(0 0.754)">
          <path id="Path_13826" data-name="Path 13826" d="M174.1,80.666a.872.872,0,1,1,.871.872A.871.871,0,0,1,174.1,80.666Z" transform="translate(-174.103 -79.795)" fill="#fff"/>
          <path id="Path_13827" data-name="Path 13827" d="M177.767,80.666a.872.872,0,1,1,.872.872A.872.872,0,0,1,177.767,80.666Z" transform="translate(-175.022 -79.795)" fill="#fff"/>
          <path id="Path_13828" data-name="Path 13828" d="M181.432,80.666a.872.872,0,1,1,.872.872A.872.872,0,0,1,181.432,80.666Z" transform="translate(-175.94 -79.795)" fill="#fff"/>
          <path id="Path_13829" data-name="Path 13829" d="M185.1,80.666a.872.872,0,1,1,.871.872A.872.872,0,0,1,185.1,80.666Z" transform="translate(-176.859 -79.795)" fill="#fff"/>
          <path id="Path_13830" data-name="Path 13830" d="M188.762,80.666a.872.872,0,1,1,.871.872A.872.872,0,0,1,188.762,80.666Z" transform="translate(-177.778 -79.795)" fill="#fff"/>
        </g>
        <g id="Group_11179" data-name="Group 11179" transform="translate(106.006 0.241)">
          <path id="Path_13831" data-name="Path 13831" d="M322.674,82.4h-7.1V79.111h7.1Zm-6.735-.361h6.374V79.472h-6.374Z" transform="translate(-315.577 -79.111)" fill="#fff"/>
          <rect id="Rectangle_325" data-name="Rectangle 325" width="4.575" height="2.171" transform="translate(0.589 0.558)" fill="#fff"/>
          <rect id="Rectangle_326" data-name="Rectangle 326" width="0.631" height="1.759" transform="translate(7.102 0.764)" fill="#fff"/>
        </g>
      </g>
      <g id="Group_11182" data-name="Group 11182" transform="translate(0 15.929)">
        <path id="Path_13832" data-name="Path 13832" d="M177.989,107.33l-3.886-3.642,3.886-3.641.6.642-3.2,3,3.2,3Z" transform="translate(-174.103 -100.047)" fill="#fff"/>
        <g id="Group_11181" data-name="Group 11181" transform="translate(105.364 0.52)">
          <rect id="Rectangle_327" data-name="Rectangle 327" width="7.038" height="1.124" fill="#fff"/>
          <rect id="Rectangle_328" data-name="Rectangle 328" width="7.038" height="1.124" transform="translate(0 2.56)" fill="#fff"/>
          <rect id="Rectangle_329" data-name="Rectangle 329" width="7.038" height="1.124" transform="translate(0 5.12)" fill="#fff"/>
        </g>
      </g>
    </g>
    <g id="Group_11184" data-name="Group 11184" transform="translate(178.799 88.36)">
      <path id="Path_13833" data-name="Path 13833" d="M229.207,103.162v3.879a.37.37,0,0,1-.368.361.361.361,0,0,1-.362-.361v-2.768l-.946,1.315a.361.361,0,0,1-.3.151h-.013a.372.372,0,0,1-.3-.151l-.94-1.315v2.768a.365.365,0,0,1-.73,0v-3.879a.365.365,0,0,1,.362-.361h.019a.356.356,0,0,1,.289.151l1.308,1.815,1.308-1.815a.36.36,0,0,1,.3-.151h.007A.375.375,0,0,1,229.207,103.162Z" transform="translate(-225.249 -102.669)" fill="#fff"/>
      <path id="Path_13834" data-name="Path 13834" d="M235.756,103.435l-1.347,1.847v1.775a.356.356,0,0,1-.362.361.365.365,0,0,1-.362-.361v-1.775l-1.335-1.847a.346.346,0,0,1,.073-.5.352.352,0,0,1,.5.079l1.124,1.538,1.124-1.538a.36.36,0,0,1,.585.421Z" transform="translate(-227.01 -102.685)" fill="#fff"/>
      <path id="Path_13835" data-name="Path 13835" d="M242.111,105.615H241.3v1.427a.365.365,0,0,1-.729,0v-3.879a.36.36,0,0,1,.361-.361h1.176a1.407,1.407,0,1,1,0,2.814Zm-.809-.73h.809a.677.677,0,1,0,0-1.355H241.3Z" transform="translate(-229.091 -102.669)" fill="#fff"/>
      <path id="Path_13836" data-name="Path 13836" d="M248.7,106.857a.363.363,0,0,1-.231.46.562.562,0,0,1-.144.02h-.007a.482.482,0,0,1-.257-.073.648.648,0,0,1-.21-.23,1.764,1.764,0,0,1-.138-.789.549.549,0,0,0-.079-.282.6.6,0,0,0-.2-.19,1.236,1.236,0,0,0-.368-.158h-.776v1.427a.366.366,0,0,1-.369.361.361.361,0,0,1-.362-.361v-3.879a.356.356,0,0,1,.362-.361H247.1a1.406,1.406,0,0,1,.894,2.491,1.023,1.023,0,0,1,.23.244,1.241,1.241,0,0,1,.217.71,1.721,1.721,0,0,0,.026.388A.355.355,0,0,1,248.7,106.857Zm-.92-2.643a.678.678,0,0,0-.677-.684h-.808v1.355h.808A.675.675,0,0,0,247.776,104.214Z" transform="translate(-230.341 -102.669)" fill="#fff"/>
      <path id="Path_13837" data-name="Path 13837" d="M254.574,103.329a2.415,2.415,0,0,1,0,3.326,2.151,2.151,0,0,1-1.571.7,2.218,2.218,0,0,1-1.611-.7,2.451,2.451,0,0,1,0-3.326,2.2,2.2,0,0,1,1.611-.7A2.129,2.129,0,0,1,254.574,103.329Zm-.085,1.663a1.7,1.7,0,0,0-.447-1.151,1.419,1.419,0,0,0-2.1,0,1.675,1.675,0,0,0-.447,1.151,1.645,1.645,0,0,0,.447,1.143,1.4,1.4,0,0,0,2.1,0A1.672,1.672,0,0,0,254.488,104.992Z" transform="translate(-231.64 -102.625)" fill="#fff"/>
      <path id="Path_13838" data-name="Path 13838" d="M258.464,107.041v-3.879a.361.361,0,0,1,.362-.361h2.149a.365.365,0,0,1,0,.729h-1.781v1.2h1.532a.365.365,0,0,1,0,.73h-1.532v1.578a.366.366,0,0,1-.368.361A.361.361,0,0,1,258.464,107.041Z" transform="translate(-233.576 -102.669)" fill="#fff"/>
      <path id="Path_13839" data-name="Path 13839" d="M263.829,103.162a.356.356,0,0,1,.361-.361.366.366,0,0,1,.369.361v3.879a.366.366,0,0,1-.369.361.356.356,0,0,1-.361-.361Z" transform="translate(-234.921 -102.669)" fill="#fff"/>
      <path id="Path_13840" data-name="Path 13840" d="M266.441,107.041v-3.879a.361.361,0,0,1,.363-.361.366.366,0,0,1,.368.361v3.51h1.781a.365.365,0,0,1,0,.73H266.8A.361.361,0,0,1,266.441,107.041Z" transform="translate(-235.576 -102.669)" fill="#fff"/>
      <path id="Path_13841" data-name="Path 13841" d="M271.377,107.041v-3.879a.356.356,0,0,1,.362-.361h2.149a.365.365,0,0,1,.363.361.371.371,0,0,1-.363.368h-1.78v1.2h1.531a.365.365,0,0,1,0,.73h-1.531v1.209h1.78a.365.365,0,0,1,0,.73h-2.13c-.013,0-.013-.006-.013-.006l-.007.006A.361.361,0,0,1,271.377,107.041Z" transform="translate(-236.813 -102.669)" fill="#fff"/>
    </g>
    <g id="Group_11185" data-name="Group 11185" transform="translate(137.396 118.895)">
      <ellipse id="Ellipse_153" data-name="Ellipse 153" cx="4.842" cy="4.842" rx="4.842" ry="4.842" transform="translate(0 12.181)" fill="#ebebeb"/>
      <ellipse id="Ellipse_154" data-name="Ellipse 154" cx="3.373" cy="3.373" rx="3.373" ry="3.373" transform="translate(25.153 0)" fill="#455a64"/>
    </g>
    <g id="Group_11187" data-name="Group 11187" transform="translate(181.05 176.585)">
      <g id="Group_11186" data-name="Group 11186" transform="translate(58.172 0.288)">
        <path id="Path_13842" data-name="Path 13842" d="M306.36,220.753a.484.484,0,0,1,.48.48.478.478,0,0,1-.48.474.472.472,0,0,1-.473-.474A.478.478,0,0,1,306.36,220.753Z" transform="translate(-305.887 -220.753)" fill="#c7c7c7"/>
        <path id="Path_13843" data-name="Path 13843" d="M308.326,220.753a.484.484,0,0,1,.48.48.478.478,0,0,1-.48.474.472.472,0,0,1-.473-.474A.478.478,0,0,1,308.326,220.753Z" transform="translate(-306.38 -220.753)" fill="#c7c7c7"/>
        <path id="Path_13844" data-name="Path 13844" d="M310.293,220.753a.484.484,0,0,1,.48.48.477.477,0,0,1-.48.474.472.472,0,0,1-.474-.474A.478.478,0,0,1,310.293,220.753Z" transform="translate(-306.873 -220.753)" fill="#c7c7c7"/>
      </g>
      <path id="Path_13845" data-name="Path 13845" d="M243.15,221.9a126.059,126.059,0,0,0,14.9-.807,152.88,152.88,0,0,0-29.8,0A126.075,126.075,0,0,0,243.15,221.9Z" transform="translate(-228.252 -220.368)" fill="#455a64"/>
      <path id="Path_13846" data-name="Path 13846" d="M228.252,231.809l7.9-.117,7.9-.067,15.8-.056,15.8.055,7.9.067,7.9.118-7.9.118-7.9.067-15.8.055-15.8-.056-7.9-.067Z" transform="translate(-228.252 -223.176)" fill="#c7c7c7"/>
      <path id="Path_13847" data-name="Path 13847" d="M228.252,235.512l7.9-.117,7.9-.067,15.8-.056,15.8.055,7.9.067,7.9.118-7.9.118-7.9.067-15.8.055-15.8-.056-7.9-.067Z" transform="translate(-228.252 -224.104)" fill="#c7c7c7"/>
      <path id="Path_13848" data-name="Path 13848" d="M228.252,228.107l7.9-.117,7.9-.067,15.8-.056,15.8.055,7.9.067,7.9.118-7.9.118-7.9.067-15.8.055-15.8-.056-7.9-.067Z" transform="translate(-228.252 -222.248)" fill="#c7c7c7"/>
      <path id="Path_13849" data-name="Path 13849" d="M228.252,239.213l5.919-.117,5.919-.067,11.838-.056,11.838.055,5.919.067,5.919.118-5.919.118-5.919.068-11.838.055-11.838-.056-5.919-.067Z" transform="translate(-228.252 -225.032)" fill="#c7c7c7"/>
      <rect id="Rectangle_330" data-name="Rectangle 330" width="22" height="22" transform="translate(-34.704 -5.127)" fill="#e9e9e9"/>
      <rect id="Rectangle_331" data-name="Rectangle 331" width="22" height="22" transform="translate(-34.704 34.873)" fill="#e9e9e9"/>
      <rect id="Rectangle_332" data-name="Rectangle 332" width="22" height="22" transform="translate(-34.704 71.873)" fill="#e9e9e9"/>
      <rect id="Rectangle_333" data-name="Rectangle 333" width="22" height="22" transform="translate(-34.704 108.873)" fill="#e9e9e9"/>
    </g>
    <path id="Path_13850" data-name="Path 13850" d="M217.287,358.5l-.061-18.888-.035-18.888-.029-37.775.029-37.775.035-18.888.062-18.888.062,18.888.035,18.888.029,37.775-.029,37.775-.035,18.888Z" transform="translate(-44.422 -40.533)" fill="#dbdbdb"/>
    <path id="Path_13851" data-name="Path 13851" d="M174.1,202.041l14.217-.061,14.217-.035,28.435-.029,28.435.029,14.217.035,14.217.061-14.217.061-14.217.035-28.435.029-28.435-.029L188.32,202.1Z" transform="translate(-33.627 -39.157)" fill="#dbdbdb"/>
    <path id="Path_13852" data-name="Path 13852" d="M221.764,254.777l9.753-.074,9.753-.043,19.507-.036,19.507.035,9.753.043,9.753.075-9.753.075-9.753.043-19.507.035-19.507-.036-9.753-.043Z" transform="translate(-45.576 -52.371)" fill="#dbdbdb"/>
    <g id="Group_11189" data-name="Group 11189" transform="translate(181.05 214.538)">
      <path id="Path_13853" data-name="Path 13853" d="M243.15,272.554a126.057,126.057,0,0,0,14.9-.807,153.043,153.043,0,0,0-29.8,0A126.073,126.073,0,0,0,243.15,272.554Z" transform="translate(-228.252 -271.02)" fill="#455a64"/>
      <path id="Path_13854" data-name="Path 13854" d="M228.252,282.461l7.9-.117,7.9-.067,15.8-.056,15.8.055,7.9.067,7.9.118-7.9.118-7.9.067-15.8.055-15.8-.056-7.9-.067Z" transform="translate(-228.252 -273.828)" fill="#c7c7c7"/>
      <path id="Path_13855" data-name="Path 13855" d="M228.252,286.163l7.9-.117,7.9-.067,15.8-.056,15.8.055,7.9.067,7.9.118-7.9.118-7.9.067-15.8.055-15.8-.056-7.9-.067Z" transform="translate(-228.252 -274.756)" fill="#c7c7c7"/>
      <path id="Path_13856" data-name="Path 13856" d="M228.252,278.758l7.9-.117,7.9-.067,15.8-.056,15.8.055,7.9.067,7.9.118-7.9.118-7.9.067-15.8.055-15.8-.056-7.9-.067Z" transform="translate(-228.252 -272.9)" fill="#c7c7c7"/>
      <path id="Path_13857" data-name="Path 13857" d="M228.252,289.864l5.919-.117,5.919-.067,11.838-.056,11.838.055,5.919.067,5.919.118-5.919.118-5.919.068-11.838.055-11.838-.056-5.919-.067Z" transform="translate(-228.252 -275.684)" fill="#c7c7c7"/>
      <g id="Group_11188" data-name="Group 11188" transform="translate(58.172 0.29)">
        <path id="Path_13858" data-name="Path 13858" d="M306.36,271.407a.484.484,0,0,1,.48.48.478.478,0,0,1-.48.474.472.472,0,0,1-.473-.474A.478.478,0,0,1,306.36,271.407Z" transform="translate(-305.887 -271.407)" fill="#c7c7c7"/>
        <path id="Path_13859" data-name="Path 13859" d="M308.326,271.407a.484.484,0,0,1,.48.48.478.478,0,0,1-.48.474.472.472,0,0,1-.473-.474A.478.478,0,0,1,308.326,271.407Z" transform="translate(-306.38 -271.407)" fill="#c7c7c7"/>
        <path id="Path_13860" data-name="Path 13860" d="M310.293,271.407a.484.484,0,0,1,.48.48.478.478,0,0,1-.48.474.473.473,0,0,1-.474-.474A.478.478,0,0,1,310.293,271.407Z" transform="translate(-306.873 -271.407)" fill="#c7c7c7"/>
      </g>
    </g>
    <path id="Path_13861" data-name="Path 13861" d="M221.764,305.429l9.753-.074,9.753-.043,19.507-.036,19.507.035,9.753.043,9.753.075-9.753.075-9.753.043-19.507.035-19.507-.036-9.753-.043Z" transform="translate(-45.576 -65.07)" fill="#dbdbdb"/>
    <g id="Group_11191" data-name="Group 11191" transform="translate(181.05 252.491)">
      <path id="Path_13862" data-name="Path 13862" d="M243.15,323.206a126.057,126.057,0,0,0,14.9-.807,152.877,152.877,0,0,0-29.8,0A126.073,126.073,0,0,0,243.15,323.206Z" transform="translate(-228.252 -321.671)" fill="#455a64"/>
      <path id="Path_13863" data-name="Path 13863" d="M228.252,333.112l7.9-.117,7.9-.067,15.8-.056,15.8.055,7.9.067,7.9.118-7.9.118-7.9.067-15.8.055-15.8-.056-7.9-.067Z" transform="translate(-228.252 -324.479)" fill="#c7c7c7"/>
      <path id="Path_13864" data-name="Path 13864" d="M228.252,336.815l7.9-.117,7.9-.067,15.8-.056,15.8.055,7.9.067,7.9.118-7.9.118-7.9.067-15.8.055-15.8-.056-7.9-.067Z" transform="translate(-228.252 -325.407)" fill="#c7c7c7"/>
      <path id="Path_13865" data-name="Path 13865" d="M228.252,329.41l7.9-.117,7.9-.067,15.8-.056,15.8.055,7.9.067,7.9.118-7.9.118-7.9.067-15.8.055-15.8-.056-7.9-.067Z" transform="translate(-228.252 -323.551)" fill="#c7c7c7"/>
      <path id="Path_13866" data-name="Path 13866" d="M228.252,340.516l5.919-.117,5.919-.067,11.838-.056,11.838.055,5.919.067,5.919.118-5.919.118-5.919.068-11.838.055-11.838-.056-5.919-.067Z" transform="translate(-228.252 -326.335)" fill="#c7c7c7"/>
      <g id="Group_11190" data-name="Group 11190" transform="translate(58.172 0.291)">
        <path id="Path_13867" data-name="Path 13867" d="M306.36,322.059a.484.484,0,0,1,.48.48.478.478,0,0,1-.48.474.472.472,0,0,1-.473-.474A.477.477,0,0,1,306.36,322.059Z" transform="translate(-305.887 -322.059)" fill="#c7c7c7"/>
        <path id="Path_13868" data-name="Path 13868" d="M308.326,322.059a.484.484,0,0,1,.48.48.478.478,0,0,1-.48.474.472.472,0,0,1-.473-.474A.477.477,0,0,1,308.326,322.059Z" transform="translate(-306.38 -322.059)" fill="#c7c7c7"/>
        <path id="Path_13869" data-name="Path 13869" d="M310.293,322.059a.483.483,0,0,1,.48.48.478.478,0,0,1-.48.474.473.473,0,0,1-.474-.474A.478.478,0,0,1,310.293,322.059Z" transform="translate(-306.873 -322.059)" fill="#c7c7c7"/>
      </g>
    </g>
    <path id="Path_13870" data-name="Path 13870" d="M221.764,356.08l9.753-.074,9.753-.043,19.507-.036,19.507.035,9.753.043,9.753.075-9.753.075-9.753.043-19.507.035-19.507-.036-9.753-.043Z" transform="translate(-45.576 -77.768)" fill="#dbdbdb"/>
    <g id="Group_11193" data-name="Group 11193" transform="translate(181.05 290.445)">
      <path id="Path_13871" data-name="Path 13871" d="M243.15,373.858a125.94,125.94,0,0,0,14.9-.808,153.043,153.043,0,0,0-29.8,0A125.955,125.955,0,0,0,243.15,373.858Z" transform="translate(-228.252 -372.323)" fill="#455a64"/>
      <path id="Path_13872" data-name="Path 13872" d="M228.252,383.764l7.9-.117,7.9-.067,15.8-.056,15.8.055,7.9.067,7.9.118-7.9.118-7.9.067-15.8.055-15.8-.056-7.9-.067Z" transform="translate(-228.252 -375.131)" fill="#c7c7c7"/>
      <path id="Path_13873" data-name="Path 13873" d="M228.252,387.466l7.9-.117,7.9-.067,15.8-.056,15.8.055,7.9.067,7.9.118-7.9.118-7.9.067-15.8.055-15.8-.056-7.9-.067Z" transform="translate(-228.252 -376.059)" fill="#c7c7c7"/>
      <path id="Path_13874" data-name="Path 13874" d="M228.252,380.061l7.9-.117,7.9-.067,15.8-.056,15.8.055,7.9.067,7.9.118-7.9.118-7.9.067-15.8.055-15.8-.056-7.9-.067Z" transform="translate(-228.252 -374.203)" fill="#c7c7c7"/>
      <path id="Path_13875" data-name="Path 13875" d="M228.252,391.167l5.919-.117,5.919-.067,11.838-.056,11.838.055,5.919.067,5.919.118-5.919.118-5.919.068-11.838.055-11.838-.056-5.919-.067Z" transform="translate(-228.252 -376.987)" fill="#c7c7c7"/>
      <g id="Group_11192" data-name="Group 11192" transform="translate(58.172 0.29)">
        <path id="Path_13876" data-name="Path 13876" d="M306.36,372.71a.484.484,0,0,1,.48.48.478.478,0,0,1-.48.474.472.472,0,0,1-.473-.474A.478.478,0,0,1,306.36,372.71Z" transform="translate(-305.887 -372.71)" fill="#c7c7c7"/>
        <path id="Path_13877" data-name="Path 13877" d="M308.326,372.71a.484.484,0,0,1,.48.48.478.478,0,0,1-.48.474.472.472,0,0,1-.473-.474A.478.478,0,0,1,308.326,372.71Z" transform="translate(-306.38 -372.71)" fill="#c7c7c7"/>
        <path id="Path_13878" data-name="Path 13878" d="M310.293,372.71a.484.484,0,0,1,.48.48.478.478,0,0,1-.48.474.473.473,0,0,1-.474-.474A.478.478,0,0,1,310.293,372.71Z" transform="translate(-306.873 -372.71)" fill="#c7c7c7"/>
      </g>
    </g>
    <path id="Path_13879" data-name="Path 13879" d="M221.764,406.732l9.753-.074,9.753-.043,19.507-.036,19.507.035,9.753.043,9.753.075-9.753.075-9.753.043-19.507.035-19.507-.036-9.753-.043Z" transform="translate(-45.576 -90.466)" fill="#dbdbdb"/>
    <path id="Path_13880" data-name="Path 13880" d="M174.1,414.993l14.217-.061,14.217-.035,28.435-.029,28.435.029,14.217.035,14.217.061-14.217.061-14.217.035-28.435.029-28.435-.029-14.217-.035Z" transform="translate(-33.627 -92.545)" fill="#dbdbdb"/>
    <g id="Group_11194" data-name="Group 11194" transform="translate(141.885 118.063)">
      <path id="Path_13881" data-name="Path 13881" d="M249.009,145.491a11.5,11.5,0,0,1-9.124,8.561c-.03,0-.059.015-.089.015h-.044a11.222,11.222,0,0,1-4.592-.178,9.527,9.527,0,0,1-1.436-.459,1.646,1.646,0,0,1-.237-.1c-.074-.03-.148-.059-.207-.089a8,8,0,0,1-1.422-.726,11.454,11.454,0,1,1,17.151-7.02Z" transform="translate(-226.415 -131.309)" fill="#ffab1d"/>
    </g>
    <g id="Group_11219" data-name="Group 11219" transform="translate(146.493 120.179)">
      <g id="Group_11208" data-name="Group 11208" transform="translate(2.256 13.693)">
        <g id="Group_11207" data-name="Group 11207">
          <path id="Path_13893" data-name="Path 13893" d="M247.428,165.429s-.015.059-.044.163c-.015.044-.03.119-.044.178-.03.1-.059.252-.1.4-.044.222-.1.474-.148.755a2.366,2.366,0,0,0-.059.341c-.029.208-.074.415-.1.637a5.979,5.979,0,0,0-.059.741,6.061,6.061,0,0,0-.03.725,1.781,1.781,0,0,0,.045.415v.074c.03.207.089.533.133.933a11.222,11.222,0,0,1-4.592-.178,9.524,9.524,0,0,1-1.436-.459,1.645,1.645,0,0,1-.237-.1c-.074-.03-.148-.059-.207-.089.015-.474.177-1.585.281-2.9.059-.667.1-1.393.133-2.1,0-.163.015-.3.015-.459V163.9c0-.044.029-.059.074-.059a.937.937,0,0,1,.385.119,2.213,2.213,0,0,1,.252.119l.4.089.933.222,4.162.978.134.03Z" transform="translate(-240.541 -163.842)" fill="#d3766a"/>
        </g>
        <path id="Path_13894" data-name="Path 13894" d="M247.685,170.3c0,.019.008.042.01.07a4.081,4.081,0,0,1-.661.04c-4.336-.063-4.921-5.571-4.921-5.571l1.714.061,4.4,1.033a16.372,16.372,0,0,0-.591,3.946A2.3,2.3,0,0,0,247.685,170.3Z" transform="translate(-241.349 -164.356)" fill="#263238"/>
      </g>
      <g id="Group_11218" data-name="Group 11218" transform="translate(0 0)">
        <g id="Group_11209" data-name="Group 11209" transform="translate(1.439 2.903)">
          <path id="Path_13895" data-name="Path 13895" d="M238.973,145.665c-.558,2.32,1.042,8.831,2.751,10.2,2.478,1.987,6.337,1.958,7.975-.975,1.587-2.844-.648-11.292-2.539-12.516C244.376,140.57,239.8,142.237,238.973,145.665Z" transform="translate(-238.86 -141.638)" fill="#d3766a"/>
        </g>
        <g id="Group_11215" data-name="Group 11215" transform="translate(6.163 8.259)">
          <g id="Group_11210" data-name="Group 11210" transform="translate(0.748 2.483)">
            <path id="Path_13896" data-name="Path 13896" d="M251.8,158.526c-.007-.016-.029.029-.024.047.12.436.183.955-.179,1.2-.011.007,0,.029.009.023C252.074,159.608,251.982,158.919,251.8,158.526Z" transform="translate(-250.876 -158.157)" fill="#263238"/>
            <path id="Path_13897" data-name="Path 13897" d="M250.542,157.775c-.719.117-.434,1.546.232,1.438S251.144,157.677,250.542,157.775Z" transform="translate(-250.121 -157.77)" fill="#263238"/>
          </g>
          <g id="Group_11211" data-name="Group 11211" transform="translate(4.329 1.659)">
            <path id="Path_13898" data-name="Path 13898" d="M257.491,157.223c0-.018.039.014.042.032.074.446.235.944.665,1.011.013,0,.017.025,0,.025C257.7,158.319,257.49,157.657,257.491,157.223Z" transform="translate(-257.491 -156.663)" fill="#263238"/>
            <path id="Path_13899" data-name="Path 13899" d="M257.794,156.094c.7-.2,1.042,1.221.393,1.4S257.206,156.259,257.794,156.094Z" transform="translate(-257.491 -156.076)" fill="#263238"/>
          </g>
          <path id="Path_13900" data-name="Path 13900" d="M249.056,155.45a5.655,5.655,0,0,0,.515-.306c.2-.12.365-.194.466-.412a.308.308,0,0,0-.121-.356.764.764,0,0,0-.771.073,1.126,1.126,0,0,0-.539.6A.329.329,0,0,0,249.056,155.45Z" transform="translate(-248.582 -153.503)" fill="#263238"/>
          <path id="Path_13901" data-name="Path 13901" d="M257.587,153.508a5.576,5.576,0,0,1-.6-.034.969.969,0,0,1-.6-.151.309.309,0,0,1-.056-.372.764.764,0,0,1,.718-.29,1.126,1.126,0,0,1,.757.287A.329.329,0,0,1,257.587,153.508Z" transform="translate(-252.545 -152.661)" fill="#263238"/>
          <path id="Path_13902" data-name="Path 13902" d="M252.737,166.756c.127.083.261.2.424.186a1.191,1.191,0,0,0,.454-.207.016.016,0,0,1,.024.019.608.608,0,0,1-.514.352.481.481,0,0,1-.427-.322C252.687,166.76,252.719,166.744,252.737,166.756Z" transform="translate(-250.697 -159.894)" fill="#263238"/>
          <g id="Group_11213" data-name="Group 11213" transform="translate(2.226 0.251)">
            <g id="Group_11212" data-name="Group 11212">
              <path id="Path_13903" data-name="Path 13903" d="M253.178,158.368a1.537,1.537,0,0,0,1.14.47,1.916,1.916,0,0,0,.547-.084.535.535,0,0,0,.1-.033c.032-.01.06-.02.094-.034a.113.113,0,0,0,.069-.117v0a.209.209,0,0,0-.014-.045v0l-.009-.038c-.058-.343-.2-.855-.2-.855.137.037.829.2.784.02a23.117,23.117,0,0,0-1.5-4.447.042.042,0,0,0-.079.028c.312,1.415.871,2.765,1.208,4.181a2.691,2.691,0,0,0-.755-.074c-.046.023.282.984.3,1.14a.062.062,0,0,1,0,.017,2.132,2.132,0,0,1-1.658-.173C253.174,158.3,253.145,158.339,253.178,158.368Z" transform="translate(-253.164 -153.176)" fill="#263238"/>
            </g>
          </g>
          <g id="Group_11214" data-name="Group 11214" transform="translate(2.168 5.43)">
            <path id="Path_13904" data-name="Path 13904" d="M254.569,164.1a1.822,1.822,0,0,1-.605.7.824.824,0,0,1-.483.128c-.372-.022-.446-.345-.436-.636a1.961,1.961,0,0,1,.073-.457A2.361,2.361,0,0,0,254.569,164.1Z" transform="translate(-253.043 -163.835)" fill="#263238"/>
            <path id="Path_13905" data-name="Path 13905" d="M253.963,165.278a.824.824,0,0,1-.483.128c-.372-.022-.446-.346-.436-.636A.848.848,0,0,1,253.963,165.278Z" transform="translate(-253.043 -164.313)" fill="#ff98b9"/>
          </g>
        </g>
        <g id="Group_11216" data-name="Group 11216">
          <path id="Path_13906" data-name="Path 13906" d="M238.073,148.365s-2.331-3.673-2.166-5.828c.074-.974,1.385-1.657,1.385-1.657a2.2,2.2,0,0,1,.648-2.224c1.126-1.106,3.915-.922,3.915-.922s1.749-2.645,4.324-1.665.972,3.909.972,3.909.965,1.31-1.3,2.4c-2.207,1.059-6.783.159-6.783.159a15.861,15.861,0,0,1,.028,4.719A1.445,1.445,0,0,1,238.073,148.365Z" transform="translate(-235.899 -135.76)" fill="#263238"/>
          <path id="Path_13907" data-name="Path 13907" d="M243.481,139.468a4.481,4.481,0,0,0-1.8-.29,4.833,4.833,0,0,0-1.612.287,2.683,2.683,0,0,0-1.847,2.055,1.872,1.872,0,0,0,.386,1.406c.013.017.037-.007.023-.023a1.955,1.955,0,0,1,.277-2.486,4.049,4.049,0,0,1,2.673-1.052,7.885,7.885,0,0,1,1.886.159A.029.029,0,0,0,243.481,139.468Z" transform="translate(-237.083 -137.47)" fill="#263238"/>
          <path id="Path_13908" data-name="Path 13908" d="M254.619,137.166a2.183,2.183,0,0,0-1.542-1.362,3.724,3.724,0,0,0-2.415.135,4.691,4.691,0,0,0-1.946,1.507c-.011.015.014.034.026.02a4.125,4.125,0,0,1,3.916-1.551,2.018,2.018,0,0,1,1.641,2.979,4.209,4.209,0,0,1-1.607,1.68.014.014,0,0,0,.014.024,4.321,4.321,0,0,0,1.606-1.43A2.443,2.443,0,0,0,254.619,137.166Z" transform="translate(-242.486 -135.664)" fill="#263238"/>
          <path id="Path_13909" data-name="Path 13909" d="M248.488,149.233a7.707,7.707,0,0,1-3.2.624,15.751,15.751,0,0,1-3.388-.392c-.649-.142-1.292-.309-1.931-.486-.02-.006-.028.024-.009.032a17.18,17.18,0,0,0,3.48.995,8.63,8.63,0,0,0,3.335-.1,7.339,7.339,0,0,0,1.724-.65C248.515,149.246,248.5,149.227,248.488,149.233Z" transform="translate(-237.981 -142.508)" fill="#263238"/>
        </g>
        <g id="Group_11217" data-name="Group 11217" transform="translate(0.4 10.697)">
          <path id="Path_13910" data-name="Path 13910" d="M239.6,159.19s-1.658-2.006-2.579-1.4.444,3.6,1.61,3.93a1.155,1.155,0,0,0,1.493-.743Z" transform="translate(-236.721 -157.677)" fill="#d3766a"/>
          <path id="Path_13911" data-name="Path 13911" d="M238.179,159.658c-.018,0-.02.025,0,.031a2.921,2.921,0,0,1,1.651,1.7.637.637,0,0,0-.965-.1c-.019.017,0,.047.025.041a.71.71,0,0,1,.8.184,3.427,3.427,0,0,1,.424.6c.043.068.168.02.135-.06l-.008-.018C240.176,161.026,239.275,159.672,238.179,159.658Z" transform="translate(-237.463 -158.695)" fill="#263238"/>
        </g>
      </g>
    </g>
    <g id="Group_11221" data-name="Group 11221" transform="translate(69.485 119.632)">
      <path id="Path_13912" data-name="Path 13912" d="M106.832,210.781a33.48,33.48,0,0,0,32.789-12.839,33.48,33.48,0,1,0-32.789,12.839Z" transform="translate(-79.361 -144.36)" fill="#ebebeb"/>
      <g id="Group_11220" data-name="Group 11220" transform="translate(21.91 19.728)">
        <path id="Path_13913" data-name="Path 13913" d="M109.3,184.591a10.189,10.189,0,1,0,5.778-13.2A10.189,10.189,0,0,0,109.3,184.591Z" transform="translate(-108.601 -170.688)" fill="#fff"/>
        <path id="Path_13914" data-name="Path 13914" d="M113.574,219.743l1.532,3.915a33.48,33.48,0,0,0,32.789-12.839l-1.526-3.9a17.607,17.607,0,0,0-32.795,12.825Z" transform="translate(-109.544 -176.964)" fill="#fff"/>
      </g>
    </g>
    <circle id="Ellipse_155" data-name="Ellipse 155" cx="4" cy="4" r="4" transform="translate(178.345 126.458)" fill="#ccc"/>
    <circle id="Ellipse_156" data-name="Ellipse 156" cx="4" cy="4" r="4" transform="translate(196.345 126.458)" fill="#ccc"/>
    <circle id="Ellipse_157" data-name="Ellipse 157" cx="4" cy="4" r="4" transform="translate(214.345 126.458)" fill="#ccc"/>
  </g>
</svg>
