<svg xmlns="http://www.w3.org/2000/svg" width="308.026" height="302.263" viewBox="0 0 308.026 302.263">
  <g id="Group_11394" data-name="Group 11394" transform="translate(-15.803 -23.886)">
    <path id="Path_13915" data-name="Path 13915" d="M177.941,23.886l3.178,5.811,5.811,3.178-5.811,3.178-3.178,5.811-3.178-5.811-5.811-3.178,5.811-3.178Z" transform="translate(-49.394 0)" fill="#f5f5f5"/>
    <path id="Path_13916" data-name="Path 13916" d="M374.661,256.273l2.384,4.358,4.358,2.384-4.358,2.384-2.384,4.358-2.384-4.358-4.358-2.384,4.358-2.384Z" transform="translate(-113.565 -74.95)" fill="#ebebeb"/>
    <path id="Path_13917" data-name="Path 13917" d="M386.374,224.508l1.076,1.966,1.966,1.076-1.966,1.076-1.076,1.966-1.075-1.966-1.967-1.076,1.967-1.076Z" transform="translate(-118.537 -64.705)" fill="#e0e0e0"/>
    <path id="Path_13918" data-name="Path 13918" d="M147.265,27.112l1.076,1.966,1.966,1.075-1.966,1.075L147.265,33.2,146.19,31.23l-1.966-1.075,1.966-1.075Z" transform="translate(-41.419 -1.041)" fill="#e0e0e0"/>
    <g id="Group_11224" data-name="Group 11224" transform="translate(37.616 195.224)">
      <g id="Group_11223" data-name="Group 11223">
        <path id="Path_13919" data-name="Path 13919" d="M62.317,290.318a7.027,7.027,0,0,0,4.1-6.554,6.6,6.6,0,1,0-13.179.11,7.014,7.014,0,0,0,4.284,6.506c-10.12,1.659-9.518,12.674-9.518,12.674l23.979-.2S72.388,291.706,62.317,290.318Z" transform="translate(-48 -276.792)" fill="#e0e0e0"/>
      </g>
    </g>
    <g id="Group_11225" data-name="Group 11225" transform="translate(267.149 278.349)">
      <path id="Path_13920" data-name="Path 13920" d="M401.6,402.5a3.732,3.732,0,0,0-7.361.219,3.732,3.732,0,0,0-7.363-.154,5.038,5.038,0,0,0,.9,3.635,15,15,0,0,0,2.632,2.782c1.34,1.192,2.578,2.314,3.919,3.506,1.329-1.2,2.46-2.336,3.789-3.54a14.929,14.929,0,0,0,2.608-2.805A5.038,5.038,0,0,0,401.6,402.5Z" transform="translate(-386.806 -399.49)" fill="#ebebeb"/>
    </g>
    <g id="Group_11228" data-name="Group 11228" transform="translate(289.92 123.938)">
      <g id="Group_11226" data-name="Group 11226" transform="translate(7.635)">
        <path id="Path_13921" data-name="Path 13921" d="M431.688,186.189l2.569-.509,4.058-8.926-1.018-5.129s3.923-1.032,4.788,5.777,1.031,5,1.031,5,8.439-1.639,9.285-1.046c.615.431,2.507,8.762,3.5,13.287a5.015,5.015,0,0,1-2.5,5.646,3.777,3.777,0,0,1-.883.3c-2.1.417-13.189.838-13.189.838l-4.438.88Z" transform="translate(-431.688 -171.569)" fill="#e0e0e0"/>
      </g>
      <g id="Group_11227" data-name="Group 11227" transform="translate(0 13.839)">
        <path id="Path_13922" data-name="Path 13922" d="M420.418,192.829l5.066,17.26,4.4-.873L426.469,192Z" transform="translate(-420.418 -191.997)" fill="#e0e0e0"/>
      </g>
    </g>
    <g id="Group_11255" data-name="Group 11255" transform="translate(235.516 75.309)">
      <circle id="Ellipse_158" data-name="Ellipse 158" cx="25.125" cy="25.125" r="25.125" transform="translate(0 9.148) rotate(-10.489)" fill="#c6c6c6"/>
      <g id="Group_11254" data-name="Group 11254" transform="translate(15.427 12.565)">
        <g id="Group_11253" data-name="Group 11253">
          <g id="Group_11252" data-name="Group 11252">
            <g id="Group_11229" data-name="Group 11229">
              <path id="Path_13923" data-name="Path 13923" d="M381.086,119.472c3.693,2.572,5.5,7.557,5.5,7.557s3.928,4.653,3.581,7.607a5.208,5.208,0,0,1-2.651,4.044l.024-1.609s-.657,2.177-3.89,3.58-7.88,1.148-10.409.382a9.049,9.049,0,0,1-3.942-2.4l1.27,2.108a6.8,6.8,0,0,1-5.855-2.678c-2.56-3.141,2.146-9.136,2.429-10.3s-.5-9.13,8.01-9.232A8.134,8.134,0,0,1,381.086,119.472Z" transform="translate(-363.23 -118.337)" fill="#263238"/>
              <path id="Path_13924" data-name="Path 13924" d="M398.97,141.961a5.357,5.357,0,0,0,1.782-2.675,4.874,4.874,0,0,0-.024-3.19,10.857,10.857,0,0,0-2.168-3.216c-.874-1.013-1.824-1.964-2.679-2.991-.047-.057.039-.125.092-.083a29.662,29.662,0,0,1,2.53,2.345,13.994,13.994,0,0,1,2.114,2.49,5.275,5.275,0,0,1,.891,2.828,5.1,5.1,0,0,1-.65,2.357,10.98,10.98,0,0,1-1.831,2.2C398.983,142.067,398.92,142,398.97,141.961Z" transform="translate(-373.522 -122.032)" fill="#263238"/>
              <path id="Path_13925" data-name="Path 13925" d="M363.078,136.29c.481-3.069,2.76-5.364,3.9-8.167a25.27,25.27,0,0,1,1.92-4.531c.024-.037.089,0,.066.043a19.677,19.677,0,0,0-1.478,3.948,21.393,21.393,0,0,1-1.858,3.845c-1.292,2.256-2.845,4.926-1.984,7.611a3.686,3.686,0,0,0,2.767,2.68c.053.007.037.094-.016.082a4.136,4.136,0,0,1-2.674-1.88A5.262,5.262,0,0,1,363.078,136.29Z" transform="translate(-362.922 -120.028)" fill="#263238"/>
              <path id="Path_13926" data-name="Path 13926" d="M363.057,139.318a5.419,5.419,0,0,1,.171-3.268,7.661,7.661,0,0,1,1.977-2.62,8.518,8.518,0,0,0,2.353-2.923c.019-.051.094-.014.075.036-.726,1.982-2.56,3.171-3.635,4.921a5.581,5.581,0,0,0,.619,6.315,8.9,8.9,0,0,0,3.292,2.518c.022.01.006.043-.016.034C365.711,143.389,363.643,141.722,363.057,139.318Z" transform="translate(-362.884 -122.254)" fill="#263238"/>
            </g>
            <g id="Group_11238" data-name="Group 11238" transform="translate(3.14 22.189)">
              <g id="Group_11232" data-name="Group 11232" transform="translate(0 1.435)">
                <g id="Group_11230" data-name="Group 11230">
                  <path id="Path_13927" data-name="Path 13927" d="M378.134,157.226c-.034.35-.081.724-.14,1.131-.58,4.118-1.266,8.924-1.8,12.989a24.779,24.779,0,0,1-7.387-1.754c-.064-.029-.126-.052-.19-.081a.948.948,0,0,1-.138-.056c-.321-.132-.638-.277-.957-.427a81.2,81.2,0,0,1,5.7-11.9c.894-1.48,2.6-3.656,3.772-3.9a.956.956,0,0,1,.182-.022C377.956,153.19,378.437,154.217,378.134,157.226Z" transform="translate(-367.519 -153.208)" fill="#c95f50"/>
                </g>
                <g id="Group_11231" data-name="Group 11231">
                  <path id="Path_13928" data-name="Path 13928" d="M378.134,157.226c-.034.35-.081.724-.14,1.131-.58,4.118-1.266,8.924-1.8,12.989a24.779,24.779,0,0,1-7.387-1.754c-.064-.029-.126-.052-.19-.081a.948.948,0,0,1-.138-.056c-.321-.132-.638-.277-.957-.427a81.2,81.2,0,0,1,5.7-11.9c.894-1.48,2.6-3.656,3.772-3.9a.956.956,0,0,1,.182-.022C377.956,153.19,378.437,154.217,378.134,157.226Z" transform="translate(-367.519 -153.208)" fill="#ffab1d"/>
                </g>
              </g>
              <g id="Group_11233" data-name="Group 11233" transform="translate(0.957)">
                <path id="Path_13929" data-name="Path 13929" d="M394.964,164.818a25.006,25.006,0,0,1-5.936,3.732l-.21.091a1.531,1.531,0,0,1-.161.07l-.226.095a25.277,25.277,0,0,1-11.718,1.856,24.779,24.779,0,0,1-7.387-1.754c-.064-.029-.126-.052-.19-.081.6-1.639,1.6-4.11,2.779-6.653,1.7-3.7,3.736-7.545,5.341-9.237.087-.091.181-.184.276-.266a1.653,1.653,0,0,1,.159-.146,4.631,4.631,0,0,1,.474-.36h.006a6.983,6.983,0,0,1,5.439-.885,8.765,8.765,0,0,1,.911.238h.005a7.6,7.6,0,0,1,2.842,1.566c0,.005.007.01.007.01.4.373.789.772,1.175,1.2A40.715,40.715,0,0,1,394.964,164.818Z" transform="translate(-368.997 -151.09)" fill="#ffab1d"/>
                <path id="Path_13930" data-name="Path 13930" d="M372.469,165.2c-.209.5-.418,1.007-.621,1.516-.4.988-.8,1.974-1.189,2.964-.49,1.247-.966,2.5-1.4,3.77-.064-.029-.126-.052-.19-.081a.948.948,0,0,1-.138-.056.242.242,0,0,1,.019-.056q.873-2.255,1.841-4.468c.129-.53.264-1.055.423-1.579a.026.026,0,0,1,.049.014c-.109.416-.225.827-.334,1.242.482-1.1.978-2.192,1.5-3.276C372.439,165.167,372.476,165.178,372.469,165.2Z" transform="translate(-368.931 -155.634)" fill="#263238"/>
              </g>
              <g id="Group_11237" data-name="Group 11237" transform="translate(15.402 0.832)">
                <g id="Group_11234" data-name="Group 11234" transform="translate(0.231 0.354)">
                  <path id="Path_13931" data-name="Path 13931" d="M403.689,163.7c-.571.588-1.176,1.154-1.8,1.683a25.006,25.006,0,0,1-5.936,3.732c-1.449-3.778-3.24-8.242-4.332-11.027-2.646-6.759.274-5.992,3.853-3.236.53.413,1.072.865,1.621,1.345A42.837,42.837,0,0,1,403.689,163.7Z" transform="translate(-390.595 -152.84)" fill="#c95f50"/>
                </g>
                <g id="Group_11236" data-name="Group 11236">
                  <path id="Path_13932" data-name="Path 13932" d="M403.618,163.49a.269.269,0,0,0-.039.042c-.571.588-1.176,1.154-1.8,1.683a25.006,25.006,0,0,1-5.936,3.732l-.21.091a1.528,1.528,0,0,1-.161.07c-.942-2.354-2.015-5.074-2.967-7.577-.6-1.587-1.14-3.085-1.567-4.354-1.685-5.019-.1-5.956,3.244-3.7,0,.005.007.01.007.01a25.2,25.2,0,0,1,2.782,2.246A52.388,52.388,0,0,1,403.618,163.49Z" transform="translate(-390.254 -152.318)" fill="#ffab1d"/>
                  <g id="Group_11235" data-name="Group 11235" transform="translate(2.077 9.212)">
                    <path id="Path_13933" data-name="Path 13933" d="M396.618,173.423a1.531,1.531,0,0,1-.161.07l-.226.095c-.4-.972-.713-1.688-.774-1.763-.225-.272-.722-.883-.926-1.171-.422-.585-.807-1.188-1.2-1.783-.032-.046.039-.1.071-.054.419.568.885,1.1,1.348,1.628.234.259.467.518.7.772-.014-.073-1.714-4.455-1.982-5.242-.012-.033.007-.06.03-.058a.037.037,0,0,1,.039.022C393.75,166.346,395.223,169.967,396.618,173.423Z" transform="translate(-393.32 -165.916)" fill="#263238"/>
                  </g>
                </g>
              </g>
            </g>
            <g id="Group_11251" data-name="Group 11251" transform="translate(3.135 0.583)">
              <g id="Group_11250" data-name="Group 11250">
                <g id="Group_11239" data-name="Group 11239" transform="translate(7.661 12.975)">
                  <path id="Path_13934" data-name="Path 13934" d="M386.792,147.779c-.06.573-2.261,4.526-4.821,4.728-.835.065-1.391-4.472-1.391-4.472l-.118-.326-1.643-4.557,5.062-4.234.737-.568s.367,1.276.809,2.87c.021.075.042.148.063.228s.054.173.076.258c.069.237.138.48.2.723.049.185.1.364.144.56s.095.386.145.582A31.248,31.248,0,0,1,386.792,147.779Z" transform="translate(-378.819 -138.349)" fill="#c95f50"/>
                  <path id="Path_13935" data-name="Path 13935" d="M385.427,141.219a9.714,9.714,0,0,1-4.965,6.49l-1.643-4.557,5.062-4.234.737-.568S384.985,139.625,385.427,141.219Z" transform="translate(-378.819 -138.349)" fill="#263238"/>
                </g>
                <g id="Group_11249" data-name="Group 11249">
                  <path id="Path_13936" data-name="Path 13936" d="M367.752,132.01c.986,8.445,6.157,8.809,7.978,8.594,1.653-.194,7.257-1.068,7.149-9.571s-4.347-10.714-8.151-10.468S366.766,123.564,367.752,132.01Z" transform="translate(-367.542 -119.633)" fill="#c95f50"/>
                  <g id="Group_11245" data-name="Group 11245" transform="translate(1.802 7.538)">
                    <path id="Path_13937" data-name="Path 13937" d="M370.789,133.157a5.415,5.415,0,0,0,.551-.2.946.946,0,0,0,.522-.314.3.3,0,0,0-.054-.366.751.751,0,0,0-.757-.065,1.1,1.1,0,0,0-.627.486A.323.323,0,0,0,370.789,133.157Z" transform="translate(-370.238 -130.909)" fill="#263238"/>
                    <path id="Path_13938" data-name="Path 13938" d="M378.836,131.149a5.486,5.486,0,0,1-.587-.026.949.949,0,0,1-.593-.14.3.3,0,0,1-.06-.364.748.748,0,0,1,.7-.293,1.1,1.1,0,0,1,.746.272A.323.323,0,0,1,378.836,131.149Z" transform="translate(-372.555 -130.325)" fill="#263238"/>
                    <g id="Group_11241" data-name="Group 11241" transform="translate(5.517 3.068)">
                      <g id="Group_11240" data-name="Group 11240" transform="translate(0 0.203)">
                        <path id="Path_13939" data-name="Path 13939" d="M378.318,136.163c0-.022.049.021.051.045.062.576.231,1.225.776,1.342.017,0,.02.033,0,.033C378.5,137.583,378.285,136.719,378.318,136.163Z" transform="translate(-378.315 -135.477)" fill="#263238"/>
                        <path id="Path_13940" data-name="Path 13940" d="M378.747,135.169c.913-.2,1.245,1.639.4,1.824S377.983,135.336,378.747,135.169Z" transform="translate(-378.316 -135.154)" fill="#263238"/>
                      </g>
                      <path id="Path_13941" data-name="Path 13941" d="M379.466,135.1c.18.075.37.23.567.214.228-.018.363-.241.476-.453.012-.022.03-.009.035.016a.682.682,0,0,1-.369.858c-.336.11-.64-.156-.792-.5C379.354,135.181,379.394,135.074,379.466,135.1Z" transform="translate(-378.656 -134.854)" fill="#263238"/>
                    </g>
                    <g id="Group_11243" data-name="Group 11243" transform="translate(0 3.67)">
                      <g id="Group_11242" data-name="Group 11242" transform="translate(0.764)">
                        <path id="Path_13942" data-name="Path 13942" d="M372.9,136.494c-.008-.021-.04.035-.035.058.116.568.153,1.237-.331,1.516-.015.008-.008.037.01.03C373.159,137.9,373.1,137.013,372.9,136.494Z" transform="translate(-371.695 -135.983)" fill="#263238"/>
                        <path id="Path_13943" data-name="Path 13943" d="M371.893,135.744c-.929.088-.686,1.941.175,1.86S372.672,135.671,371.893,135.744Z" transform="translate(-371.3 -135.742)" fill="#263238"/>
                      </g>
                      <path id="Path_13944" data-name="Path 13944" d="M371.158,135.994c-.133.118-.255.315-.428.35-.2.04-.377-.141-.532-.316-.016-.018-.028,0-.026.024.037.356.2.709.552.732.318.021.506-.313.544-.677C371.276,136.04,371.213,135.946,371.158,135.994Z" transform="translate(-370.172 -135.819)" fill="#263238"/>
                    </g>
                    <path id="Path_13945" data-name="Path 13945" d="M377.668,142.412c-.105.163-.2.376-.4.44a1.527,1.527,0,0,1-.639,0,.02.02,0,0,0-.018.035.778.778,0,0,0,.786.143.615.615,0,0,0,.33-.6C377.729,142.391,377.683,142.388,377.668,142.412Z" transform="translate(-372.247 -134.218)" fill="#263238"/>
                    <g id="Group_11244" data-name="Group 11244" transform="translate(2.054 1.214)">
                      <path id="Path_13946" data-name="Path 13946" d="M374.191,137.72s.026.873.094,1.275c.006.037.106.039.245.024.007,0,.011,0,.016,0a1.938,1.938,0,0,0,1.736-1.028.042.042,0,0,0-.069-.045,2.925,2.925,0,0,1-1.662.795c-.047-.106.005-1.5-.059-1.49a3.547,3.547,0,0,0-.879.361c-.107-1.816.078-3.635-.056-5.441a.055.055,0,0,0-.109-.009,29.47,29.47,0,0,0-.189,5.864C373.264,138.257,374.041,137.815,374.191,137.72Z" transform="translate(-373.203 -132.117)" fill="#263238"/>
                    </g>
                  </g>
                  <g id="Group_11246" data-name="Group 11246">
                    <path id="Path_13947" data-name="Path 13947" d="M382.821,132.436a3.64,3.64,0,0,1-2.347-2.7,9.211,9.211,0,0,1-4.145-2.61c.081.175.659,1.437.973,2.07a9.527,9.527,0,0,1-7.786-4.373,9.964,9.964,0,0,0-1.931,3.893,11.025,11.025,0,0,1,.963-5.993,5.409,5.409,0,0,1,4.682-2.977,7.526,7.526,0,0,1,7.8,1.354C385.061,124.59,382.821,132.436,382.821,132.436Z" transform="translate(-367.512 -119.198)" fill="#263238"/>
                    <path id="Path_13948" data-name="Path 13948" d="M373.862,131.087a9.786,9.786,0,0,0,2.921.675c.009,0,.009-.012,0-.013a8.41,8.41,0,0,1-4.3-1.946,8.272,8.272,0,0,1-1.384-1.535,5.887,5.887,0,0,1-.988-2.045.042.042,0,1,0-.083.019,6.933,6.933,0,0,0,.706,2.157,6.117,6.117,0,0,0,1.439,1.7,6.824,6.824,0,0,0,1.69.992Z" transform="translate(-368.322 -121.453)" fill="#263238"/>
                  </g>
                  <g id="Group_11248" data-name="Group 11248" transform="translate(13.745 9.478)">
                    <g id="Group_11247" data-name="Group 11247">
                      <path id="Path_13949" data-name="Path 13949" d="M387.805,135.794s1.282-2.974,2.6-2.568.721,4.456-.558,5.256a1.438,1.438,0,0,1-2.043-.369Z" transform="translate(-387.8 -133.188)" fill="#c95f50"/>
                      <path id="Path_13950" data-name="Path 13950" d="M390.539,134.951a.02.02,0,0,1,.015.036,3.635,3.635,0,0,0-1.383,2.606.794.794,0,0,1,1.12-.451c.029.013.013.057-.016.057a.885.885,0,0,0-.892.5,4.323,4.323,0,0,0-.3.865c-.027.1-.194.082-.181-.025l0-.024C388.629,137.28,389.235,135.349,390.539,134.951Z" transform="translate(-388.136 -133.756)" fill="#263238"/>
                    </g>
                  </g>
                </g>
              </g>
            </g>
          </g>
        </g>
      </g>
    </g>
    <g id="Group_11281" data-name="Group 11281" transform="translate(244.375 197.422)">
      <circle id="Ellipse_159" data-name="Ellipse 159" cx="25.465" cy="25.465" r="25.465" transform="translate(0 50.028) rotate(-79.205)" fill="#a5a5a5"/>
      <g id="Group_11280" data-name="Group 11280" transform="translate(10.777 13.005)">
        <g id="Group_11279" data-name="Group 11279">
          <g id="Group_11257" data-name="Group 11257" transform="translate(5.264 24.625)">
            <g id="Group_11256" data-name="Group 11256">
              <path id="Path_13951" data-name="Path 13951" d="M399.933,351.434A25.082,25.082,0,0,1,395,352.823c-.061.012-.122.024-.177.031s-.091.018-.133.022a.31.31,0,0,1-.06.006c-.1.017-.19.035-.28.047a1.131,1.131,0,0,1-.133.016,25.543,25.543,0,0,1-16.881-3.478.472.472,0,0,0-.042-.026c-.064-.035-.127-.077-.19-.119-.08-.045-.153-.094-.232-.144a66.485,66.485,0,0,1,7.805-12.17c.114-.131.233-.262.351-.387l.209-.232c.123-.118.241-.243.357-.356.007,0,.008-.01.015-.015.45-.445,2.156-.58,4.013-.262a9.35,9.35,0,0,1,4.158,1.666,4.217,4.217,0,0,1,1.056,1.175c.011.007.014.02.023.034.236.4.465.808.682,1.221A52.313,52.313,0,0,1,399.933,351.434Z" transform="translate(-376.868 -335.581)" fill="#ffab1d"/>
            </g>
          </g>
          <g id="Group_11260" data-name="Group 11260" transform="translate(0 25.431)">
            <path id="Path_13952" data-name="Path 13952" d="M382.013,338.866c-.843,1.36-2.936,4.571-5.215,8.235-.581.945-1.18,1.922-1.774,2.905-.064-.035-.127-.077-.19-.119-.08-.045-.153-.094-.232-.144a25.483,25.483,0,0,1-4.761-3.945,78.427,78.427,0,0,1,6.622-5.785c2.288-1.7,5.565-3.3,5.944-2.44C382.521,337.807,382.413,338.222,382.013,338.866Z" transform="translate(-369.337 -336.953)" fill="#ffc4c0"/>
            <g id="Group_11259" data-name="Group 11259">
              <path id="Path_13953" data-name="Path 13953" d="M383.169,336.774s-.374.571-.967,1.484c-.826,1.27-2.088,3.217-3.371,5.213l-.007,0c-.5.794-1.018,1.6-1.507,2.366l-.007.01c-.884,1.389-1.69,2.679-2.284,3.658-.07.117-.132.228-.2.339a.479.479,0,0,0-.042-.026c-.064-.035-.127-.077-.19-.119-.08-.045-.153-.094-.232-.144a25.483,25.483,0,0,1-4.761-3.945c-.172-.18-.337-.365-.5-.55a72.141,72.141,0,0,1,5.584-4.732c3.7-2.656,5.916-3.472,7.908-3.552.048,0,.1-.005.138-.009C382.875,336.771,383.023,336.77,383.169,336.774Z" transform="translate(-369.098 -336.771)" fill="#ffab1d"/>
              <g id="Group_11258" data-name="Group 11258" transform="translate(5.496 9.082)">
                <path id="Path_13954" data-name="Path 13954" d="M379.927,350.177c-.884,1.389-1.69,2.679-2.284,3.658-.07.117-.132.228-.2.339a.472.472,0,0,0-.042-.026c-.064-.035-.127-.077-.19-.119l1.964-2.786Z" transform="translate(-377.211 -350.177)" fill="#263238"/>
              </g>
            </g>
          </g>
          <g id="Group_11264" data-name="Group 11264" transform="translate(21.176 26.907)">
            <g id="Group_11261" data-name="Group 11261" transform="translate(0.993 1.804)">
              <path id="Path_13955" data-name="Path 13955" d="M410.221,352.368a24.5,24.5,0,0,1-2.24,1.011,25.08,25.08,0,0,1-4.935,1.389c-.061.012-.122.024-.177.031-.119-.8-.234-1.584-.34-2.33-.236-1.667-.432-3.178-.558-4.4-.388-3.843-.077-7.3,1.614-6.268a4.248,4.248,0,0,1,1.019.967A55.949,55.949,0,0,1,410.221,352.368Z" transform="translate(-401.821 -341.612)" fill="#ffc4c0"/>
            </g>
            <g id="Group_11263" data-name="Group 11263">
              <path id="Path_13956" data-name="Path 13956" d="M410.074,351.341c-.11.056-.216.112-.327.168a24.5,24.5,0,0,1-2.24,1.011,25.082,25.082,0,0,1-4.935,1.389c-.061.012-.122.024-.177.031s-.091.018-.133.022a.31.31,0,0,1-.06.006c-.461-2.812-.849-5.351-1.043-6.993a54.7,54.7,0,0,1-.793-6.821c.037-.624.178-1.057.49-1.175a.648.648,0,0,1,.417.009,3.472,3.472,0,0,1,1.135.694,23.292,23.292,0,0,1,4.469,5.635C407.827,346.92,408.931,348.988,410.074,351.341Z" transform="translate(-400.356 -338.949)" fill="#ffab1d"/>
              <g id="Group_11262" data-name="Group 11262" transform="translate(1.372 12.654)">
                <path id="Path_13957" data-name="Path 13957" d="M402.482,360.8c.031.083.062.171.093.253a1.131,1.131,0,0,1-.133.016c-.02-.081-.039-.167-.059-.247C402.365,360.755,402.458,360.731,402.482,360.8Z" transform="translate(-402.381 -358.637)" fill="#263238"/>
                <path id="Path_13958" data-name="Path 13958" d="M403.362,359.933c-.061.012-.122.024-.177.031s-.091.018-.133.022c-.09-.766-.169-1.53-.247-2.294a.051.051,0,0,1,.041-.058.067.067,0,0,1,.1.043Z" transform="translate(-402.517 -357.627)" fill="#263238"/>
              </g>
            </g>
          </g>
          <g id="Group_11278" data-name="Group 11278" transform="translate(11.341)">
            <g id="Group_11275" data-name="Group 11275" transform="translate(0 1.411)">
              <g id="Group_11266" data-name="Group 11266" transform="translate(1.602 17.401)">
                <g id="Group_11265" data-name="Group 11265" transform="translate(0 0.001)">
                  <path id="Path_13959" data-name="Path 13959" d="M389.191,338.874c1.874.978,6.07-1.2,8.049-3.325.134-.146.328-2,.67-4.234.213-1.357.482-2.862.826-4.219L389.7,327a22.309,22.309,0,0,1-.5,5.416,3.173,3.173,0,0,1-.2.542c-.009.024-.024.054-.035.089C388.527,334.063,387.38,337.928,389.191,338.874Z" transform="translate(-388.203 -327.003)" fill="#ffc4c0"/>
                </g>
                <path id="Path_13960" data-name="Path 13960" d="M389.295,333.047a1.423,1.423,0,0,0-.072.188c5.345.5,7.687-1.56,9.3-3.623.157-.849.333-1.707.541-2.515l-9.031-.1a22.141,22.141,0,0,1-.5,5.417,2.864,2.864,0,0,1-.2.541C389.321,332.982,389.311,333.015,389.295,333.047Z" transform="translate(-388.532 -327.001)" fill="#263238"/>
              </g>
              <g id="Group_11274" data-name="Group 11274">
                <g id="Group_11267" data-name="Group 11267" transform="translate(0 0.694)">
                  <path id="Path_13961" data-name="Path 13961" d="M401.88,308.431c.509,3.214-2.363,11.889-4.832,13.568-3.58,2.433-8.821,1.981-10.732-2.181-1.852-4.034,2.091-15.274,4.792-16.735C395.085,300.93,401.127,303.685,401.88,308.431Z" transform="translate(-385.838 -302.34)" fill="#ffc4c0"/>
                </g>
                <g id="Group_11272" data-name="Group 11272" transform="translate(2.731 6.646)">
                  <g id="Group_11268" data-name="Group 11268" transform="translate(4.778 3.638)">
                    <path id="Path_13962" data-name="Path 13962" d="M397.2,317.165c.012-.021.037.043.029.066-.209.579-.352,1.278.115,1.644.014.012,0,.041-.016.031C396.709,318.605,396.907,317.68,397.2,317.165Z" transform="translate(-396.921 -316.71)" fill="#263238"/>
                    <path id="Path_13963" data-name="Path 13963" d="M397.956,316.509c.965.235.424,2.147-.47,1.929S397.148,316.312,397.956,316.509Z" transform="translate(-396.958 -316.495)" fill="#263238"/>
                  </g>
                  <g id="Group_11269" data-name="Group 11269" transform="translate(0 2.227)">
                    <path id="Path_13964" data-name="Path 13964" d="M391.493,315.6c0-.024-.054.015-.06.039-.149.6-.42,1.257-1.012,1.3-.018,0-.025.032,0,.035C391.1,317.073,391.448,316.194,391.493,315.6Z" transform="translate(-390.041 -314.795)" fill="#263238"/>
                    <path id="Path_13965" data-name="Path 13965" d="M390.966,314.454c-.932-.342-1.547,1.547-.684,1.864S391.748,314.74,390.966,314.454Z" transform="translate(-389.869 -314.413)" fill="#263238"/>
                  </g>
                  <path id="Path_13966" data-name="Path 13966" d="M399.269,314.766a7.905,7.905,0,0,1-.667-.47c-.253-.184-.474-.3-.588-.61a.42.42,0,0,1,.2-.471,1.042,1.042,0,0,1,1.04.182,1.529,1.529,0,0,1,.668.878A.448.448,0,0,1,399.269,314.766Z" transform="translate(-392.49 -311.775)" fill="#263238"/>
                  <path id="Path_13967" data-name="Path 13967" d="M390.61,312.222a7.624,7.624,0,0,0,.816.018,1.319,1.319,0,0,0,.835-.14.42.42,0,0,0,.117-.5,1.044,1.044,0,0,0-.945-.471,1.533,1.533,0,0,0-1.059.308A.448.448,0,0,0,390.61,312.222Z" transform="translate(-389.979 -311.126)" fill="#263238"/>
                  <path id="Path_13968" data-name="Path 13968" d="M394.787,325.208a.939.939,0,0,1-.6.207,1.629,1.629,0,0,1-.595-.329.021.021,0,0,0-.034.023.829.829,0,0,0,.661.535.654.654,0,0,0,.614-.392C394.855,325.219,394.813,325.194,394.787,325.208Z" transform="translate(-391.059 -315.627)" fill="#263238"/>
                  <g id="Group_11271" data-name="Group 11271" transform="translate(0.259 0.471)">
                    <g id="Group_11270" data-name="Group 11270">
                      <path id="Path_13969" data-name="Path 13969" d="M393.6,318.982a2.09,2.09,0,0,1-1.6.516,2.626,2.626,0,0,1-.735-.172.74.74,0,0,1-.134-.055c-.041-.018-.079-.034-.124-.057a.153.153,0,0,1-.081-.166v0a.261.261,0,0,1,.023-.059v0l.016-.052c.117-.46.357-1.141.357-1.141-.19.037-1.148.178-1.067-.056a31.513,31.513,0,0,1,2.51-5.882.057.057,0,0,1,.1.046c-.576,1.889-1.48,3.664-2.089,5.553a3.658,3.658,0,0,1,1.034-.02c.06.037-.488,1.308-.524,1.518a.086.086,0,0,0,0,.023,2.9,2.9,0,0,0,2.271-.058C393.612,318.892,393.648,318.945,393.6,318.982Z" transform="translate(-390.251 -311.821)" fill="#263238"/>
                    </g>
                  </g>
                </g>
                <path id="Path_13970" data-name="Path 13970" d="M389.167,307.206a15.372,15.372,0,0,1,1.673-2.617c.572-.52,1.348-.974,1.7-.867s-.11,1.374.924,1.708,2.335-1.277,4.825-.44c3.1,1.041,1.887,5.971,1.79,7.229a13.317,13.317,0,0,0,.969,5.05s3.534-7.745,2.364-11.232c-1.322-3.942-7.61-5.887-10.682-3.987C390.737,303.283,389.167,307.206,389.167,307.206Z" transform="translate(-386.911 -301.315)" fill="#263238"/>
                <g id="Group_11273" data-name="Group 11273" transform="translate(12.221 11.949)">
                  <path id="Path_13971" data-name="Path 13971" d="M404.781,320.78s2.467-2.549,3.655-1.624-.989,4.843-2.61,5.167a1.575,1.575,0,0,1-1.949-1.17Z" transform="translate(-403.877 -318.954)" fill="#ffc4c0"/>
                  <path id="Path_13972" data-name="Path 13972" d="M408.18,320.885a.021.021,0,0,1,0,.042,3.982,3.982,0,0,0-2.426,2.133.869.869,0,0,1,1.322-.028c.025.024-.009.064-.038.053a.968.968,0,0,0-1.106.165,4.67,4.67,0,0,0-.641.771c-.066.087-.23.009-.176-.1l.013-.023C405.321,322.53,406.69,320.787,408.18,320.885Z" transform="translate(-404.273 -319.575)" fill="#263238"/>
                </g>
              </g>
            </g>
            <g id="Group_11276" data-name="Group 11276" transform="translate(3.478)">
              <path id="Path_13973" data-name="Path 13973" d="M412.5,304.916a.895.895,0,1,1-.509-1.159A.894.894,0,0,1,412.5,304.916Z" transform="translate(-397.357 -300.673)" fill="#ffab1d"/>
              <path id="Path_13974" data-name="Path 13974" d="M403.475,311.409c-.235-.482-3.969-5.916-5.153-6.641a43.132,43.132,0,0,0-6.055-2.516c-.837-.222-1.756-2.015-1.035-2.7.835-.788,3.5.068,5.291.4s6.887,1.357,8.944,3.852c1.578,1.913,3.07,5.212,1.9,6.836C406.282,312.146,403.475,311.409,403.475,311.409Z" transform="translate(-390.972 -299.233)" fill="#ffab1d"/>
            </g>
            <g id="Group_11277" data-name="Group 11277" transform="translate(4.247 6.219)" opacity="0.1">
              <path id="Path_13975" data-name="Path 13975" d="M395.53,310.107a6.491,6.491,0,0,1-.867-.176c-.285-.091-.549-.237-.837-.322a4.813,4.813,0,0,0-1.683-.1c-.049,0-.05.035,0,.033a4.16,4.16,0,0,1,1.75.241,5.331,5.331,0,0,0,1.4.418,5.269,5.269,0,0,1,3.035,1.2c.005,0,.014,0,.009-.008A5.294,5.294,0,0,0,395.53,310.107Z" transform="translate(-392.106 -308.757)" fill="#263238"/>
              <path id="Path_13976" data-name="Path 13976" d="M395.953,309.006a6.042,6.042,0,0,1-.821-.167c-.271-.086-.521-.224-.794-.3a4.549,4.549,0,0,0-1.6-.1c-.047,0-.047.033,0,.031a3.959,3.959,0,0,1,1.66.229,5,5,0,0,0,1.327.4,5,5,0,0,1,2.877,1.137c.005,0,.014,0,.008-.007A5.014,5.014,0,0,0,395.953,309.006Z" transform="translate(-392.3 -308.412)" fill="#263238"/>
            </g>
          </g>
        </g>
      </g>
    </g>
    <circle id="Ellipse_160" data-name="Ellipse 160" cx="30.43" cy="30.43" r="30.43" transform="translate(15.803 76.165) rotate(-20.584)" fill="#ffab1d"/>
    <g id="Group_11306" data-name="Group 11306" transform="translate(36.676 70.871)">
      <g id="Group_11305" data-name="Group 11305" transform="translate(0)">
        <g id="Group_11282" data-name="Group 11282" transform="translate(0 0.844)">
          <path id="Path_13977" data-name="Path 13977" d="M49.172,142.24c.152.1.3.2.463.3.228-.021.516-.057.858-.106a.171.171,0,0,0,.083-.01c.776-.1,1.822-.266,3.059-.475q.625-.108,1.312-.224a30.876,30.876,0,0,0,1.21-10.053,88.425,88.425,0,0,1,2.052,9.47c.737-.133,1.5-.269,2.285-.414a25.089,25.089,0,0,0,.2-4.5s.551,2.039,1.047,4.259l.314-.06.307-.059c.075-.009.15-.026.225-.041l.041-.005.744-.133.3-.058c3.579-.671,7.368-1.4,10.768-2.051,1.56-.3,3.044-.6,4.387-.854a21.353,21.353,0,0,1-.849-7.121,1.112,1.112,0,0,0,.011-.134.134.134,0,0,0,0-.049H78c.085-1.064.245-1.579.258-1.3a15.815,15.815,0,0,0,.2,1.789,1.249,1.249,0,0,0,.026.157v.007a.53.53,0,0,0,.019.1,13.526,13.526,0,0,0,2.642,6.1c.77-.15,1.465-.285,2.063-.407.076-.009.15-.026.218-.041s.123-.022.178-.029c.579-.113,1.056-.207,1.416-.279.341-.063.572-.112.682-.133.915-.161-3.164-2.47-3.444-5.365s1.183-6.025-.864-10.014a22,22,0,0,0-1.907-3.085,24.493,24.493,0,0,1-3.2-4.767c-.084-.171-.163-.356-.242-.549l0-.02c-.009-.013-.01-.027-.019-.04a4.462,4.462,0,0,1-.217-.859c-.336-1.939-.437-5.819-1.541-9.344a15.284,15.284,0,0,0-.63-1.722c-.058-.132-.116-.257-.181-.389-.037-.079-.076-.165-.121-.243-.056-.112-.11-.217-.165-.322q-.149-.274-.318-.547a7.94,7.94,0,0,0-5.4-3.9,11.15,11.15,0,0,0-4.166-.08c0,.007-.006.008-.013.009a9.993,9.993,0,0,0-6.243,3.963c-4.887,2.457-3.121,9.772-2.3,13.828a5.727,5.727,0,0,1,.122,1.387c-.064,1.8-1.016,3.249-2.108,4.862a.007.007,0,0,1-.006.008,16.077,16.077,0,0,0-3.307,7.752C48.81,132.22,53.345,135.17,49.172,142.24Z" transform="translate(-47.439 -94.485)" fill="#263238"/>
          <path id="Path_13978" data-name="Path 13978" d="M47.878,149.732a14.488,14.488,0,0,0,1.164-3.87,7.559,7.559,0,0,0-.666-3.828,40.294,40.294,0,0,1-1.355-3.915,10.784,10.784,0,0,1-.31-4.267,9.461,9.461,0,0,1,1.581-3.99,25.154,25.154,0,0,1,2.679-3.191,15.377,15.377,0,0,0,2.442-3.174,7.422,7.422,0,0,0,.842-3.893,6.952,6.952,0,0,1-.39,4.1,13.985,13.985,0,0,1-2.283,3.5,31.7,31.7,0,0,0-2.451,3.2,9.006,9.006,0,0,0-1.347,3.6,10.588,10.588,0,0,0,.263,3.864c.3,1.293.762,2.563,1.168,3.887a13.823,13.823,0,0,1,.484,2.055,6.075,6.075,0,0,1-.109,2.151A11.733,11.733,0,0,1,47.878,149.732Z" transform="translate(-46.614 -102.586)" fill="#263238"/>
          <path id="Path_13979" data-name="Path 13979" d="M84.112,100.589a20.752,20.752,0,0,1,1.934,4.678c.488,1.619.9,3.258,1.284,4.893l.6,2.439a12.533,12.533,0,0,0,.773,2.3,13.414,13.414,0,0,0,2.939,3.836,19.147,19.147,0,0,1,1.7,1.952,11.735,11.735,0,0,1,1.32,2.282,17.482,17.482,0,0,1,.79,2.483,10.716,10.716,0,0,1,.3,2.6c0,.875-.107,1.72-.173,2.542a12.826,12.826,0,0,0,.024,2.457,5.167,5.167,0,0,0,2.717,3.869,5.241,5.241,0,0,1-3.232-3.784,12.6,12.6,0,0,1-.217-2.572c0-.857.077-1.689.033-2.5a13.4,13.4,0,0,0-1.185-4.683,11.654,11.654,0,0,0-1.229-2.057,18.234,18.234,0,0,0-1.631-1.831,25.5,25.5,0,0,1-1.722-1.913,10.5,10.5,0,0,1-1.375-2.259,13.463,13.463,0,0,1-.761-2.5c-.189-.829-.345-1.657-.5-2.484-.317-1.652-.609-3.3-.969-4.937A24.411,24.411,0,0,0,84.112,100.589Z" transform="translate(-58.708 -96.453)" fill="#263238"/>
        </g>
        <g id="Group_11304" data-name="Group 11304" transform="translate(2.888)">
          <g id="Group_11291" data-name="Group 11291" transform="translate(0 28.222)">
            <g id="Group_11285" data-name="Group 11285" transform="translate(17.992 0.508)">
              <g id="Group_11283" data-name="Group 11283">
                <path id="Path_13980" data-name="Path 13980" d="M78.5,140.7c.167.391.358.814.574,1.261l.141.3c1.372,2.872,2.891,6.033,4.343,9.1,1.112,2.346,2.188,4.634,3.132,6.687a30.384,30.384,0,0,0,8.1-5.036c.068-.064.144-.129.213-.194a.936.936,0,0,0,.132-.121c.339-.3.678-.606,1-.925q-.991-1.249-2-2.474a95.143,95.143,0,0,0-9.97-10.51,19.753,19.753,0,0,0-3.174-2.267l-.2-.115a4.78,4.78,0,0,0-2.429-.747,1.105,1.105,0,0,0-.218.041C77.23,135.969,77.049,137.331,78.5,140.7Z" transform="translate(-77.434 -135.646)" fill="#f7a9a0"/>
              </g>
              <g id="Group_11284" data-name="Group 11284">
                <path id="Path_13981" data-name="Path 13981" d="M78.5,140.7c.167.391.358.814.574,1.261l.141.3c1.372,2.872,2.891,6.033,4.343,9.1,1.112,2.346,2.188,4.634,3.132,6.687a30.384,30.384,0,0,0,8.1-5.036c.068-.064.144-.129.213-.194a.936.936,0,0,0,.132-.121c.339-.3.678-.606,1-.925q-.991-1.249-2-2.474a95.143,95.143,0,0,0-9.97-10.51,19.753,19.753,0,0,0-3.174-2.267l-.2-.115a4.78,4.78,0,0,0-2.429-.747,1.105,1.105,0,0,0-.218.041C77.23,135.969,77.049,137.331,78.5,140.7Z" transform="translate(-77.434 -135.646)" fill="#455a64"/>
              </g>
            </g>
            <g id="Group_11286" data-name="Group 11286" transform="translate(3.003)">
              <path id="Path_13982" data-name="Path 13982" d="M55.309,157.545a30.3,30.3,0,0,0,8.313,2.373c.07,0,.142.017.22.028a2.376,2.376,0,0,0,.247.025c.079.012.157.023.234.027a30.417,30.417,0,0,0,23.326-7.231c.068-.064.144-.129.213-.194-.461-.689-1.334-1.831-2.46-3.212-1.173-1.432-2.616-3.124-4.166-4.83-.25-.276-.5-.552-.757-.827-.176-.188-.346-.376-.522-.564a67.958,67.958,0,0,0-5.46-5.312,18.418,18.418,0,0,0-2.835-2.057c-.134-.074-.276-.147-.416-.207a2.281,2.281,0,0,0-.236-.11,7.3,7.3,0,0,0-4.339-.4,9.993,9.993,0,0,0-2.979,1.127,11.415,11.415,0,0,0-1.742,1.2c-.221.188-.415.372-.594.554a7.506,7.506,0,0,0-.887,1.024c-.084.11-.159.211-.22.3s-.1.145-.135.2-.064.1-.082.129-.017.03-.023.038l-.006.007a.023.023,0,0,1-.005.015,19.459,19.459,0,0,0-.909,1.793,47.642,47.642,0,0,0-3.473,13.54C55.506,155.8,55.4,156.661,55.309,157.545Z" transform="translate(-55.309 -134.896)" fill="#455a64"/>
              <path id="Path_13983" data-name="Path 13983" d="M91.691,146.831c0,.007.007.006.008.013.171.2.335.392.492.6v.007c.268.308.522.612.776.923q1.241,1.49,2.454,2.99c.5.622,1,1.251,1.494,1.881.572.732,1.136,1.464,1.688,2.205.276.378.541.764.778,1.16.068-.064.144-.129.213-.194a.934.934,0,0,0,.132-.121,14.09,14.09,0,0,0-1.011-1.41q-.693-.867-1.4-1.711c-.772-.944-1.563-1.872-2.368-2.8-.341-.565-.7-1.121-1.071-1.675-.017-.026-.068.008-.043.04.277.44.554.873.831,1.314-.819-.932-1.646-1.862-2.5-2.768-.139-.165-.29-.32-.435-.477-.008-.006-.016-.012-.022-.011H91.7C91.687,146.8,91.675,146.819,91.691,146.831Z" transform="translate(-67.041 -138.734)" fill="#263238"/>
            </g>
            <g id="Group_11290" data-name="Group 11290" transform="translate(0 2.321)">
              <g id="Group_11287" data-name="Group 11287" transform="translate(0.076 0.429)">
                <path id="Path_13984" data-name="Path 13984" d="M50.989,157.345a31.977,31.977,0,0,0,2.927,1.509,30.3,30.3,0,0,0,8.313,2.373c.11-1.994.261-4.224.412-6.454.25-3.581.509-7.142.681-9.653.049-.787.075-1.488.068-2.108-.015-5.39-2.07-4.746-4.446-1.9-.408.483-.828,1.037-1.249,1.639-.474.68-.942,1.406-1.406,2.175a52.925,52.925,0,0,0-5.126,11.84C51.1,156.954,51.042,157.15,50.989,157.345Z" transform="translate(-50.989 -138.956)" fill="#f7a9a0"/>
              </g>
              <g id="Group_11289" data-name="Group 11289">
                <path id="Path_13985" data-name="Path 13985" d="M50.877,157.094a.7.7,0,0,0,.076.047,31.977,31.977,0,0,0,2.927,1.509,30.3,30.3,0,0,0,8.313,2.373c.07,0,.142.017.22.028a2.376,2.376,0,0,0,.247.025c.146-1.992.317-4.28.477-6.607.108-1.611.215-3.242.308-4.809,0-.077.009-.154.014-.232l0-.014V149.4c.112-2.03.2-3.944.229-5.559.009-.322.006-.628.005-.921-.1-5.546-2.217-5.823-5.116-2.181a.023.023,0,0,1-.005.015,28.706,28.706,0,0,0-2.4,3.622,64.931,64.931,0,0,0-5.124,12.2Z" transform="translate(-50.877 -138.322)" fill="#455a64"/>
                <g id="Group_11288" data-name="Group 11288" transform="translate(11.535 11.035)">
                  <path id="Path_13986" data-name="Path 13986" d="M67.9,166.3a2.377,2.377,0,0,0,.247.025c.079.012.157.023.234.027.162-2.14.321-4.022.392-4.184.161-.4.5-1.282.643-1.69.107-.32.2-.638.293-.957.153-.514.3-1.035.451-1.548.02-.066-.09-.108-.109-.036-.19.554-.415,1.1-.642,1.642-.109.251-.218.494-.328.738-.169.383-.345.768-.522,1.146,0-.014.039-.758.106-1.75.093-1.616.231-3.9.266-4.8,0-.077.009-.154.014-.232l0-.014v-.014a.046.046,0,0,0-.091,0c-.068.357-.242,2.45-.451,5.112C68.248,161.791,68.071,164.143,67.9,166.3Z" transform="translate(-67.904 -154.611)" fill="#263238"/>
                </g>
              </g>
            </g>
          </g>
          <g id="Group_11303" data-name="Group 11303" transform="translate(4.515)">
            <path id="Path_13987" data-name="Path 13987" d="M76.8,136.822s.1,4.5-3.5,5.639-11.067-2.843-11.067-2.843a10.316,10.316,0,0,1,7.293-4.684C74.327,134.332,76.8,136.822,76.8,136.822Z" transform="translate(-59.056 -106.656)" fill="#f7a9a0"/>
            <g id="Group_11302" data-name="Group 11302">
              <g id="Group_11292" data-name="Group 11292" transform="translate(6.097 18.504)">
                <path id="Path_13988" data-name="Path 13988" d="M67.471,132.273c.279.643,4.273,4.418,7.315,3.717.99-.23-.024-5.691-.024-5.691l.017-.42L75.018,124,67.6,120.942l-1.062-.39s.041,1.614.112,3.622c0,.093.005.186.01.287s0,.221.006.327c.007.3.015.607.03.912.01.232.019.459.039.7s.031.482.044.727A37.9,37.9,0,0,0,67.471,132.273Z" transform="translate(-66.542 -120.552)" fill="#f7a9a0"/>
                <path id="Path_13989" data-name="Path 13989" d="M66.654,124.174a11.81,11.81,0,0,0,8.125,5.705L75.018,124,67.6,120.942l-1.062-.39S66.583,122.166,66.654,124.174Z" transform="translate(-66.542 -120.552)" fill="#263238"/>
              </g>
              <g id="Group_11301" data-name="Group 11301">
                <path id="Path_13990" data-name="Path 13990" d="M79.883,107.141c1.944,10.147-3.914,12.458-6.1,12.875-1.987.379-8.8,1.415-11.783-8.478s1.121-14,5.619-15.11S77.939,96.993,79.883,107.141Z" transform="translate(-58.651 -94.172)" fill="#f7a9a0"/>
                <g id="Group_11298" data-name="Group 11298" transform="translate(10.144 9.744)">
                  <path id="Path_13991" data-name="Path 13991" d="M83.082,108.627a6.76,6.76,0,0,1-.713-.035,1.153,1.153,0,0,1-.72-.174.367.367,0,0,1-.07-.443.911.911,0,0,1,.853-.353,1.339,1.339,0,0,1,.905.335A.392.392,0,0,1,83.082,108.627Z" transform="translate(-75.424 -107.621)" fill="#263238"/>
                  <path id="Path_13992" data-name="Path 13992" d="M73.013,109.176a6.833,6.833,0,0,0,.671-.245,1.153,1.153,0,0,0,.636-.38.367.367,0,0,0-.064-.444.912.912,0,0,0-.92-.084,1.343,1.343,0,0,0-.765.588A.393.393,0,0,0,73.013,109.176Z" transform="translate(-72.516 -107.724)" fill="#263238"/>
                  <g id="Group_11294" data-name="Group 11294" transform="translate(0.025 4.18)">
                    <g id="Group_11293" data-name="Group 11293" transform="translate(1.034)">
                      <path id="Path_13993" data-name="Path 13993" d="M76.022,114.709c-.01-.026-.049.042-.043.07.138.69.18,1.5-.41,1.839-.018.011-.01.045.013.038C76.329,116.421,76.263,115.341,76.022,114.709Z" transform="translate(-74.556 -114.086)" fill="#263238"/>
                      <path id="Path_13994" data-name="Path 13994" d="M74.8,113.794c-1.13.1-.843,2.355.2,2.26C76.037,115.961,75.751,113.709,74.8,113.794Z" transform="translate(-74.078 -113.792)" fill="#263238"/>
                    </g>
                    <path id="Path_13995" data-name="Path 13995" d="M73.884,114.045c-.181.152-.345.4-.579.455-.271.062-.508-.147-.717-.351-.021-.022-.038,0-.035.03.049.432.271.854.742.86.43.005.684-.416.737-.864C74.041,114.094,73.957,113.984,73.884,114.045Z" transform="translate(-72.553 -113.868)" fill="#263238"/>
                  </g>
                  <g id="Group_11296" data-name="Group 11296" transform="translate(6.716 2.69)">
                    <g id="Group_11295" data-name="Group 11295" transform="translate(0 0.243)">
                      <path id="Path_13996" data-name="Path 13996" d="M82.434,113.173c0-.027.059.026.062.054.072.7.274,1.49.937,1.635.02,0,.023.04,0,.04C82.648,114.9,82.391,113.848,82.434,113.173Z" transform="translate(-82.429 -112.343)" fill="#263238"/>
                      <path id="Path_13997" data-name="Path 13997" d="M82.958,111.969c1.11-.238,1.5,2,.477,2.219C82.423,114.4,82.028,112.168,82.958,111.969Z" transform="translate(-82.43 -111.951)" fill="#263238"/>
                    </g>
                    <path id="Path_13998" data-name="Path 13998" d="M83.888,111.918c.2.087.411.272.624.249.247-.028.385-.3.5-.561.012-.027.033-.011.039.018.087.425.024.9-.372,1.05-.361.141-.7-.177-.878-.585C83.769,112.013,83.808,111.883,83.888,111.918Z" transform="translate(-82.868 -111.592)" fill="#263238"/>
                  </g>
                  <path id="Path_13999" data-name="Path 13999" d="M78.664,121.89c.181.15.367.363.623.364a1.855,1.855,0,0,0,.739-.238.024.024,0,0,1,.033.033.947.947,0,0,1-.859.453.748.748,0,0,1-.6-.575C78.585,121.887,78.637,121.868,78.664,121.89Z" transform="translate(-74.477 -112.22)" fill="#263238"/>
                  <g id="Group_11297" data-name="Group 11297" transform="translate(4.104 0.463)">
                    <path id="Path_14000" data-name="Path 14000" d="M80.912,115.053s.288,1.02.357,1.511c.006.046-.11.084-.275.117-.007,0-.012.007-.019,0a2.356,2.356,0,0,1-2.388-.556c-.04-.043.015-.1.064-.078a3.553,3.553,0,0,0,2.216.314c.016-.141-.553-1.732-.476-1.749a4.312,4.312,0,0,1,1.15.1c-.539-2.144-1.419-4.183-1.924-6.326a.068.068,0,0,1,.124-.049,35.757,35.757,0,0,1,2.362,6.725C82.181,115.336,81.12,115.109,80.912,115.053Z" transform="translate(-78.573 -108.305)" fill="#263238"/>
                  </g>
                </g>
                <path id="Path_14001" data-name="Path 14001" d="M61.456,110.481c1.089-.292,3.336-3.912,2.332-9.252a39.89,39.89,0,0,1,.354,5.631c-.215.774,1.255-2.035.5-6.353a17.743,17.743,0,0,0,4.872,1.38c2.144.152,3.379-.121,3.494-.3s-3.061-.5-4.058-1.268c0,0,5.906,1.4,8.429,1.08.292-.037-.578-6.019-4.934-7.74s-9.886,2.237-11.2,4.154c0,0-1.866.667-3.37,3.938S60.284,110.794,61.456,110.481Z" transform="translate(-57.542 -93.238)" fill="#263238"/>
                <g id="Group_11300" data-name="Group 11300" transform="translate(1.054 15.365)">
                  <g id="Group_11299" data-name="Group 11299">
                    <path id="Path_14002" data-name="Path 14002" d="M63.479,118.132s-2.574-2.977-3.947-2.026.793,5.426,2.568,5.886a1.747,1.747,0,0,0,2.233-1.174Z" transform="translate(-59.098 -115.919)" fill="#f7a9a0"/>
                    <path id="Path_14003" data-name="Path 14003" d="M60.693,118.066c-.028,0-.029.039,0,.047a4.416,4.416,0,0,1,2.554,2.514.965.965,0,0,0-1.463-.114c-.029.026.006.072.039.061a1.074,1.074,0,0,1,1.215.252,5.173,5.173,0,0,1,.662.894c.067.1.255.024.2-.1l-.012-.026C63.757,120.066,62.349,118.05,60.693,118.066Z" transform="translate(-59.605 -116.611)" fill="#263238"/>
                  </g>
                </g>
              </g>
            </g>
          </g>
        </g>
      </g>
    </g>
    <g id="Group_11307" data-name="Group 11307" transform="translate(23.729 325.483)">
      <path id="Path_14004" data-name="Path 14004" d="M327.6,469.239c0,.1-67.185.176-150.042.176-82.887,0-150.057-.079-150.057-.176s67.171-.176,150.057-.176C260.418,469.063,327.6,469.142,327.6,469.239Z" transform="translate(-27.503 -469.063)" fill="#263238"/>
    </g>
    <g id="Group_11315" data-name="Group 11315" transform="translate(113.74 51.203)">
      <g id="Group_11314" data-name="Group 11314" transform="translate(0 0)">
        <g id="Group_11310" data-name="Group 11310">
          <g id="Group_11309" data-name="Group 11309">
            <g id="Group_11308" data-name="Group 11308">
              <path id="Path_14005" data-name="Path 14005" d="M274.117,339.154,180.7,339.1a20.349,20.349,0,0,1-20.337-20.353l.046-234.194a20.349,20.349,0,0,1,20.36-20.345l93.416.056a20.349,20.349,0,0,1,20.337,20.353l-.046,234.194A20.347,20.347,0,0,1,274.117,339.154Z" transform="translate(-160.365 -64.207)" fill="#263238"/>
            </g>
          </g>
        </g>
        <g id="Group_11313" data-name="Group 11313" transform="translate(6.19 8.284)">
          <g id="Group_11312" data-name="Group 11312">
            <g id="Group_11311" data-name="Group 11311">
              <path id="Path_14006" data-name="Path 14006" d="M277.035,76.489l-18.112-.01a4.5,4.5,0,0,0-4.4,4.595v3.286a4.5,4.5,0,0,1-4.4,4.595l-35.3-.021a4.5,4.5,0,0,1-4.4-4.6V81.048a4.5,4.5,0,0,0-4.4-4.6l-6.37,0-15.852-.009a14.251,14.251,0,0,0-14.26,14.248l-.045,228.59a14.251,14.251,0,0,0,14.243,14.255l93.229.054a14.251,14.251,0,0,0,14.259-14.248l.045-228.591A14.251,14.251,0,0,0,277.035,76.489Z" transform="translate(-169.502 -76.435)" fill="#fff"/>
            </g>
          </g>
        </g>
      </g>
    </g>
    <g id="Group_11325" data-name="Group 11325" transform="translate(218.305 78.036)">
      <g id="Group_11318" data-name="Group 11318">
        <g id="Group_11317" data-name="Group 11317">
          <g id="Group_11316" data-name="Group 11316">
            <path id="Path_14007" data-name="Path 14007" d="M325.231,103.891c0,.061-2.354.13-5.26.154s-5.261-.006-5.262-.068,2.354-.13,5.261-.154S325.231,103.829,325.231,103.891Z" transform="translate(-314.709 -103.815)" fill="#263238"/>
          </g>
        </g>
      </g>
      <g id="Group_11321" data-name="Group 11321" transform="translate(0.022 2.692)">
        <g id="Group_11320" data-name="Group 11320">
          <g id="Group_11319" data-name="Group 11319">
            <path id="Path_14008" data-name="Path 14008" d="M325.264,107.865c0,.061-2.355.13-5.26.154s-5.261-.007-5.262-.068,2.354-.131,5.26-.154S325.263,107.8,325.264,107.865Z" transform="translate(-314.742 -107.789)" fill="#263238"/>
          </g>
        </g>
      </g>
      <g id="Group_11324" data-name="Group 11324" transform="translate(0.045 5.384)">
        <g id="Group_11323" data-name="Group 11323">
          <g id="Group_11322" data-name="Group 11322">
            <path id="Path_14009" data-name="Path 14009" d="M325.3,111.838c0,.062-2.355.131-5.26.154s-5.262-.006-5.262-.067,2.354-.131,5.26-.154S325.3,111.777,325.3,111.838Z" transform="translate(-314.775 -111.763)" fill="#263238"/>
          </g>
        </g>
      </g>
    </g>
    <g id="Group_11328" data-name="Group 11328" transform="translate(129.624 75.022)">
      <g id="Group_11327" data-name="Group 11327">
        <g id="Group_11326" data-name="Group 11326">
          <path id="Path_14010" data-name="Path 14010" d="M183.952,110.466a2.159,2.159,0,0,1,.276-.018l.767-.025,2.832-.068-.079.08q-.015-.942-.033-2.053c0-.381-.033-.741,0-1.182a1.089,1.089,0,0,1,.951-.873c.456-.009.858-.03,1.352-.007a1.1,1.1,0,0,1,.929,1.093c.011.957.022,1.957.034,2.994l-.131-.129,3.572-.037-.135.138c-.013-1.438-.026-2.926-.04-4.45q0-.57-.009-1.133a1.154,1.154,0,0,0-.5-.844l-1.562-1.539-1.506-1.486-.73-.721c-.251-.242-.448-.492-.738-.551a.962.962,0,0,0-.82.156c-.216.183-.446.442-.665.654l-1.282,1.293c-.806.837-1.646,1.6-2.256,2.326a2.525,2.525,0,0,0-.18,1.333q0,.665,0,1.259-.007,1.157-.013,2.028c-.006.518-.011.946-.014,1.3a4.6,4.6,0,0,1-.018.467,3.4,3.4,0,0,1-.024-.43c-.009-.345-.022-.766-.036-1.276q-.019-.876-.046-2.043-.011-.607-.024-1.284-.005-.342-.011-.7a1.486,1.486,0,0,1,.2-.748c.661-.81,1.449-1.526,2.261-2.388l1.272-1.3c.229-.225.417-.448.69-.683a1.214,1.214,0,0,1,1.035-.2,1.929,1.929,0,0,1,.858.613l.733.718,1.511,1.482,1.564,1.536a2.977,2.977,0,0,1,.4.432,1.17,1.17,0,0,1,.187.6q.005.566.01,1.139c.012,1.524.023,3.012.034,4.451v.137h-.137l-3.572.023h-.131v-.13c-.005-1.037-.01-2.037-.016-2.994a.862.862,0,0,0-.722-.867c-.411-.022-.9-.007-1.3,0a.877.877,0,0,0-.77.694c-.035.359-.008.778-.016,1.142q0,1.11,0,2.053v.08h-.079l-2.879-.02-.749-.013A1.407,1.407,0,0,1,183.952,110.466Z" transform="translate(-183.811 -99.366)" fill="#263238"/>
        </g>
      </g>
    </g>
    <g id="Group_11347" data-name="Group 11347" transform="translate(127.364 256.445)">
      <g id="Group_11333" data-name="Group 11333" transform="translate(39.115 8.122)">
        <g id="Group_11332" data-name="Group 11332">
          <g id="Group_11329" data-name="Group 11329">
            <path id="Path_14011" data-name="Path 14011" d="M263.121,379.322a5.186,5.186,0,0,1-.979.069l-2.669.056c-2.254.032-5.368.051-8.807.051s-6.554-.02-8.807-.051l-2.669-.056a5.186,5.186,0,0,1-.979-.069,5.239,5.239,0,0,1,.979-.068l2.669-.056c2.253-.032,5.368-.052,8.807-.052s6.553.02,8.807.052l2.669.056A5.238,5.238,0,0,1,263.121,379.322Z" transform="translate(-238.211 -379.146)" fill="#455a64"/>
          </g>
          <g id="Group_11330" data-name="Group 11330" transform="translate(0 6.128)">
            <path id="Path_14012" data-name="Path 14012" d="M302.273,388.368c0,.1-14.342.176-32.03.176s-32.032-.079-32.032-.176,14.339-.176,32.032-.176S302.273,388.271,302.273,388.368Z" transform="translate(-238.211 -388.192)" fill="#455a64"/>
          </g>
          <g id="Group_11331" data-name="Group 11331" transform="translate(0 11.893)">
            <path id="Path_14013" data-name="Path 14013" d="M282.254,396.878c0,.1-9.86.176-22.02.176s-22.023-.079-22.023-.176,9.858-.177,22.023-.177S282.254,396.78,282.254,396.878Z" transform="translate(-238.211 -396.701)" fill="#455a64"/>
          </g>
        </g>
      </g>
      <g id="Group_11334" data-name="Group 11334" transform="translate(100.558 25.592)">
        <path id="Path_14014" data-name="Path 14014" d="M332.79,410.755l-1.99-2-1.895,1.89.009-5.715,3.885.006Zm-1.99-2.245.062.062,1.752,1.758.008-5.215-3.534-.005-.008,5.114Z" transform="translate(-328.905 -404.934)" fill="#263238"/>
      </g>
      <g id="Group_11335" data-name="Group 11335" transform="translate(47.864 26.732)">
        <path id="Path_14015" data-name="Path 14015" d="M254.7,410.554l-.7-.313a1.924,1.924,0,1,1,1.026-1.69,1.945,1.945,0,0,1-.486,1.3Zm-1.642-3.8a1.817,1.817,0,0,0,.029,3.635,1.874,1.874,0,0,0,.875-.276l.029-.017.518.232-.118-.509.024-.026a1.815,1.815,0,0,0-1.357-3.039Z" transform="translate(-251.126 -406.616)" fill="#263238"/>
      </g>
      <g id="Group_11336" data-name="Group 11336" transform="translate(53.644 26.999)">
        <path id="Path_14016" data-name="Path 14016" d="M261.972,410.38l-.806-1.965-1.509-1.376,3.662-.029ZM260,407.171l1.286,1.18.686,1.673,1.15-2.879Z" transform="translate(-259.657 -407.01)" fill="#263238"/>
      </g>
      <g id="Group_11337" data-name="Group 11337" transform="translate(55.236 26.998)">
        <rect id="Rectangle_334" data-name="Rectangle 334" width="2.382" height="0.134" transform="translate(0 1.299) rotate(-33.054)" fill="#263238"/>
      </g>
      <g id="Group_11338" data-name="Group 11338" transform="translate(41.195 26.528)">
        <path id="Path_14017" data-name="Path 14017" d="M245.768,407.226a2.508,2.508,0,0,1-3.327-.892,1.17,1.17,0,0,0-1.141.927,1.529,1.529,0,0,0,.278,1.1,4.548,4.548,0,0,0,.8.841c.408.36.785.7,1.193,1.06.4-.367.744-.711,1.146-1.079a4.505,4.505,0,0,0,.789-.854A1.533,1.533,0,0,0,245.768,407.226Z" transform="translate(-241.281 -406.316)" fill="#7d0d35"/>
      </g>
      <g id="Group_11339" data-name="Group 11339">
        <path id="Path_14018" data-name="Path 14018" d="M289,403.627s-.008-.22-.012-.638-.007-1.043-.012-1.854c-.007-1.635-.016-4.039-.028-7.153-.015-6.227-.037-15.285-.064-26.649l.117.117-108.34.06h-.007l.177-.177c0,12.613,0,24.847-.006,36.292l-.171-.171,77.526.079,22.631.047,6.074.022,1.574.011c.355,0,.542.011.542.011s-.172.007-.52.011l-1.554.011-6.036.022-22.592.048-77.644.079h-.171v-.171c0-11.445,0-23.68-.005-36.292v-.176h.183l108.34.06h.117v.116c-.027,11.393-.049,20.475-.064,26.718-.012,3.1-.022,5.5-.028,7.126q-.008,1.2-.012,1.833C289.005,403.423,289,403.627,289,403.627Z" transform="translate(-180.475 -367.158)" fill="#263238"/>
      </g>
      <g id="Group_11346" data-name="Group 11346" transform="translate(4.366 6.081)">
        <g id="Group_11343" data-name="Group 11343">
          <g id="Group_11342" data-name="Group 11342">
            <g id="Group_11341" data-name="Group 11341">
              <rect id="Rectangle_335" data-name="Rectangle 335" width="23.994" height="30.012" transform="matrix(0.006, -1, 1, 0.006, 0.18, 24.153)" fill="#ebebeb"/>
              <g id="Group_11340" data-name="Group 11340">
                <path id="Path_14019" data-name="Path 14019" d="M217.247,376.464a1.167,1.167,0,0,1-.15.008l-.425.007-1.638.009-6.154.007-21.645-.044.159-.157c-.035,7.144-.075,15.329-.118,23.992.037.042-.329-.334-.17-.175h.512l.52,0,1.035.006,2.054.012,4.044.024,7.786.05,14.056.1-.148.146c.072-7.2.133-13.182.175-17.378.028-2.087.05-3.73.066-4.871q.015-.827.024-1.291c.007-.293.019-.453.019-.453s.01.138.014.421q0,.454.009,1.263c0,1.133.006,2.766.011,4.839-.006,4.219-.014,10.228-.024,17.471v.146h-.148l-14.055-.058-7.787-.038-4.044-.022-2.054-.012-1.035-.005-.52,0-.259,0H187.1c.154.159-.22-.215-.181-.18.056-8.662.109-16.848.155-23.991v-.159h.158l21.746.2,6.118.077,1.607.028.408.012A.586.586,0,0,1,217.247,376.464Z" transform="translate(-186.92 -376.134)" fill="#263238"/>
              </g>
            </g>
          </g>
        </g>
        <rect id="Rectangle_336" data-name="Rectangle 336" width="20.973" height="27.904" transform="matrix(0.006, -1, 1, 0.006, 1.223, 22.648)" fill="#e0e0e0"/>
        <path id="Path_14020" data-name="Path 14020" d="M188.725,403.384l9.82-12.981,5.991,8.19,4.119-4.337,7.973,9.286Z" transform="translate(-187.502 -380.736)" fill="#f5f5f5"/>
        <g id="Group_11345" data-name="Group 11345" transform="translate(15.258 5.91)">
          <g id="Group_11344" data-name="Group 11344">
            <path id="Path_14021" data-name="Path 14021" d="M213.835,387.066a2.2,2.2,0,1,1-2.185-2.209A2.2,2.2,0,0,1,213.835,387.066Z" transform="translate(-209.441 -384.857)" fill="#f5f5f5"/>
          </g>
        </g>
      </g>
    </g>
    <g id="Group_11350" data-name="Group 11350" transform="translate(151.111 107.03)">
      <g id="Group_11349" data-name="Group 11349">
        <g id="Group_11348" data-name="Group 11348">
          <path id="Path_14022" data-name="Path 14022" d="M247.07,146.788a1.108,1.108,0,0,1-.32.036l-.919.033-3.38.056c-2.854.033-6.8.052-11.152.052s-8.3-.02-11.153-.052l-3.379-.056-.919-.033a1.109,1.109,0,0,1-.32-.036,1.128,1.128,0,0,1,.32-.035l.919-.033,3.379-.056c2.854-.032,6.8-.051,11.153-.051s8.3.02,11.152.051l3.38.056.919.033A1.128,1.128,0,0,1,247.07,146.788Z" transform="translate(-215.527 -146.612)" fill="#263238"/>
        </g>
      </g>
    </g>
    <g id="Group_11351" data-name="Group 11351" transform="translate(221.218 231.193)">
      <path id="Path_14023" data-name="Path 14023" d="M324.783,338.535l-2.957-2.967-2.817,2.809.014-8.492,5.774.009Zm-2.956-3.336.092.091,2.6,2.613.012-7.749-5.252-.008-.012,7.6Z" transform="translate(-319.009 -329.885)" fill="#263238"/>
    </g>
    <g id="Group_11352" data-name="Group 11352" transform="translate(156.221 231.724)">
      <path id="Path_14024" data-name="Path 14024" d="M227.625,337.3l-1.585-3.868-2.971-2.708,7.207-.058Zm-3.883-6.318,2.531,2.323,1.35,3.295,2.264-5.667Z" transform="translate(-223.069 -330.668)" fill="#263238"/>
    </g>
    <g id="Group_11353" data-name="Group 11353" transform="translate(159.354 231.723)">
      <rect id="Rectangle_337" data-name="Rectangle 337" width="4.688" height="0.263" transform="matrix(0.838, -0.545, 0.545, 0.838, 0, 2.557)" fill="#263238"/>
    </g>
    <circle id="Ellipse_161" data-name="Ellipse 161" cx="4.889" cy="4.889" r="4.889" transform="translate(135.001 102.318)" fill="#ebebeb"/>
    <g id="Group_11357" data-name="Group 11357" transform="translate(133.576 203.995)">
      <g id="Group_11354" data-name="Group 11354" transform="translate(0 7.625)">
        <path id="Path_14025" data-name="Path 14025" d="M281.214,301.171c0,.1-20.5.176-45.783.176s-45.787-.079-45.787-.176,20.5-.177,45.787-.177S281.214,301.073,281.214,301.171Z" transform="translate(-189.643 -300.994)" fill="#455a64"/>
      </g>
      <g id="Group_11355" data-name="Group 11355">
        <path id="Path_14026" data-name="Path 14026" d="M281.214,289.915c0,.1-20.5.177-45.783.177s-45.787-.079-45.787-.177,20.5-.176,45.787-.176S281.214,289.818,281.214,289.915Z" transform="translate(-189.643 -289.739)" fill="#455a64"/>
      </g>
      <g id="Group_11356" data-name="Group 11356" transform="translate(0 15.352)">
        <path id="Path_14027" data-name="Path 14027" d="M239.486,312.576c0,.1-11.159.177-24.92.177s-24.922-.079-24.922-.177,11.156-.176,24.922-.176S239.486,312.479,239.486,312.576Z" transform="translate(-189.643 -312.4)" fill="#455a64"/>
      </g>
    </g>
    <g id="Group_11361" data-name="Group 11361" transform="translate(173.377 300.62)">
      <g id="Group_11358" data-name="Group 11358">
        <path id="Path_14028" data-name="Path 14028" d="M252.283,434.346a1.946,1.946,0,1,1-1.937-1.983A1.959,1.959,0,0,1,252.283,434.346Z" transform="translate(-248.392 -432.363)" fill="#263238"/>
      </g>
      <g id="Group_11359" data-name="Group 11359" transform="translate(6.028 0.028)">
        <path id="Path_14029" data-name="Path 14029" d="M261.181,434.387a1.946,1.946,0,1,1-1.937-1.983A1.959,1.959,0,0,1,261.181,434.387Z" transform="translate(-257.29 -432.404)" fill="#263238"/>
      </g>
      <g id="Group_11360" data-name="Group 11360" transform="translate(12.056 0.056)">
        <path id="Path_14030" data-name="Path 14030" d="M270.079,434.428a1.946,1.946,0,1,1-1.937-1.983A1.958,1.958,0,0,1,270.079,434.428Z" transform="translate(-266.188 -432.445)" fill="#263238"/>
      </g>
    </g>
    <g id="Group_11364" data-name="Group 11364" transform="translate(128.19 116.882)">
      <rect id="Rectangle_338" data-name="Rectangle 338" width="108.347" height="66.26" fill="#e0e0e0"/>
      <path id="Path_14031" data-name="Path 14031" d="M196.457,239.192,227.5,197.637l19.248,25.987,13.045-13.9,25.586,29.441Z" transform="translate(-186.455 -172.921)" fill="#f5f5f5"/>
      <g id="Group_11363" data-name="Group 11363" transform="translate(54.451 12.619)">
        <g id="Group_11362" data-name="Group 11362">
          <path id="Path_14032" data-name="Path 14032" d="M276.071,186.781a7,7,0,1,1-7-7A7,7,0,0,1,276.071,186.781Z" transform="translate(-262.067 -179.781)" fill="#f5f5f5"/>
        </g>
      </g>
    </g>
    <g id="Group_11365" data-name="Group 11365" transform="translate(127.722 94.66)">
      <path id="Path_14033" data-name="Path 14033" d="M289.526,278.414c0-1.417-.066-61.274-.16-149.885l.16.161-108.334.016h-.012l.176-.177c-.012,56.054-.024,107.93-.033,149.885l-.143-.144,108.346.144-108.346.144h-.144v-.144c-.009-41.955-.021-93.831-.033-149.885v-.176h.189l108.334.016h.16v.16c-.033,44.349-.06,81.837-.079,108.243-.018,13.184-.033,23.6-.043,30.725-.008,3.553-.015,6.284-.019,8.132q-.006,1.376-.009,2.086C289.532,278.182,289.526,278.414,289.526,278.414Z" transform="translate(-181.003 -128.353)" fill="#263238"/>
    </g>
    <g id="Group_11392" data-name="Group 11392" transform="translate(69.462 91.072)">
      <g id="Group_11386" data-name="Group 11386" transform="translate(0)">
        <g id="Group_11384" data-name="Group 11384">
          <g id="Group_11366" data-name="Group 11366" transform="translate(71.979 135.463)">
            <path id="Path_14034" data-name="Path 14034" d="M245.146,359.788l2.4-8.053c.418-1.747.974-3.807,1.721-6.158a16.615,16.615,0,0,1,3.967-5.932c2.447-2.488,3.61-2.505,5.255-3.826.15-.1.316-.233.458-.31a2.593,2.593,0,0,0,.8-.692c1.417-1.533.056-3.906-2.822-3.68-2.167.17-5.7.79-11.447,6.718-.072.09-.147.165-.217.257-3.016,3.92-5.848-7.271-6.359-11.436a4.365,4.365,0,0,0-5.9-3.386l-14,6.547a6.534,6.534,0,0,0-4.086.138,4.16,4.16,0,0,0-2.667,4.938l5.677,22.662-16.675,55.481h35.939Z" transform="translate(-201.252 -323.009)" fill="#ffbe9d"/>
          </g>
          <g id="Group_11382" data-name="Group 11382">
            <g id="Group_11374" data-name="Group 11374">
              <g id="Group_11368" data-name="Group 11368" transform="translate(80.408 113.454)">
                <g id="Group_11367" data-name="Group 11367">
                  <path id="Path_14035" data-name="Path 14035" d="M276.768,298.355l-11.11,21.769-5.555-1.543-27.922,22.714a5.656,5.656,0,0,1-7.857-.7l-10.631-12.354s21.436-9.235,25.4-16.878-.617-9.378-.617-9.378l10.089-11.465Z" transform="translate(-213.694 -290.522)" fill="#7d0d35"/>
                </g>
              </g>
              <g id="Group_11369" data-name="Group 11369">
                <path id="Path_14036" data-name="Path 14036" d="M224.08,199.873s-16.262-3.6-39.147-25.6S151.3,123.041,148.5,123.183s-15.032-5.536-38.294,45.066-14.1,62.352-9.47,62.257,36.06-8.854,55.692-6.622,44.866,12.464,44.866,12.464Z" transform="translate(-95.007 -123.056)" fill="#7d0d35"/>
              </g>
              <g id="Group_11370" data-name="Group 11370" transform="translate(102.786 67.281)">
                <path id="Path_14037" data-name="Path 14037" d="M307.559,259.485l-5.548,10.548-2.486,4.725a13.767,13.767,0,0,1-17.945,6.1L246.725,268.71l20.3-46.342,34.824,18.558A13.768,13.768,0,0,1,307.559,259.485Z" transform="translate(-246.725 -222.368)" fill="#7d0d35"/>
              </g>
              <g id="Group_11371" data-name="Group 11371" transform="translate(102.786 67.281)" opacity="0.4">
                <path id="Path_14038" data-name="Path 14038" d="M307.559,259.485l-5.548,10.548-2.486,4.725a13.767,13.767,0,0,1-17.945,6.1L246.725,268.71l20.3-46.342,34.824,18.558A13.768,13.768,0,0,1,307.559,259.485Z" transform="translate(-246.725 -222.368)"/>
              </g>
              <g id="Group_11372" data-name="Group 11372" transform="translate(3.046 1.16)">
                <path id="Path_14039" data-name="Path 14039" d="M113.531,169.723C101.151,197.134,96,221.56,102.02,224.281s20.941-17.3,33.322-44.707,17.533-51.837,11.51-54.557S125.912,142.312,113.531,169.723Z" transform="translate(-99.503 -124.769)" fill="#7d0d35"/>
              </g>
              <g id="Group_11373" data-name="Group 11373" transform="translate(3.046 1.16)" opacity="0.5">
                <path id="Path_14040" data-name="Path 14040" d="M113.531,169.723C101.151,197.134,96,221.56,102.02,224.281s20.941-17.3,33.322-44.707,17.533-51.837,11.51-54.557S125.912,142.312,113.531,169.723Z" transform="translate(-99.503 -124.769)"/>
              </g>
            </g>
            <g id="Group_11375" data-name="Group 11375" transform="translate(157.164 105.557)">
              <path id="Path_14041" data-name="Path 14041" d="M336.438,292.948l-9.447-2.967,5.846-11.116,7.085,4.4Z" transform="translate(-326.991 -278.865)" fill="#7d0d35"/>
            </g>
            <g id="Group_11376" data-name="Group 11376" transform="translate(157.164 105.557)" opacity="0.6">
              <path id="Path_14042" data-name="Path 14042" d="M332.837,278.865l-5.846,11.116,1.941.61,4.753-11.2Z" transform="translate(-326.991 -278.865)"/>
            </g>
            <g id="Group_11377" data-name="Group 11377" transform="translate(135.936 98.795)">
              <path id="Path_14043" data-name="Path 14043" d="M316.222,278.21c-.139.306-4.854-1.527-10.53-4.093s-10.171-4.895-10.032-5.2,4.851,1.528,10.531,4.094S316.358,277.905,316.222,278.21Z" transform="translate(-295.656 -268.884)" fill="#7d0d35"/>
            </g>
            <g id="Group_11378" data-name="Group 11378" transform="translate(140.878 92.345)">
              <path id="Path_14044" data-name="Path 14044" d="M321.48,268.519c-.149.3-4.415-1.5-9.53-4.016s-9.143-4.805-8.993-5.107,4.412,1.5,9.529,4.018S321.627,268.219,321.48,268.519Z" transform="translate(-302.952 -259.364)" fill="#7d0d35"/>
            </g>
            <g id="Group_11379" data-name="Group 11379" transform="translate(134.088 106.698)">
              <path id="Path_14045" data-name="Path 14045" d="M311.677,288.916c-.05.161-1.172-.1-2.963-.651-.894-.276-1.954-.626-3.127-1.032-1.165-.422-2.374-1.034-3.67-1.621-5.168-2.4-9.115-4.748-8.985-5.027.152-.329,4.371,1.548,9.491,3.924,1.285.582,2.476,1.223,3.6,1.692s2.139.881,2.983,1.256C310.7,288.209,311.726,288.756,311.677,288.916Z" transform="translate(-292.929 -280.549)" fill="#7d0d35"/>
            </g>
            <g id="Group_11380" data-name="Group 11380" transform="translate(18.218 38.011)">
              <path id="Path_14046" data-name="Path 14046" d="M145.994,181.17s-14.134-8.765-21.868,10.332,7.138,22.236,7.138,22.236A127.231,127.231,0,0,0,145.994,181.17Z" transform="translate(-121.897 -179.163)" fill="#7d0d35"/>
            </g>
            <g id="Group_11381" data-name="Group 11381" transform="translate(16.849 17.26)" opacity="0.5">
              <path id="Path_14047" data-name="Path 14047" d="M160.374,148.533a21.284,21.284,0,0,1-.553,3.648c-.447,2.334-1.079,5.721-1.986,9.88-.6,2.049-1.251,4.285-1.951,6.683l-1.1,3.722-.577,1.946c-.211.652-.486,1.293-.732,1.952l-3.193,8.239q-.417,1.072-.841,2.161c-.275.73-.664,1.416-.994,2.134q-1.037,2.137-2.1,4.332l-2.108,4.33c-.36.7-.661,1.434-1.064,2.1l-1.179,2-4.5,7.605c-.367.6-.7,1.213-1.082,1.782s-.788,1.114-1.175,1.66l-2.251,3.17-4.052,5.67c-2.7,3.275-4.969,5.858-6.526,7.651a21.469,21.469,0,0,1-2.528,2.693,21.541,21.541,0,0,1,2.163-2.994L128.271,221l3.9-5.715q1.055-1.538,2.18-3.175l1.142-1.658c.372-.57.7-1.183,1.053-1.784l4.413-7.59,1.161-1.989c.4-.664.693-1.39,1.05-2.091q1.028-2.123,2.086-4.3l2.091-4.3c.33-.712.719-1.394.994-2.116l.845-2.142c1.122-2.828,2.205-5.557,3.237-8.158.251-.652.533-1.284.751-1.929q.3-.977.6-1.925.591-1.9,1.149-3.681c.747-2.37,1.444-4.58,2.083-6.6l2.352-9.754A21.822,21.822,0,0,1,160.374,148.533Z" transform="translate(-119.877 -148.533)"/>
            </g>
          </g>
          <g id="Group_11383" data-name="Group 11383" transform="translate(83.795 130.297)" opacity="0.4">
            <path id="Path_14048" data-name="Path 14048" d="M218.693,334.744a27.522,27.522,0,0,0,4.513,6.588,9.293,9.293,0,0,0,7.187,2.928c2.659-.268,5.178-2.476,5.206-5.148a3.329,3.329,0,0,0,4.289-.757,7.5,7.5,0,0,0,1.527-4.449,4.2,4.2,0,0,0,5.3-1.435,6.853,6.853,0,0,0,.668-5.8,20.3,20.3,0,0,0-2.782-5.329,7.369,7.369,0,0,0,3.942-.4c1.194-.6,2-2.184,1.3-3.328a3.316,3.316,0,0,0-1.943-1.239c-2.091-.654-3.559-1.179-5.736-.926-.506.005.871,5.742-12.793,13.59A114.809,114.809,0,0,1,218.693,334.744Z" transform="translate(-218.693 -315.383)"/>
          </g>
        </g>
        <g id="Group_11385" data-name="Group 11385" transform="translate(100.685 157.624)">
          <path id="Path_14049" data-name="Path 14049" d="M257.5,356.043c-.009.063-.919-.112-2.393-.072a13.528,13.528,0,0,0-10.043,4.815c-.954,1.125-1.387,1.943-1.442,1.91a2.092,2.092,0,0,1,.268-.593,10.82,10.82,0,0,1,.982-1.476,12.8,12.8,0,0,1,10.234-4.906,10.909,10.909,0,0,1,1.766.158A2.085,2.085,0,0,1,257.5,356.043Z" transform="translate(-243.624 -355.72)" fill="#eb996e"/>
        </g>
        <path id="Path_14050" data-name="Path 14050" d="M220.008,332.865c2.2,2.114,3.706,4.449,6.015,6.578,1.049.967,2.679,2.8,4.085,3.045s2.307.057,2.864-1.257c.451-1.064-.359-2.519-.918-3.4-1.471-2.307-2.877-4.111-3.979-5.9-.516-.84.152-1.013.4-.625,1.06,1.1,2.639,2.05,3.589,3.246,1.3,1.637,1.535,3.805,4.935,3.12a3.064,3.064,0,0,0,1.262-.524,3.4,3.4,0,0,0,.795-4.047,11.078,11.078,0,0,0-1.893-2.864c1.447,1.634,3.027,3.355,5.328,3.54a3.17,3.17,0,0,0,3.222-1.744c.681-1.546-.3-3.041-1.275-4.249a44.258,44.258,0,0,0-5.778-5.9,4.4,4.4,0,0,0-2.809-1.041c-1.19-.008-2.679.216-3.415,1.251a4.62,4.62,0,0,0-.924,3.541s-2.985-1.513-5.383.069a7.607,7.607,0,0,0-2.992,4.3Z" transform="translate(-135.322 -186.845)" fill="#ffbe9d"/>
        <path id="Path_14051" data-name="Path 14051" d="M243.049,316.8a3.575,3.575,0,0,1-.422-4.038c.507-.995,1.148-1.961,1.8-2.181,2.839-.958,15.245,1.188,15.131,3.942-.116,2.827-1.019,4.071-7.752,3.1-1.184-.171-3.043-.4-3.043-.4l-1.625,2.439Z" transform="translate(-142.48 -183.462)" fill="#ffbe9d"/>
      </g>
      <g id="Group_11387" data-name="Group 11387" transform="translate(95.954 138.661)">
        <path id="Path_14052" data-name="Path 14052" d="M243.477,333.933a16.286,16.286,0,0,0-6.836-6.2,3.964,3.964,0,0,1,1.313.463,11.782,11.782,0,0,1,4.934,4.473A3.963,3.963,0,0,1,243.477,333.933Z" transform="translate(-236.641 -327.729)" fill="#eb996e"/>
      </g>
      <g id="Group_11388" data-name="Group 11388" transform="translate(100.788 133.985)">
        <path id="Path_14053" data-name="Path 14053" d="M247.867,323.247c-.062.058-.881-.61-2-1.294a14.053,14.053,0,0,0-1.456-.8c-.383-.18-.638-.23-.637-.283s.292-.081.723.049a6.671,6.671,0,0,1,1.555.736A4.8,4.8,0,0,1,247.867,323.247Z" transform="translate(-243.776 -320.826)" fill="#eb996e"/>
      </g>
      <g id="Group_11389" data-name="Group 11389" transform="translate(102.589 132.211)">
        <path id="Path_14054" data-name="Path 14054" d="M250.806,319.843a5.36,5.36,0,0,1-2.389-.269,4.368,4.368,0,0,1-1.529-.8c-.341-.29-.482-.532-.449-.561a10,10,0,0,0,2.083,1.025A17.815,17.815,0,0,1,250.806,319.843Z" transform="translate(-246.434 -318.208)" fill="#eb996e"/>
      </g>
      <g id="Group_11390" data-name="Group 11390" transform="translate(85.047 142.094)">
        <path id="Path_14055" data-name="Path 14055" d="M230.4,338.976a8.642,8.642,0,0,1-1.131-1.47,13.339,13.339,0,0,0-2.9-3.291,5.837,5.837,0,0,0-4.1-1.087,7.46,7.46,0,0,0-1.728.549c-.012-.016.118-.142.4-.313a3.86,3.86,0,0,1,1.292-.482,5.763,5.763,0,0,1,4.347,1.046,11.786,11.786,0,0,1,2.9,3.44A11.018,11.018,0,0,1,230.4,338.976Z" transform="translate(-220.542 -332.796)" fill="#eb996e"/>
      </g>
      <g id="Group_11391" data-name="Group 11391" transform="translate(94.215 175.684)">
        <path id="Path_14056" data-name="Path 14056" d="M244.254,382.405a37.28,37.28,0,0,1-5.071.729,37.308,37.308,0,0,1-5.109.378,37.261,37.261,0,0,1,5.071-.729A37.3,37.3,0,0,1,244.254,382.405Z" transform="translate(-234.074 -382.378)" fill="#eb996e"/>
      </g>
    </g>
    <g id="Group_11393" data-name="Group 11393" transform="translate(38.097 41.472)">
      <path id="Path_14057" data-name="Path 14057" d="M405.6,49.844l.765,1.4,1.4.765-1.4.765-.765,1.4-.765-1.4-1.4-.765,1.4-.765Z" transform="translate(-163.118 -49.844)" fill="#7d0d35"/>
      <path id="Path_14058" data-name="Path 14058" d="M429.207,101.014l.765,1.4,1.4.765-1.4.765-.765,1.4-.765-1.4-1.4-.765,1.4-.765Z" transform="translate(-170.732 -66.347)" fill="#7d0d35"/>
      <path id="Path_14059" data-name="Path 14059" d="M50.874,237.533l.765,1.4,1.4.765-1.4.765-.765,1.4-.765-1.4-1.4-.765,1.4-.765Z" transform="translate(-48.711 -110.378)" fill="#7d0d35"/>
      <path id="Path_14060" data-name="Path 14060" d="M373.284,62.562l1.766,3.229,3.229,1.766-3.229,1.766-1.766,3.229-1.766-3.229-3.229-1.766,3.229-1.766Z" transform="translate(-151.782 -53.946)" fill="#7d0d35"/>
      <path id="Path_14061" data-name="Path 14061" d="M70.688,205.1l1.762,3.222,3.222,1.762-3.222,1.762-1.762,3.222-1.762-3.222L65.7,210.081l3.222-1.762Z" transform="translate(-54.191 -99.916)" fill="#7d0d35"/>
      <path id="Path_14062" data-name="Path 14062" d="M450.9,298.982l1.762,3.222,3.222,1.762-3.222,1.762L450.9,308.95l-1.762-3.222-3.222-1.762,3.222-1.762Z" transform="translate(-176.818 -130.196)" fill="#7d0d35"/>
    </g>
  </g>
</svg>
