<svg xmlns="http://www.w3.org/2000/svg" width="226.835" height="279.372" viewBox="0 0 226.835 279.372">
  <g id="Group_11823" data-name="Group 11823" transform="translate(-22.738 -29.013)">
    <g id="Group_11411" data-name="Group 11411" transform="translate(43.112 35.687)">
      <g id="Group_11397" data-name="Group 11397" transform="translate(1.858 0)">
        <g id="Group_11396" data-name="Group 11396">
          <g id="Group_11395" data-name="Group 11395">
            <rect id="Rectangle_339" data-name="Rectangle 339" width="55.864" height="92.47" fill="#e0e0e0"/>
          </g>
        </g>
      </g>
      <g id="Group_11400" data-name="Group 11400" transform="translate(0 0)">
        <g id="Group_11399" data-name="Group 11399">
          <g id="Group_11398" data-name="Group 11398">
            <rect id="Rectangle_340" data-name="Rectangle 340" width="55.864" height="92.47" fill="#ebebeb"/>
          </g>
        </g>
      </g>
      <g id="Group_11403" data-name="Group 11403" transform="translate(2.379 1.875)">
        <g id="Group_11402" data-name="Group 11402">
          <g id="Group_11401" data-name="Group 11401">
            <rect id="Rectangle_341" data-name="Rectangle 341" width="51.106" height="88.72" fill="#fafafa"/>
          </g>
        </g>
      </g>
      <g id="Group_11410" data-name="Group 11410" transform="translate(12.107 13.404)">
        <g id="Group_11406" data-name="Group 11406" transform="translate(0.001)">
          <g id="Group_11405" data-name="Group 11405">
            <g id="Group_11404" data-name="Group 11404">
              <rect id="Rectangle_342" data-name="Rectangle 342" width="31.426" height="65.663" fill="#ebebeb"/>
            </g>
          </g>
        </g>
        <g id="Group_11409" data-name="Group 11409" transform="translate(0 18.203)">
          <g id="Group_11408" data-name="Group 11408">
            <g id="Group_11407" data-name="Group 11407">
              <path id="Path_14063" data-name="Path 14063" d="M74.2,113.891c-.073-6.134,5.443-12.122,11.517-12.978,2.9-.408,5.974.167,8.68-.943,4.831-1.981,6.367-8.4,11.229-10.3l.222,47.46H74.2Z" transform="translate(-74.204 -89.667)" fill="#e0e0e0"/>
            </g>
          </g>
        </g>
      </g>
    </g>
    <g id="Group_11413" data-name="Group 11413" transform="translate(22.738 308.057)">
      <g id="Group_11412" data-name="Group 11412">
        <path id="Path_14064" data-name="Path 14064" d="M242.682,471.317c.091,0-10.054.164-84.72.164-74.693,0-135.224-.073-135.224-.164s60.531-.164,135.224-.164C232.629,471.153,210.026,471.317,242.682,471.317Z" transform="translate(-22.738 -471.153)" fill="#263238"/>
      </g>
    </g>
    <g id="Group_11468" data-name="Group 11468" transform="translate(133.538 29.013)">
      <g id="Group_11467" data-name="Group 11467" transform="translate(0)">
        <g id="Group_11425" data-name="Group 11425">
          <g id="Group_11424" data-name="Group 11424">
            <g id="Group_11423" data-name="Group 11423">
              <g id="Group_11422" data-name="Group 11422">
                <g id="Group_11417" data-name="Group 11417">
                  <g id="Group_11416" data-name="Group 11416">
                    <g id="Group_11415" data-name="Group 11415">
                      <g id="Group_11414" data-name="Group 11414">
                        <path id="Path_14065" data-name="Path 14065" d="M285.527,239.852l-71.634-.042A15.6,15.6,0,0,1,198.3,224.2l.035-179.588a15.6,15.6,0,0,1,15.613-15.6l71.634.042a15.6,15.6,0,0,1,15.6,15.608l-.035,179.589A15.6,15.6,0,0,1,285.527,239.852Z" transform="translate(-198.298 -29.013)" fill="#455a64"/>
                      </g>
                    </g>
                  </g>
                </g>
                <g id="Group_11421" data-name="Group 11421" transform="translate(4.747 6.352)">
                  <g id="Group_11420" data-name="Group 11420">
                    <g id="Group_11419" data-name="Group 11419">
                      <g id="Group_11418" data-name="Group 11418">
                        <path id="Path_14066" data-name="Path 14066" d="M288.279,39.119l-13.889-.008a3.451,3.451,0,0,0-3.373,3.524v2.519a3.449,3.449,0,0,1-3.373,3.524l-27.072-.016a3.454,3.454,0,0,1-3.372-3.528V42.614a3.454,3.454,0,0,0-3.373-3.527l-4.884,0-12.156-.007A10.929,10.929,0,0,0,205.854,50l-.035,175.291a10.928,10.928,0,0,0,10.922,10.931l71.491.042a10.929,10.929,0,0,0,10.935-10.926L299.2,50.05A10.929,10.929,0,0,0,288.279,39.119Z" transform="translate(-205.819 -39.077)" fill="#fafafa"/>
                      </g>
                    </g>
                  </g>
                </g>
              </g>
            </g>
          </g>
        </g>
        <g id="Group_11460" data-name="Group 11460" transform="translate(73.993 10.297)">
          <g id="Group_11438" data-name="Group 11438" transform="translate(0 0.195)">
            <g id="Group_11428" data-name="Group 11428" transform="translate(0 1.587)">
              <g id="Group_11427" data-name="Group 11427">
                <g id="Group_11426" data-name="Group 11426">
                  <rect id="Rectangle_343" data-name="Rectangle 343" width="0.793" height="1.113" fill="#263238"/>
                </g>
              </g>
            </g>
            <g id="Group_11431" data-name="Group 11431" transform="translate(1.292 1.091)">
              <g id="Group_11430" data-name="Group 11430">
                <g id="Group_11429" data-name="Group 11429">
                  <rect id="Rectangle_344" data-name="Rectangle 344" width="0.793" height="1.609" fill="#263238"/>
                </g>
              </g>
            </g>
            <g id="Group_11434" data-name="Group 11434" transform="translate(2.584 0.719)">
              <g id="Group_11433" data-name="Group 11433">
                <g id="Group_11432" data-name="Group 11432">
                  <rect id="Rectangle_345" data-name="Rectangle 345" width="0.793" height="1.981" fill="#263238"/>
                </g>
              </g>
            </g>
            <g id="Group_11437" data-name="Group 11437" transform="translate(3.876)">
              <g id="Group_11436" data-name="Group 11436">
                <g id="Group_11435" data-name="Group 11435">
                  <rect id="Rectangle_346" data-name="Rectangle 346" width="0.793" height="2.7" fill="#263238"/>
                </g>
              </g>
            </g>
          </g>
          <g id="Group_11445" data-name="Group 11445" transform="translate(12.119 0.398)">
            <g id="Group_11441" data-name="Group 11441">
              <g id="Group_11440" data-name="Group 11440">
                <g id="Group_11439" data-name="Group 11439">
                  <path id="Path_14067" data-name="Path 14067" d="M339.013,48.512h-3.985a.286.286,0,0,1-.286-.285V46.246a.285.285,0,0,1,.283-.285h3.987a.074.074,0,0,1,.052.021.072.072,0,0,1,.021.052v.653h.427a.073.073,0,0,1,.073.073v.954a.073.073,0,0,1-.073.073h-.427v.653A.073.073,0,0,1,339.013,48.512Zm-.073-2.406h-3.914a.137.137,0,0,0-.137.139v1.981a.14.14,0,0,0,.139.139h3.912v-.653a.073.073,0,0,1,.073-.073h.427v-.808h-.427a.073.073,0,0,1-.073-.073Z" transform="translate(-334.742 -45.96)" fill="#263238"/>
                </g>
              </g>
            </g>
            <g id="Group_11444" data-name="Group 11444" transform="translate(0.471 0.472)">
              <g id="Group_11443" data-name="Group 11443">
                <g id="Group_11442" data-name="Group 11442">
                  <path id="Path_14068" data-name="Path 14068" d="M335.489,48.317V46.707h3.4v1.609Z" transform="translate(-335.489 -46.707)" fill="#263238"/>
                </g>
              </g>
            </g>
          </g>
          <g id="Group_11459" data-name="Group 11459" transform="translate(5.995)">
            <g id="Group_11448" data-name="Group 11448" transform="translate(1.892 2.507)">
              <g id="Group_11447" data-name="Group 11447">
                <g id="Group_11446" data-name="Group 11446">
                  <path id="Path_14069" data-name="Path 14069" d="M328.619,49.593a.291.291,0,1,0-.292.291A.292.292,0,0,0,328.619,49.593Z" transform="translate(-328.036 -49.301)" fill="#263238"/>
                </g>
              </g>
            </g>
            <g id="Group_11458" data-name="Group 11458">
              <g id="Group_11451" data-name="Group 11451" transform="translate(1.19 1.684)">
                <g id="Group_11450" data-name="Group 11450">
                  <g id="Group_11449" data-name="Group 11449">
                    <path id="Path_14070" data-name="Path 14070" d="M326.924,48.409l.372.372a.878.878,0,0,1,1.243,0l.372-.372a1.4,1.4,0,0,0-1.986,0Z" transform="translate(-326.924 -47.998)" fill="#263238"/>
                  </g>
                </g>
              </g>
              <g id="Group_11454" data-name="Group 11454" transform="translate(0.605 0.856)">
                <g id="Group_11453" data-name="Group 11453">
                  <g id="Group_11452" data-name="Group 11452">
                    <path id="Path_14071" data-name="Path 14071" d="M327.574,46.685A2.227,2.227,0,0,0,326,47.34l.372.372a1.7,1.7,0,0,1,2.414,0l.372-.372A2.227,2.227,0,0,0,327.574,46.685Z" transform="translate(-325.996 -46.685)" fill="#263238"/>
                  </g>
                </g>
              </g>
              <g id="Group_11457" data-name="Group 11457">
                <g id="Group_11456" data-name="Group 11456">
                  <g id="Group_11455" data-name="Group 11455">
                    <path id="Path_14072" data-name="Path 14072" d="M325.038,46.235l.372.372a2.559,2.559,0,0,1,3.623,0l.372-.372a3.083,3.083,0,0,0-4.367,0Z" transform="translate(-325.038 -45.329)" fill="#263238"/>
                  </g>
                </g>
              </g>
            </g>
          </g>
        </g>
        <g id="Group_11463" data-name="Group 11463" transform="translate(50.81 25.415)">
          <g id="Group_11461" data-name="Group 11461" transform="translate(0 2.785)">
            <rect id="Rectangle_347" data-name="Rectangle 347" width="6.007" height="4.465" rx="0.946" fill="#263238"/>
          </g>
          <g id="Group_11462" data-name="Group 11462" transform="translate(0.694)">
            <path id="Path_14073" data-name="Path 14073" d="M280.537,72.362h-.631v-.745a2.309,2.309,0,1,1,4.618,0v.476h-.631v-.476a1.678,1.678,0,1,0-3.356,0Z" transform="translate(-279.906 -69.283)" fill="#263238"/>
          </g>
        </g>
        <g id="Group_11464" data-name="Group 11464" transform="translate(5.498 48.079)">
          <path id="Path_14074" data-name="Path 14074" d="M207.01,195.882a32.184,32.184,0,0,1,16.521-27.752c6.968-3.768,15.034-4.769,22.754-6.541s15.719-4.7,20.494-11.02c6.451-8.538,5.219-20.674,9.873-30.311a27.268,27.268,0,0,1,23.143-15.065V251.93a8.924,8.924,0,0,1-8.924,8.924H215.933a8.924,8.924,0,0,1-8.923-8.924Z" transform="translate(-207.01 -105.194)" fill="#ebebeb"/>
        </g>
        <g id="Group_11465" data-name="Group 11465" transform="translate(21.282 53.654)">
          <path id="Path_14075" data-name="Path 14075" d="M232.019,122.714c0-5.442,2.855-8.687,6.809-8.687s6.832,3.246,6.832,8.687-2.88,8.687-6.832,8.687S232.019,128.156,232.019,122.714Zm11.835,0c0-4.564-2.05-7.077-5.027-7.077s-5.028,2.513-5.028,7.077,2.05,7.077,5.028,7.077S243.854,127.277,243.854,122.714Z" transform="translate(-232.019 -114.027)" fill="#263238"/>
          <path id="Path_14076" data-name="Path 14076" d="M269.636,122.568c0,5.808-3.172,8.834-7.809,8.834a7.837,7.837,0,0,1-4.051-.927l.708-1.416a5.989,5.989,0,0,0,3.319.805c3.685,0,6.052-2.367,6.052-7,0-.39-.024-.879-.073-1.391a5.46,5.46,0,0,1-5.223,2.928c-3.392,0-5.76-2-5.76-5.125,0-3.2,2.514-5.247,5.833-5.247C267.172,114.027,269.636,117.175,269.636,122.568Zm-2.416-3.392c0-1.879-1.561-3.66-4.514-3.66-2.465,0-4.173,1.44-4.173,3.709,0,2.245,1.659,3.684,4.295,3.684C265.439,122.909,267.22,121.3,267.22,119.176Z" transform="translate(-241.16 -114.027)" fill="#263238"/>
          <path id="Path_14077" data-name="Path 14077" d="M281.2,122.15a1.293,1.293,0,0,1,1.294-1.318,1.313,1.313,0,0,1,1.318,1.318,1.333,1.333,0,0,1-1.318,1.342A1.314,1.314,0,0,1,281.2,122.15Zm0,10.4a1.292,1.292,0,0,1,1.294-1.318,1.312,1.312,0,0,1,1.318,1.318,1.333,1.333,0,0,1-1.318,1.342A1.313,1.313,0,0,1,281.2,132.546Z" transform="translate(-250.159 -116.537)" fill="#263238"/>
          <path id="Path_14078" data-name="Path 14078" d="M300.534,129.693v1.562H288.552v-1.245l7.1-6.955c1.928-1.9,2.294-3.05,2.294-4.222,0-1.977-1.391-3.2-4-3.2a5.8,5.8,0,0,0-4.661,1.9l-1.244-1.074a7.675,7.675,0,0,1,6.052-2.44c3.465,0,5.661,1.757,5.661,4.612,0,1.635-.513,3.1-2.807,5.344l-5.808,5.71Z" transform="translate(-252.684 -114.027)" fill="#263238"/>
          <path id="Path_14079" data-name="Path 14079" d="M311.159,122.714c0-5.442,2.855-8.687,6.809-8.687s6.833,3.246,6.833,8.687-2.879,8.687-6.833,8.687S311.159,128.156,311.159,122.714Zm11.835,0c0-4.564-2.05-7.077-5.027-7.077s-5.028,2.513-5.028,7.077,2.05,7.077,5.028,7.077S322.994,127.277,322.994,122.714Z" transform="translate(-261.212 -114.027)" fill="#263238"/>
        </g>
        <g id="Group_11466" data-name="Group 11466" transform="translate(7.649 23.414)">
          <circle id="Ellipse_162" data-name="Ellipse 162" cx="12.332" cy="12.332" r="12.332" transform="matrix(0.21, -0.978, 0.978, 0.21, 0, 24.113)" fill="#e0e0e0"/>
        </g>
      </g>
    </g>
    <g id="Group_11749" data-name="Group 11749" transform="translate(27.425 113.817)">
      <g id="Group_11580" data-name="Group 11580" transform="translate(17.517)">
        <g id="Group_11469" data-name="Group 11469" transform="translate(0 4.299)">
          <path id="Path_14080" data-name="Path 14080" d="M101.928,217.256a18.155,18.155,0,0,0-2.979-1.365,3.211,3.211,0,0,1-2.044-2.376c-.134-1.612,1.647-2.83,1.752-4.444.146-2.274-2.93-3.518-3.381-5.752-.374-1.855,1.2-3.606,1.133-5.5s-1.7-3.3-2.449-5.033c-1.738-4.027,1.469-9.219-.959-12.872a18.044,18.044,0,0,0-2.466-2.524,4.144,4.144,0,0,1-1.456-3.1l-4.559-2.071c-1.527-2.333-4.989-2.423-7.594-1.429s-4.891,2.787-7.6,3.455c-1.313.324-1.125-1.623-2.449-1.353a6.892,6.892,0,0,0-4.383,4.085c-.533,1.814-.9,3.819-1.547,5.6-.711,1.964-2.818,3.336-3.015,5.416-.23,2.427,2.279,4.4,2.283,6.842.005,2.623-2.891,4.966-1.968,7.421.528,1.4,2.147,2.155,2.71,3.544.778,1.919-.768,4.023-.627,6.088.14,2.04,1.853,3.575,3.477,4.816a73.124,73.124,0,0,0,20.479,11.252,24.178,24.178,0,0,0,9.94,1.633,11.079,11.079,0,0,0,8.524-4.805C104.2,222.415,104.184,218.878,101.928,217.256Z" transform="translate(-57.92 -170.195)" fill="#263238"/>
        </g>
        <g id="Group_11579" data-name="Group 11579" transform="translate(4.157)">
          <g id="Group_11470" data-name="Group 11470">
            <path id="Path_14081" data-name="Path 14081" d="M91.328,170.647a9.624,9.624,0,0,0-16.185-4.416A20.842,20.842,0,0,1,72.25,169.2c-1.3.873-1.486.617-2.941,1.189s-4.119,4.625-4.074,6.188l-.728,6.851c.059,1.6,2.121,2.508,3.64,1.986a6.816,6.816,0,0,0,3.33-3.334,11.169,11.169,0,0,1,2.87-3.818c2.179-1.532,5.132-1.005,7.741-.471s5.628.915,7.664-.8C91.505,175.5,91.886,172.873,91.328,170.647Z" transform="translate(-64.507 -163.383)" fill="#263238"/>
          </g>
          <g id="Group_11577" data-name="Group 11577" transform="translate(4.347 7.569)">
            <g id="Group_11472" data-name="Group 11472">
              <g id="Group_11471" data-name="Group 11471">
                <path id="Path_14082" data-name="Path 14082" d="M95.3,184.852c-.291-4.46-3.258-9.926-7.7-9.447L73.73,178.944A2.615,2.615,0,0,0,71.4,181.6l1.559,33.463-.1.021s5.643,11.96,14.814,9.077c1.819-.572.168-5.082.528-7.129l.094.011c0-.243.007-.469.01-.7a21.9,21.9,0,0,0,.054-4.6h0c.026-2.7.023-3.81.025-3.785,0,0,5.7-.959,6.861-8.4C95.825,195.87,95.626,189.807,95.3,184.852Z" transform="translate(-71.395 -175.376)" fill="#ffbe9d"/>
              </g>
            </g>
            <g id="Group_11576" data-name="Group 11576" transform="translate(7.026 8.605)">
              <g id="Group_11575" data-name="Group 11575">
                <g id="Group_11574" data-name="Group 11574">
                  <g id="Group_11573" data-name="Group 11573">
                    <g id="Group_11572" data-name="Group 11572">
                      <g id="Group_11553" data-name="Group 11553" transform="translate(0 3.03)">
                        <g id="Group_11552" data-name="Group 11552">
                          <g id="Group_11551" data-name="Group 11551">
                            <g id="Group_11492" data-name="Group 11492" transform="translate(11.804)">
                              <g id="Group_11481" data-name="Group 11481" transform="translate(2.027 2.712)">
                                <g id="Group_11480" data-name="Group 11480">
                                  <g id="Group_11479" data-name="Group 11479">
                                    <g id="Group_11478" data-name="Group 11478">
                                      <g id="Group_11477" data-name="Group 11477">
                                        <g id="Group_11476" data-name="Group 11476">
                                          <g id="Group_11475" data-name="Group 11475">
                                            <g id="Group_11474" data-name="Group 11474">
                                              <g id="Group_11473" data-name="Group 11473">
                                                <path id="Path_14083" data-name="Path 14083" d="M106.346,198.967a.953.953,0,0,1-.917.964.912.912,0,0,1-.985-.857.954.954,0,0,1,.916-.965A.912.912,0,0,1,106.346,198.967Z" transform="translate(-104.443 -198.107)" fill="#263238"/>
                                              </g>
                                            </g>
                                          </g>
                                        </g>
                                      </g>
                                    </g>
                                  </g>
                                </g>
                              </g>
                              <g id="Group_11491" data-name="Group 11491">
                                <g id="Group_11490" data-name="Group 11490">
                                  <g id="Group_11489" data-name="Group 11489">
                                    <g id="Group_11488" data-name="Group 11488">
                                      <g id="Group_11487" data-name="Group 11487">
                                        <g id="Group_11486" data-name="Group 11486">
                                          <g id="Group_11485" data-name="Group 11485">
                                            <g id="Group_11484" data-name="Group 11484">
                                              <g id="Group_11483" data-name="Group 11483">
                                                <g id="Group_11482" data-name="Group 11482">
                                                  <path id="Path_14084" data-name="Path 14084" d="M105,194.809c-.118.124-.841-.408-1.867-.4s-1.777.52-1.889.394c-.055-.055.066-.28.393-.519a2.616,2.616,0,0,1,1.512-.47,2.508,2.508,0,0,1,1.487.476C104.951,194.529,105.058,194.753,105,194.809Z" transform="translate(-101.231 -193.811)" fill="#263238"/>
                                                </g>
                                              </g>
                                            </g>
                                          </g>
                                        </g>
                                      </g>
                                    </g>
                                  </g>
                                </g>
                              </g>
                            </g>
                            <g id="Group_11512" data-name="Group 11512" transform="translate(1.718 0.214)">
                              <g id="Group_11501" data-name="Group 11501" transform="translate(2.414 2.817)">
                                <g id="Group_11500" data-name="Group 11500">
                                  <g id="Group_11499" data-name="Group 11499">
                                    <g id="Group_11498" data-name="Group 11498">
                                      <g id="Group_11497" data-name="Group 11497">
                                        <g id="Group_11496" data-name="Group 11496">
                                          <g id="Group_11495" data-name="Group 11495">
                                            <g id="Group_11494" data-name="Group 11494">
                                              <g id="Group_11493" data-name="Group 11493">
                                                <path id="Path_14085" data-name="Path 14085" d="M90.978,199.473a.954.954,0,0,1-.918.964.912.912,0,0,1-.985-.858.953.953,0,0,1,.916-.964A.913.913,0,0,1,90.978,199.473Z" transform="translate(-89.075 -198.613)" fill="#263238"/>
                                              </g>
                                            </g>
                                          </g>
                                        </g>
                                      </g>
                                    </g>
                                  </g>
                                </g>
                              </g>
                              <g id="Group_11511" data-name="Group 11511">
                                <g id="Group_11510" data-name="Group 11510">
                                  <g id="Group_11509" data-name="Group 11509">
                                    <g id="Group_11508" data-name="Group 11508">
                                      <g id="Group_11507" data-name="Group 11507">
                                        <g id="Group_11506" data-name="Group 11506">
                                          <g id="Group_11505" data-name="Group 11505">
                                            <g id="Group_11504" data-name="Group 11504">
                                              <g id="Group_11503" data-name="Group 11503">
                                                <g id="Group_11502" data-name="Group 11502">
                                                  <path id="Path_14086" data-name="Path 14086" d="M89.019,195.148c-.118.125-.843-.408-1.868-.4-1.024-.01-1.777.519-1.888.394-.054-.056.064-.28.393-.519a2.616,2.616,0,0,1,1.512-.47,2.51,2.51,0,0,1,1.487.477C88.969,194.868,89.077,195.092,89.019,195.148Z" transform="translate(-85.25 -194.15)" fill="#263238"/>
                                                </g>
                                              </g>
                                            </g>
                                          </g>
                                        </g>
                                      </g>
                                    </g>
                                  </g>
                                </g>
                              </g>
                            </g>
                            <g id="Group_11522" data-name="Group 11522" transform="translate(8.729 0.265)">
                              <g id="Group_11521" data-name="Group 11521">
                                <g id="Group_11520" data-name="Group 11520">
                                  <g id="Group_11519" data-name="Group 11519">
                                    <g id="Group_11518" data-name="Group 11518">
                                      <g id="Group_11517" data-name="Group 11517">
                                        <g id="Group_11516" data-name="Group 11516">
                                          <g id="Group_11515" data-name="Group 11515">
                                            <g id="Group_11514" data-name="Group 11514">
                                              <g id="Group_11513" data-name="Group 11513">
                                                <path id="Path_14087" data-name="Path 14087" d="M96.857,202.779a6.825,6.825,0,0,1,1.666-.3c.262-.028.51-.081.553-.259a1.332,1.332,0,0,0-.177-.776l-.779-1.994a34.25,34.25,0,0,1-1.752-5.215,34.373,34.373,0,0,1,2.167,5.062q.391,1.05.747,2.005a1.512,1.512,0,0,1,.138,1.028.658.658,0,0,1-.43.384,1.751,1.751,0,0,1-.445.062A6.678,6.678,0,0,1,96.857,202.779Z" transform="translate(-96.358 -194.23)" fill="#263238"/>
                                              </g>
                                            </g>
                                          </g>
                                        </g>
                                      </g>
                                    </g>
                                  </g>
                                </g>
                              </g>
                            </g>
                            <g id="Group_11531" data-name="Group 11531" transform="translate(0 18.32)">
                              <g id="Group_11530" data-name="Group 11530">
                                <g id="Group_11529" data-name="Group 11529">
                                  <g id="Group_11528" data-name="Group 11528">
                                    <g id="Group_11527" data-name="Group 11527">
                                      <g id="Group_11526" data-name="Group 11526">
                                        <g id="Group_11525" data-name="Group 11525">
                                          <g id="Group_11524" data-name="Group 11524">
                                            <g id="Group_11523" data-name="Group 11523">
                                              <path id="Path_14088" data-name="Path 14088" d="M92.492,225.473a18.912,18.912,0,0,1-9.964-2.634s2.427,5.1,9.867,4.39Z" transform="translate(-82.528 -222.839)" fill="#eb996e"/>
                                            </g>
                                          </g>
                                        </g>
                                      </g>
                                    </g>
                                  </g>
                                </g>
                              </g>
                            </g>
                            <g id="Group_11540" data-name="Group 11540" transform="translate(5.74 10.593)">
                              <g id="Group_11539" data-name="Group 11539">
                                <g id="Group_11538" data-name="Group 11538">
                                  <g id="Group_11537" data-name="Group 11537">
                                    <g id="Group_11536" data-name="Group 11536">
                                      <g id="Group_11535" data-name="Group 11535">
                                        <g id="Group_11534" data-name="Group 11534">
                                          <g id="Group_11533" data-name="Group 11533">
                                            <g id="Group_11532" data-name="Group 11532">
                                              <path id="Path_14089" data-name="Path 14089" d="M94.683,211.29a1.849,1.849,0,0,0-1.659-.683,1.686,1.686,0,0,0-1.164.627,1.072,1.072,0,0,0-.079,1.224,1.242,1.242,0,0,0,1.346.337,3.891,3.891,0,0,0,1.31-.786,1.146,1.146,0,0,0,.293-.3.343.343,0,0,0,0-.382" transform="translate(-91.623 -210.596)" fill="#eb996e"/>
                                            </g>
                                          </g>
                                        </g>
                                      </g>
                                    </g>
                                  </g>
                                </g>
                              </g>
                            </g>
                            <g id="Group_11550" data-name="Group 11550" transform="translate(6.044 9.53)">
                              <g id="Group_11549" data-name="Group 11549">
                                <g id="Group_11548" data-name="Group 11548">
                                  <g id="Group_11547" data-name="Group 11547">
                                    <g id="Group_11546" data-name="Group 11546">
                                      <g id="Group_11545" data-name="Group 11545">
                                        <g id="Group_11544" data-name="Group 11544">
                                          <g id="Group_11543" data-name="Group 11543">
                                            <g id="Group_11542" data-name="Group 11542">
                                              <g id="Group_11541" data-name="Group 11541">
                                                <path id="Path_14090" data-name="Path 14090" d="M92.27,208.911c.167-.01.172,1.1,1.127,1.892s2.141.663,2.15.819c.016.07-.264.217-.765.232a2.773,2.773,0,0,1-1.794-.621,2.417,2.417,0,0,1-.873-1.587C92.071,209.181,92.194,208.9,92.27,208.911Z" transform="translate(-92.105 -208.911)" fill="#263238"/>
                                              </g>
                                            </g>
                                          </g>
                                        </g>
                                      </g>
                                    </g>
                                  </g>
                                </g>
                              </g>
                            </g>
                          </g>
                        </g>
                      </g>
                      <g id="Group_11562" data-name="Group 11562" transform="translate(1.263 1.679)">
                        <g id="Group_11561" data-name="Group 11561">
                          <g id="Group_11560" data-name="Group 11560">
                            <g id="Group_11559" data-name="Group 11559">
                              <g id="Group_11558" data-name="Group 11558">
                                <g id="Group_11557" data-name="Group 11557">
                                  <g id="Group_11556" data-name="Group 11556">
                                    <g id="Group_11555" data-name="Group 11555">
                                      <g id="Group_11554" data-name="Group 11554">
                                        <path id="Path_14091" data-name="Path 14091" d="M89.211,192.436c-.1.28-1.125.15-2.329.3-1.207.124-2.176.478-2.336.228-.072-.12.1-.382.488-.654a4.082,4.082,0,0,1,3.555-.4C89.032,192.085,89.254,192.3,89.211,192.436Z" transform="translate(-84.529 -191.671)" fill="#263238"/>
                                      </g>
                                    </g>
                                  </g>
                                </g>
                              </g>
                            </g>
                          </g>
                        </g>
                      </g>
                      <g id="Group_11571" data-name="Group 11571" transform="translate(11.695)">
                        <g id="Group_11570" data-name="Group 11570">
                          <g id="Group_11569" data-name="Group 11569">
                            <g id="Group_11568" data-name="Group 11568">
                              <g id="Group_11567" data-name="Group 11567">
                                <g id="Group_11566" data-name="Group 11566">
                                  <g id="Group_11565" data-name="Group 11565">
                                    <g id="Group_11564" data-name="Group 11564">
                                      <g id="Group_11563" data-name="Group 11563">
                                        <path id="Path_14092" data-name="Path 14092" d="M104.553,190.07c-.18.233-.887-.007-1.737-.016-.849-.04-1.57.16-1.736-.083-.073-.119.04-.352.354-.574a2.515,2.515,0,0,1,2.8.081C104.533,189.716,104.632,189.956,104.553,190.07Z" transform="translate(-101.058 -189.01)" fill="#263238"/>
                                      </g>
                                    </g>
                                  </g>
                                </g>
                              </g>
                            </g>
                          </g>
                        </g>
                      </g>
                    </g>
                  </g>
                </g>
              </g>
            </g>
          </g>
          <g id="Group_11578" data-name="Group 11578" transform="translate(0.42 4.891)">
            <path id="Path_14093" data-name="Path 14093" d="M85.06,171.939l-.63-.807a47.635,47.635,0,0,0-12.509,3.192,10.448,10.448,0,0,0-4.312,2.764c-1.506,1.839-1.745,4.373-1.917,6.744-.651,9.022-1.192,18.314,1.648,26.9A4.78,4.78,0,0,1,70.63,208.9a13.774,13.774,0,0,0,3.753-.917,5.1,5.1,0,0,0,2.54-3.255,6.13,6.13,0,0,0-.46-4.142c-.689-1.43-1.92-2.81-1.619-4.369.315-1.631,2.189-2.567,2.629-4.169.76-2.769-3.128-5.257-2.341-8.019a3.886,3.886,0,0,1,2.131-2.237c.949-.472,1.99-.737,2.951-1.183A8.71,8.71,0,0,0,85.06,171.939Z" transform="translate(-65.172 -171.132)" fill="#263238"/>
          </g>
        </g>
      </g>
      <g id="Group_11614" data-name="Group 11614" transform="translate(10.281 42.328)">
        <g id="Group_11589" data-name="Group 11589" transform="translate(47.605 10.524)">
          <g id="Group_11581" data-name="Group 11581" transform="translate(12.933 9.531)">
            <path id="Path_14094" data-name="Path 14094" d="M151.073,262.228l-8.7,13.533a3.49,3.49,0,0,0,3.058,1.517c2.09-.088,4.97-5.314,5.313-6.373s-.124-2.075.19-2.778a8.552,8.552,0,0,0,.187-2.639C151.08,265.6,153,263.022,151.073,262.228Z" transform="translate(-142.377 -262.228)" fill="#ffbe9d"/>
          </g>
          <g id="Group_11582" data-name="Group 11582" transform="translate(10.532)">
            <path id="Path_14095" data-name="Path 14095" d="M138.572,270.183l4.531-17.915a2.036,2.036,0,0,1,.966-1.27l6.584-3.753a.9.9,0,0,1,1.178.255h0a.9.9,0,0,1,.144.752l-4.8,18.857Z" transform="translate(-138.572 -247.126)" fill="#263238"/>
          </g>
          <g id="Group_11583" data-name="Group 11583" transform="translate(0 12.377)">
            <path id="Path_14096" data-name="Path 14096" d="M130.13,291.3l10.523-19.431-3.962-5.133-14.807,11.238,3.878,10.678Z" transform="translate(-121.884 -266.738)" fill="#7d0d35"/>
          </g>
          <g id="Group_11585" data-name="Group 11585" transform="translate(16.851 7.456)">
            <g id="Group_11584" data-name="Group 11584">
              <path id="Path_14097" data-name="Path 14097" d="M150.628,273.208a4.57,4.57,0,0,0,.2-.8,5.985,5.985,0,0,0-.22-2.244l-.013-.046.024-.042a1.2,1.2,0,0,0,.122-1,1.914,1.914,0,0,0-.734-.914l-.115-.081.079-.117,1.191-1.779a2.565,2.565,0,0,0,.277-.459.656.656,0,0,0-.035-.468,2.214,2.214,0,0,0-.738-.834l-.148-.109.119-.136c.324-.369.682-.733,1.045-1.106a23.8,23.8,0,0,0,1.735-2,6.481,6.481,0,0,0,.643-1.031,1.587,1.587,0,0,0,.158-.514c.014-.165-.066-.256-.16-.276l-.037-.008h0a1.106,1.106,0,0,0-.595.092,5.675,5.675,0,0,0-.6.275c-.386.2-.743.422-1.075.634-.663.427-1.227.831-1.691,1.165l-1.075.788a1.969,1.969,0,0,1-.4.263,1.732,1.732,0,0,1,.338-.336c.232-.205.578-.5,1.028-.855s1-.781,1.663-1.229c.33-.223.687-.453,1.082-.67a5.839,5.839,0,0,1,.631-.3,1.3,1.3,0,0,1,.791-.1l-.037-.008a.525.525,0,0,1,.441.582,1.831,1.831,0,0,1-.179.629,6.616,6.616,0,0,1-.668,1.094,22.839,22.839,0,0,1-1.753,2.036c-.363.372-.723.738-1.042,1.1l-.028-.244a2.49,2.49,0,0,1,.849.981.971.971,0,0,1,.039.687,2.5,2.5,0,0,1-.315.527l-1.224,1.777-.037-.2a2.154,2.154,0,0,1,.822,1.072,1.433,1.433,0,0,1-.172,1.189l.012-.088a5.628,5.628,0,0,1,.126,2.324,2.256,2.256,0,0,1-.2.6C150.68,273.152,150.638,273.214,150.628,273.208Z" transform="translate(-148.584 -258.94)" fill="#eb996e"/>
            </g>
          </g>
          <g id="Group_11587" data-name="Group 11587" transform="translate(14.158 0.371)">
            <g id="Group_11586" data-name="Group 11586">
              <path id="Path_14098" data-name="Path 14098" d="M153.95,247.717a2.568,2.568,0,0,1-.542.382c-.36.228-.885.548-1.539.937l-2.3,1.353-1.368.788a6.712,6.712,0,0,0-1.375.9,2.836,2.836,0,0,0-.692,1.423q-.206.79-.4,1.526l-.69,2.58c-.2.733-.37,1.325-.494,1.732a2.574,2.574,0,0,1-.225.624,2.6,2.6,0,0,1,.1-.656c.086-.417.22-1.017.393-1.758l.622-2.6c.122-.491.248-1,.379-1.532a3.1,3.1,0,0,1,.774-1.578,6.788,6.788,0,0,1,1.45-.948l1.375-.769,2.336-1.291c.668-.364,1.21-.653,1.59-.846A2.574,2.574,0,0,1,153.95,247.717Z" transform="translate(-144.318 -247.714)" fill="#455a64"/>
            </g>
          </g>
          <g id="Group_11588" data-name="Group 11588" transform="translate(19.292 5.891)">
            <path id="Path_14099" data-name="Path 14099" d="M152.588,257.069c-.163.389-.182.753-.042.812s.386-.21.55-.6.182-.754.042-.812S152.752,256.679,152.588,257.069Z" transform="translate(-152.452 -256.461)" fill="#fff"/>
          </g>
        </g>
        <g id="Group_11599" data-name="Group 11599" transform="translate(0.686)">
          <g id="Group_11590" data-name="Group 11590" transform="translate(33.58 6.158)">
            <path id="Path_14100" data-name="Path 14100" d="M100.749,240.209h0a18.321,18.321,0,0,1,10.36,9.439L125.236,279.7l12.167,4.935-10.713,3.087-9.543-7Z" transform="translate(-100.749 -240.209)" fill="#7d0d35"/>
          </g>
          <g id="Group_11591" data-name="Group 11591" transform="translate(14.206)">
            <path id="Path_14101" data-name="Path 14101" d="M115.366,284.119l-5.126,3.951-25.571-26.3L70.05,235.362l1.69-4.911,11.3,4.708,4.047,5.981.9-7.591.726,1.028,1.18,3.2s11.1,9.233,13.493,16.554c2,6.111,1.373,18.735,2.59,22.166Z" transform="translate(-70.05 -230.451)" fill="#fafafa"/>
          </g>
          <g id="Group_11592" data-name="Group 11592" transform="translate(0 1.983)">
            <path id="Path_14102" data-name="Path 14102" d="M59.01,236.179c-.171.514-10.931,4.836-11.445,8.6s7.733,32.9,7.733,32.9l13.072,11.548h33.568L91.289,269.293a50.622,50.622,0,0,0-8.617-11.711c-3.151-3.193-6.965-7.144-8.928-9.5C71.617,245.524,62.6,233.593,62.6,233.593Z" transform="translate(-47.541 -233.593)" fill="#7d0d35"/>
          </g>
          <g id="Group_11594" data-name="Group 11594" transform="translate(18.203 5.215)">
            <g id="Group_11593" data-name="Group 11593">
              <path id="Path_14103" data-name="Path 14103" d="M76.384,239.26a13.193,13.193,0,0,1,1.9.854c1.156.565,2.742,1.365,4.484,2.267l1.977,1.033-.227.15a14.342,14.342,0,0,1,.213-3.518,4.877,4.877,0,0,1,.369-1.33,12.709,12.709,0,0,1-.177,1.361,17.181,17.181,0,0,0-.093,3.466l.021.277-.249-.127-1.985-1.018c-1.743-.9-3.312-1.735-4.441-2.352A13.076,13.076,0,0,1,76.384,239.26Z" transform="translate(-76.383 -238.714)" fill="#263238"/>
            </g>
          </g>
          <g id="Group_11596" data-name="Group 11596" transform="translate(30.966 10.341)">
            <g id="Group_11595" data-name="Group 11595">
              <path id="Path_14104" data-name="Path 14104" d="M109.719,268.826a5.935,5.935,0,0,1-.537-.853l-1.37-2.378c-1.151-2.01-2.75-4.781-4.559-7.816s-3.489-5.76-4.709-7.729l-1.44-2.335a5.892,5.892,0,0,1-.5-.879,5.9,5.9,0,0,1,.6.808c.37.532.894,1.311,1.529,2.28,1.272,1.938,2.983,4.646,4.8,7.685s3.379,5.832,4.48,7.872c.55,1.02.987,1.85,1.279,2.43A5.924,5.924,0,0,1,109.719,268.826Z" transform="translate(-96.607 -246.835)" fill="#263238"/>
            </g>
          </g>
          <g id="Group_11598" data-name="Group 11598" transform="translate(38.182 39.159)" opacity="0.3">
            <g id="Group_11597" data-name="Group 11597">
              <path id="Path_14105" data-name="Path 14105" d="M108.765,305.977a16.7,16.7,0,0,0,5.893.292,5.672,5.672,0,0,0,4.458-3.477,3.671,3.671,0,0,1,.728-1.681c.75-.694,1.946-.268,2.964-.36a3.728,3.728,0,0,0,2.7-1.892,11.042,11.042,0,0,0,1.13-3.216,4.918,4.918,0,0,0,.2-1.67,1.666,1.666,0,0,0-.873-1.36c-.769-.346-1.635.158-2.319.651a174.72,174.72,0,0,0-15.608,13.211" transform="translate(-108.04 -292.497)"/>
            </g>
          </g>
        </g>
        <g id="Group_11600" data-name="Group 11600" transform="translate(46.976 18.07)">
          <path id="Path_14106" data-name="Path 14106" d="M126.043,271.413s1.924-4.418,2.951-5.03,6.129-3.588,6.129-3.588l-.657,2.429,4.988-3.464c.613-.412,4.176-3.65,4.808-2.386.454.909-2.454,3.306-2.844,3.84-.974,1.334-.651,1.21-.651,1.21s1.056.636.526,1.578a21.238,21.238,0,0,1-1.425,2.1s1.388.495.578,2.3a4.813,4.813,0,0,1,.141,2.317c-.229,1.346-2.663,3.905-2.663,3.905L125.784,282.4l-4.9-8.311Z" transform="translate(-120.888 -259.082)" fill="#ffbe9d"/>
        </g>
        <g id="Group_11601" data-name="Group 11601" transform="translate(0 8.582)">
          <path id="Path_14107" data-name="Path 14107" d="M70.31,257.563,78.1,274.186l17.267-7.5s7.167,4.181,6.174,8.75l-15.557,12.78a13.932,13.932,0,0,1-10.537,3.063h0a13.931,13.931,0,0,1-9.95-6.178L54.231,267.962l-6.3-10.292a9.61,9.61,0,0,1,.264-10.651,7.8,7.8,0,0,1,2.225-2.086C53.233,243.221,61.587,242.479,70.31,257.563Z" transform="translate(-46.455 -244.049)" fill="#7d0d35"/>
        </g>
        <g id="Group_11603" data-name="Group 11603" transform="translate(56.918 23.051)">
          <g id="Group_11602" data-name="Group 11602">
            <path id="Path_14108" data-name="Path 14108" d="M141.876,266.98a30.854,30.854,0,0,1-5.233,3.23,30.854,30.854,0,0,1,5.233-3.23Z" transform="translate(-136.641 -266.974)" fill="#eb996e"/>
          </g>
        </g>
        <g id="Group_11605" data-name="Group 11605" transform="translate(62.266 22.901)">
          <g id="Group_11604" data-name="Group 11604">
            <path id="Path_14109" data-name="Path 14109" d="M149.866,266.74a36.13,36.13,0,0,1-4.749,4.675,36.236,36.236,0,0,1,4.749-4.675Z" transform="translate(-145.114 -266.738)" fill="#eb996e"/>
          </g>
        </g>
        <g id="Group_11607" data-name="Group 11607" transform="translate(64.001 26.645)">
          <g id="Group_11606" data-name="Group 11606">
            <path id="Path_14110" data-name="Path 14110" d="M150.23,272.674a10.866,10.866,0,0,1-2.36,2.772,10.868,10.868,0,0,1,2.36-2.772Z" transform="translate(-147.864 -272.67)" fill="#eb996e"/>
          </g>
        </g>
        <g id="Group_11609" data-name="Group 11609" transform="translate(65.318 29.167)">
          <g id="Group_11608" data-name="Group 11608">
            <path id="Path_14111" data-name="Path 14111" d="M151.221,276.672c.065.056-.2.466-.545.956s-.636.882-.711.841.105-.512.459-1.017S151.159,276.617,151.221,276.672Z" transform="translate(-149.949 -276.666)" fill="#eb996e"/>
          </g>
        </g>
        <g id="Group_11611" data-name="Group 11611" transform="translate(11.204 10.689)">
          <g id="Group_11610" data-name="Group 11610">
            <path id="Path_14112" data-name="Path 14112" d="M89.874,291.094s.025-.029.079-.076l.248-.207.978-.79,3.732-2.957,13.312-10.437-.056.107a6.64,6.64,0,0,0-.489-2.545,10.588,10.588,0,0,0-1.433-2.34,18.249,18.249,0,0,0-4.416-3.794l.145.008-8.94,3.889-8.326,3.613-.139.061-.068-.135c-2.293-4.508-4.405-8.752-6.553-12.436-1.064-1.848-2.121-3.563-3.116-5.154s-1.906-3.074-2.833-4.35a16.1,16.1,0,0,0-5.379-4.988c-.374-.221-.719-.389-1.019-.534s-.554-.265-.764-.353l-.473-.209a.813.813,0,0,1-.157-.08,14.487,14.487,0,0,1,2.468,1.077,14.212,14.212,0,0,1,2.636,1.8,18.559,18.559,0,0,1,2.857,3.163c.945,1.276,1.868,2.755,2.874,4.34s2.074,3.3,3.149,5.146c2.17,3.684,4.3,7.93,6.6,12.432l-.208-.074,8.324-3.62,8.944-3.881.078-.033.068.042a18.5,18.5,0,0,1,4.493,3.878,10.878,10.878,0,0,1,1.471,2.42,6.933,6.933,0,0,1,.5,2.672v.066l-.056.042L95.016,287.2l-3.782,2.893-1.005.755-.261.189A.383.383,0,0,1,89.874,291.094Z" transform="translate(-64.207 -247.387)" fill="#263238"/>
          </g>
        </g>
        <g id="Group_11613" data-name="Group 11613" transform="translate(30.581 38.365)">
          <g id="Group_11612" data-name="Group 11612">
            <path id="Path_14113" data-name="Path 14113" d="M94.92,296.821c-.09-.039.387-1.226.659-2.762s.252-2.814.35-2.819a8.531,8.531,0,0,1-1.009,5.582Z" transform="translate(-94.909 -291.239)" fill="#263238"/>
          </g>
        </g>
      </g>
      <g id="Group_11748" data-name="Group 11748" transform="translate(0 64.111)">
        <g id="Group_11663" data-name="Group 11663" transform="translate(125.199 70.994)">
          <g id="Group_11648" data-name="Group 11648">
            <g id="Group_11618" data-name="Group 11618">
              <g id="Group_11617" data-name="Group 11617">
                <g id="Group_11616" data-name="Group 11616">
                  <g id="Group_11615" data-name="Group 11615">
                    <path id="Path_14114" data-name="Path 14114" d="M239.22,377.454l9.043,11.329s14.552-5.387,16.427-3.456l-21.336,18.323L228.54,386.576Z" transform="translate(-228.54 -377.454)" fill="#7d0d35"/>
                  </g>
                </g>
              </g>
            </g>
            <g id="Group_11623" data-name="Group 11623" transform="translate(12.153 15.612)" opacity="0.6">
              <g id="Group_11622" data-name="Group 11622">
                <g id="Group_11621" data-name="Group 11621">
                  <g id="Group_11620" data-name="Group 11620">
                    <g id="Group_11619" data-name="Group 11619">
                      <path id="Path_14115" data-name="Path 14115" d="M247.975,402.649a1.148,1.148,0,0,0,.251,1.512,1.1,1.1,0,0,0,1.5-.236,1.212,1.212,0,0,0-.275-1.6,1.145,1.145,0,0,0-1.534.418" transform="translate(-247.796 -402.192)" fill="#fff"/>
                    </g>
                  </g>
                </g>
              </g>
            </g>
            <g id="Group_11627" data-name="Group 11627" transform="translate(13.389 7.408)" opacity="0.6">
              <g id="Group_11626" data-name="Group 11626">
                <g id="Group_11625" data-name="Group 11625">
                  <g id="Group_11624" data-name="Group 11624">
                    <path id="Path_14116" data-name="Path 14116" d="M251.18,407.979l-1.426-1.779,20.99-16.9s1.3-.4,1.772.358Z" transform="translate(-249.754 -389.191)" fill="#fff"/>
                  </g>
                </g>
              </g>
            </g>
            <g id="Group_11632" data-name="Group 11632" transform="translate(18.793 10.905)">
              <g id="Group_11631" data-name="Group 11631">
                <g id="Group_11630" data-name="Group 11630">
                  <g id="Group_11629" data-name="Group 11629">
                    <g id="Group_11628" data-name="Group 11628">
                      <path id="Path_14117" data-name="Path 14117" d="M259.5,394.751c.086.107-.394.6-.619,1.377-.245.769-.122,1.447-.253,1.488-.114.062-.493-.694-.2-1.628S259.441,394.636,259.5,394.751Z" transform="translate(-258.317 -394.732)" fill="#263238"/>
                    </g>
                  </g>
                </g>
              </g>
            </g>
            <g id="Group_11637" data-name="Group 11637" transform="translate(22.366 9.916)">
              <g id="Group_11636" data-name="Group 11636">
                <g id="Group_11635" data-name="Group 11635">
                  <g id="Group_11634" data-name="Group 11634">
                    <g id="Group_11633" data-name="Group 11633">
                      <path id="Path_14118" data-name="Path 14118" d="M264.622,393.177c.11.081-.189.646-.164,1.39,0,.745.323,1.3.215,1.383-.084.1-.68-.447-.693-1.374S264.534,393.08,264.622,393.177Z" transform="translate(-263.979 -393.166)" fill="#263238"/>
                    </g>
                  </g>
                </g>
              </g>
            </g>
            <g id="Group_11642" data-name="Group 11642" transform="translate(25.606 9.022)">
              <g id="Group_11641" data-name="Group 11641">
                <g id="Group_11640" data-name="Group 11640">
                  <g id="Group_11639" data-name="Group 11639">
                    <g id="Group_11638" data-name="Group 11638">
                      <path id="Path_14119" data-name="Path 14119" d="M270.086,394.241c-.076.1-.668-.293-.89-1.093s.069-1.446.188-1.4.079.613.272,1.267C269.833,393.677,270.181,394.142,270.086,394.241Z" transform="translate(-269.112 -391.749)" fill="#263238"/>
                    </g>
                  </g>
                </g>
              </g>
            </g>
            <g id="Group_11647" data-name="Group 11647" transform="translate(15.481 8.521)">
              <g id="Group_11646" data-name="Group 11646">
                <g id="Group_11645" data-name="Group 11645">
                  <g id="Group_11644" data-name="Group 11644">
                    <g id="Group_11643" data-name="Group 11643">
                      <path id="Path_14120" data-name="Path 14120" d="M255.217,391c.038.133-.564.4-1.118.945s-.855,1.126-.985,1.083c-.125-.023-.009-.793.653-1.427S255.2,390.879,255.217,391Z" transform="translate(-253.07 -390.956)" fill="#263238"/>
                    </g>
                  </g>
                </g>
              </g>
            </g>
          </g>
          <g id="Group_11652" data-name="Group 11652" transform="translate(1.986 2.246)" opacity="0.3">
            <g id="Group_11651" data-name="Group 11651">
              <g id="Group_11650" data-name="Group 11650">
                <g id="Group_11649" data-name="Group 11649">
                  <path id="Path_14121" data-name="Path 14121" d="M242.169,381.013l1.614,2.017-10.568,8.91-1.529-1.753Z" transform="translate(-231.687 -381.013)"/>
                </g>
              </g>
            </g>
          </g>
          <g id="Group_11657" data-name="Group 11657" transform="translate(11.316 6.097)">
            <g id="Group_11656" data-name="Group 11656">
              <g id="Group_11655" data-name="Group 11655">
                <g id="Group_11654" data-name="Group 11654">
                  <g id="Group_11653" data-name="Group 11653">
                    <path id="Path_14122" data-name="Path 14122" d="M250.916,387.336c.038.042-.319.46-1.074.913a6.353,6.353,0,0,1-1.412.617,6.721,6.721,0,0,1-.894.2,1.749,1.749,0,0,1-.538.026.6.6,0,0,1-.524-.514.753.753,0,0,1,.252-.63,1.865,1.865,0,0,1,.449-.289,5.09,5.09,0,0,1,.86-.343,4.97,4.97,0,0,1,1.541-.2,2.353,2.353,0,0,1,1.373.328c-.018.075-.539-.044-1.368.01a5.614,5.614,0,0,0-1.414.281,5.183,5.183,0,0,0-.776.338c-.277.134-.47.3-.442.448.012.057.022.074.126.1a1.416,1.416,0,0,0,.394-.02,7.342,7.342,0,0,0,.842-.162,7.8,7.8,0,0,0,1.373-.491A9.77,9.77,0,0,1,250.916,387.336Z" transform="translate(-246.47 -387.115)" fill="#263238"/>
                  </g>
                </g>
              </g>
            </g>
          </g>
          <g id="Group_11662" data-name="Group 11662" transform="translate(13.39 2.343)">
            <g id="Group_11661" data-name="Group 11661">
              <g id="Group_11660" data-name="Group 11660">
                <g id="Group_11659" data-name="Group 11659">
                  <g id="Group_11658" data-name="Group 11658">
                    <path id="Path_14123" data-name="Path 14123" d="M252.121,385.408c-.023.047-.55-.148-1.168-.79a4.549,4.549,0,0,1-1.144-2.178,1.164,1.164,0,0,1,.218-1.125.659.659,0,0,1,.7-.085,1.93,1.93,0,0,1,.446.3,3.147,3.147,0,0,1,.618.719,3.238,3.238,0,0,1,.492,1.5,1.814,1.814,0,0,1-.309,1.381,11.729,11.729,0,0,0-.027-1.34,3.25,3.25,0,0,0-.524-1.294,2.926,2.926,0,0,0-.55-.6c-.228-.2-.47-.308-.535-.211a.8.8,0,0,0-.073.671,4.673,4.673,0,0,0,.232.806,5.074,5.074,0,0,0,.709,1.245C251.718,385.049,252.164,385.343,252.121,385.408Z" transform="translate(-249.757 -381.166)" fill="#263238"/>
                  </g>
                </g>
              </g>
            </g>
          </g>
        </g>
        <g id="Group_11712" data-name="Group 11712" transform="translate(111.68 105.848)">
          <g id="Group_11697" data-name="Group 11697">
            <g id="Group_11667" data-name="Group 11667">
              <g id="Group_11666" data-name="Group 11666">
                <g id="Group_11665" data-name="Group 11665">
                  <g id="Group_11664" data-name="Group 11664">
                    <path id="Path_14124" data-name="Path 14124" d="M221.49,432.748l-.562,14.821s14.876,5.549,15.039,8.3l-28.777-.057-.072-23.129Z" transform="translate(-207.119 -432.68)" fill="#7d0d35"/>
                  </g>
                </g>
              </g>
            </g>
            <g id="Group_11672" data-name="Group 11672" transform="translate(4.074 13.576)" opacity="0.6">
              <g id="Group_11671" data-name="Group 11671">
                <g id="Group_11670" data-name="Group 11670">
                  <g id="Group_11669" data-name="Group 11669">
                    <g id="Group_11668" data-name="Group 11668">
                      <path id="Path_14125" data-name="Path 14125" d="M214.414,454.239a1.175,1.175,0,0,0-.815,1.339,1.13,1.13,0,0,0,1.321.82,1.24,1.24,0,0,0,.856-1.423,1.173,1.173,0,0,0-1.469-.7" transform="translate(-213.574 -454.191)" fill="#fff"/>
                    </g>
                  </g>
                </g>
              </g>
            </g>
            <g id="Group_11676" data-name="Group 11676" transform="translate(0.072 20.798)" opacity="0.6">
              <g id="Group_11675" data-name="Group 11675">
                <g id="Group_11674" data-name="Group 11674">
                  <g id="Group_11673" data-name="Group 11673">
                    <path id="Path_14126" data-name="Path 14126" d="M207.233,467.965l.084-2.331,27.559.926s1.28.56,1.133,1.462Z" transform="translate(-207.233 -465.634)" fill="#fff"/>
                  </g>
                </g>
              </g>
            </g>
            <g id="Group_11681" data-name="Group 11681" transform="translate(11.65 14.612)">
              <g id="Group_11680" data-name="Group 11680">
                <g id="Group_11679" data-name="Group 11679">
                  <g id="Group_11678" data-name="Group 11678">
                    <g id="Group_11677" data-name="Group 11677">
                      <path id="Path_14127" data-name="Path 14127" d="M228.2,455.964c-.005.141-.707.2-1.4.653-.7.432-1.062,1.04-1.191.984-.129-.028.082-.867.93-1.4S228.235,455.835,228.2,455.964Z" transform="translate(-225.578 -455.833)" fill="#263238"/>
                    </g>
                  </g>
                </g>
              </g>
            </g>
            <g id="Group_11686" data-name="Group 11686" transform="translate(15.381 15.94)">
              <g id="Group_11685" data-name="Group 11685">
                <g id="Group_11684" data-name="Group 11684">
                  <g id="Group_11683" data-name="Group 11683">
                    <g id="Group_11682" data-name="Group 11682">
                      <path id="Path_14128" data-name="Path 14128" d="M233.4,457.994c.032.136-.577.374-1.056.967-.5.579-.618,1.222-.757,1.216-.132.022-.228-.8.381-1.528S233.4,457.86,233.4,457.994Z" transform="translate(-231.489 -457.937)" fill="#263238"/>
                    </g>
                  </g>
                </g>
              </g>
            </g>
            <g id="Group_11691" data-name="Group 11691" transform="translate(18.831 17.191)">
              <g id="Group_11690" data-name="Group 11690">
                <g id="Group_11689" data-name="Group 11689">
                  <g id="Group_11688" data-name="Group 11688">
                    <g id="Group_11687" data-name="Group 11687">
                      <path id="Path_14129" data-name="Path 14129" d="M237.124,462.34c-.127.03-.322-.672.041-1.441s1.02-1.074,1.079-.957c.079.115-.348.528-.636,1.163C237.305,461.734,237.264,462.327,237.124,462.34Z" transform="translate(-236.956 -459.918)" fill="#263238"/>
                    </g>
                  </g>
                </g>
              </g>
            </g>
            <g id="Group_11696" data-name="Group 11696" transform="translate(11.037 10.844)">
              <g id="Group_11695" data-name="Group 11695">
                <g id="Group_11694" data-name="Group 11694">
                  <g id="Group_11693" data-name="Group 11693">
                    <g id="Group_11692" data-name="Group 11692">
                      <path id="Path_14130" data-name="Path 14130" d="M227.6,450.369c-.059.128-.7-.068-1.5-.015-.8.037-1.414.3-1.487.181-.081-.1.523-.62,1.46-.669S227.669,450.259,227.6,450.369Z" transform="translate(-224.607 -449.861)" fill="#263238"/>
                    </g>
                  </g>
                </g>
              </g>
            </g>
          </g>
          <g id="Group_11701" data-name="Group 11701" transform="translate(0.004 3.003)" opacity="0.3">
            <g id="Group_11700" data-name="Group 11700">
              <g id="Group_11699" data-name="Group 11699">
                <g id="Group_11698" data-name="Group 11698">
                  <path id="Path_14131" data-name="Path 14131" d="M221.377,437.438l-.1,2.641-14.143-.157-.013-2.38Z" transform="translate(-207.125 -437.438)"/>
                </g>
              </g>
            </g>
          </g>
          <g id="Group_11706" data-name="Group 11706" transform="translate(9.715 6.034)">
            <g id="Group_11705" data-name="Group 11705">
              <g id="Group_11704" data-name="Group 11704">
                <g id="Group_11703" data-name="Group 11703">
                  <g id="Group_11702" data-name="Group 11702">
                    <path id="Path_14132" data-name="Path 14132" d="M226.884,444.566a2.7,2.7,0,0,1-1.441-.011,6.471,6.471,0,0,1-1.507-.466,6.767,6.767,0,0,1-.827-.441,1.765,1.765,0,0,1-.434-.34.613.613,0,0,1-.063-.748.772.772,0,0,1,.617-.32,1.885,1.885,0,0,1,.54.076,5.182,5.182,0,0,1,.895.309,5.1,5.1,0,0,1,1.328.875c.666.62.893,1.145.844,1.172-.063.047-.387-.394-1.066-.906a5.772,5.772,0,0,0-1.284-.727,5.459,5.459,0,0,0-.827-.257c-.3-.08-.564-.083-.642.052-.028.052-.032.072.031.162a1.471,1.471,0,0,0,.32.248,7.531,7.531,0,0,0,.76.437,7.955,7.955,0,0,0,1.392.536A9.943,9.943,0,0,1,226.884,444.566Z" transform="translate(-222.512 -442.24)" fill="#263238"/>
                  </g>
                </g>
              </g>
            </g>
          </g>
          <g id="Group_11711" data-name="Group 11711" transform="translate(13.521 3.99)">
            <g id="Group_11710" data-name="Group 11710">
              <g id="Group_11709" data-name="Group 11709">
                <g id="Group_11708" data-name="Group 11708">
                  <g id="Group_11707" data-name="Group 11707">
                    <path id="Path_14133" data-name="Path 14133" d="M228.926,443.572a2.3,2.3,0,0,1-.377-1.392,4.652,4.652,0,0,1,.569-2.452,1.19,1.19,0,0,1,.921-.726.673.673,0,0,1,.6.4,1.947,1.947,0,0,1,.147.528,3.206,3.206,0,0,1,0,.971,3.309,3.309,0,0,1-.618,1.488c-.564.745-1.151.911-1.162.864-.047-.071.444-.341.875-1.057a3.316,3.316,0,0,0,.458-1.353,2.965,2.965,0,0,0-.025-.832c-.044-.306-.158-.554-.273-.522-.143,0-.387.227-.5.471a4.776,4.776,0,0,0-.358.781,5.159,5.159,0,0,0-.282,1.437C228.854,443.025,229,443.551,228.926,443.572Z" transform="translate(-228.543 -439.001)" fill="#263238"/>
                  </g>
                </g>
              </g>
            </g>
          </g>
        </g>
        <g id="Group_11730" data-name="Group 11730" transform="translate(51.164 23.864)">
          <g id="Group_11713" data-name="Group 11713" transform="translate(60.294 11.974)">
            <path id="Path_14134" data-name="Path 14134" d="M206.768,321.748l28.478,37.845-13.32,11.441L208.212,353.1Z" transform="translate(-206.768 -321.748)" fill="#263238"/>
          </g>
          <g id="Group_11714" data-name="Group 11714">
            <path id="Path_14135" data-name="Path 14135" d="M111.233,316.559s45.815-13.956,50.012-13.781,12.162,15.329,12.162,15.329l-12.862-.465c-3.3,8.1-9.4,16.431-16.263,24.831l-26.3-1.224Z" transform="translate(-111.233 -302.776)" fill="#263238"/>
          </g>
          <g id="Group_11716" data-name="Group 11716" transform="translate(16.322 2.751)">
            <g id="Group_11715" data-name="Group 11715">
              <path id="Path_14136" data-name="Path 14136" d="M158.224,307.14c.026.087-4.684,1.563-10.517,3.3s-10.586,3.069-10.612,2.983,4.682-1.563,10.518-3.3S158.2,307.053,158.224,307.14Z" transform="translate(-137.095 -307.136)" fill="#263238"/>
            </g>
          </g>
          <g id="Group_11717" data-name="Group 11717" transform="translate(32.224 14.621)">
            <path id="Path_14137" data-name="Path 14137" d="M178.165,325.943h12.863a15.128,15.128,0,0,1,14.27,10.105h0a23.363,23.363,0,0,1,1.3,8.886l-1,52.329H188.277l-.31-16.723-2.189-31.793-14.99.634-8.495-.529Z" transform="translate(-162.292 -325.943)" fill="#263238"/>
          </g>
          <g id="Group_11719" data-name="Group 11719" transform="translate(32.224 14.36)">
            <g id="Group_11718" data-name="Group 11718">
              <path id="Path_14138" data-name="Path 14138" d="M178.546,325.53a7.384,7.384,0,0,1-.242,1.106,29.358,29.358,0,0,1-.909,2.951,30.066,30.066,0,0,1-1.91,4.169,33.928,33.928,0,0,1-3.132,4.66,83.715,83.715,0,0,1-7,7.394l-2.222,2.135a7.555,7.555,0,0,1-.843.755,7.415,7.415,0,0,1,.752-.845c.5-.531,1.235-1.284,2.149-2.21,1.816-1.861,4.413-4.356,6.9-7.434a33.741,33.741,0,0,0,5.082-8.706c.456-1.212.806-2.2,1-2.9A7.506,7.506,0,0,1,178.546,325.53Z" transform="translate(-162.291 -325.53)" fill="#455a64"/>
            </g>
          </g>
          <g id="Group_11721" data-name="Group 11721" transform="translate(48.272 14.425)">
            <g id="Group_11720" data-name="Group 11720">
              <path id="Path_14139" data-name="Path 14139" d="M203.659,326.181c-.006.05-.9-.032-2.337-.112s-3.432-.142-5.632-.1-4.191.172-5.632.27a18.967,18.967,0,0,1-2.338.12,2.316,2.316,0,0,1,.617-.131c.4-.064.981-.139,1.7-.22,1.439-.158,3.435-.326,5.646-.368a49.145,49.145,0,0,1,5.657.192c.721.069,1.3.145,1.7.21A2.37,2.37,0,0,1,203.659,326.181Z" transform="translate(-187.719 -325.633)" fill="#455a64"/>
            </g>
          </g>
          <g id="Group_11723" data-name="Group 11723" transform="translate(55.427 33.452)">
            <g id="Group_11722" data-name="Group 11722">
              <path id="Path_14140" data-name="Path 14140" d="M201.766,398.71a2.2,2.2,0,0,1-.047-.436c-.018-.319-.041-.735-.07-1.252-.05-1.126-.12-2.69-.206-4.605-.17-3.889-.406-9.26-.778-15.186s-.815-11.286-1.133-15.166c-.156-1.911-.283-3.471-.374-4.595-.037-.516-.066-.932-.088-1.251a2.179,2.179,0,0,1-.008-.438,2.161,2.161,0,0,1,.074.432c.038.318.088.731.15,1.245.117,1.121.279,2.678.477,4.586.378,3.875.855,9.234,1.23,15.166s.571,11.306.682,15.2c.042,1.917.076,3.483.1,4.61,0,.518.006.934.008,1.254A2.2,2.2,0,0,1,201.766,398.71Z" transform="translate(-199.056 -355.781)" fill="#263238"/>
            </g>
          </g>
          <g id="Group_11725" data-name="Group 11725" transform="translate(75.911 31.596)">
            <g id="Group_11724" data-name="Group 11724">
              <path id="Path_14141" data-name="Path 14141" d="M232.158,352.839c.091,0,.03,11.992-.136,26.778s-.375,26.778-.466,26.777-.03-11.989.137-26.78S232.067,352.838,232.158,352.839Z" transform="translate(-231.513 -352.839)" fill="#455a64"/>
            </g>
          </g>
          <g id="Group_11727" data-name="Group 11727" transform="translate(55.502 29.629)">
            <g id="Group_11726" data-name="Group 11726">
              <path id="Path_14142" data-name="Path 14142" d="M206.1,349.735a30.142,30.142,0,0,0-3.693,1.744,30.245,30.245,0,0,0-3.228,2.5,3.493,3.493,0,0,1,.757-.952,12.068,12.068,0,0,1,4.972-3.051A3.5,3.5,0,0,1,206.1,349.735Z" transform="translate(-199.174 -349.724)" fill="#263238"/>
            </g>
          </g>
          <g id="Group_11729" data-name="Group 11729" transform="translate(32.224 15.172)" opacity="0.3">
            <g id="Group_11728" data-name="Group 11728">
              <path id="Path_14143" data-name="Path 14143" d="M162.292,349.18a15.031,15.031,0,0,0,10.32-2.292,13.852,13.852,0,0,0,6.058-8.232c.382-1.508.5-3.07.879-4.578a6.911,6.911,0,0,1,2.342-3.96c1.466-1.092,5.073-1.787,6.148-3.246,0-.22-4.276.275-5.711.354-1.562.085-4.182.482-4.128.3a39.317,39.317,0,0,1-1.51,4.463c-3.123,5.357-9.971,13.228-14.4,17.192" transform="translate(-162.292 -326.816)"/>
            </g>
          </g>
        </g>
        <g id="Group_11747" data-name="Group 11747">
          <g id="Group_11731" data-name="Group 11731" transform="translate(11.989 98.442)">
            <path id="Path_14144" data-name="Path 14144" d="M49.161,420.945,54.029,452.8h4.832l-2.379-31.731Z" transform="translate(-49.161 -420.945)" fill="#263238"/>
          </g>
          <g id="Group_11732" data-name="Group 11732" transform="translate(97.688 98.442)">
            <path id="Path_14145" data-name="Path 14145" d="M184.949,421.065V452.8h5.1l1.9-31.852Z" transform="translate(-184.949 -420.945)" fill="#263238"/>
          </g>
          <g id="Group_11740" data-name="Group 11740">
            <g id="Group_11733" data-name="Group 11733">
              <path id="Path_14146" data-name="Path 14146" d="M41.29,264.965s-6.822.271-8.911,3.132c-3.683,5.043-1.613,9.416-1.818,10.908s11.592,84.4,11.592,84.4h4.857l87.84.81,4.215-10.249-2.027-27.714-23.485.1s-9.617-27.606-18.025-29.451c-5.694-1.25-19.068-.807-27.11-.391A11.236,11.236,0,0,1,58.4,291.4Z" transform="translate(-30.165 -264.965)" fill="#455a64"/>
            </g>
            <g id="Group_11735" data-name="Group 11735" transform="translate(4.68 1.919)">
              <g id="Group_11734" data-name="Group 11734">
                <path id="Path_14147" data-name="Path 14147" d="M121.876,361.271s-.483.062-1.418.107c-.933.027-2.311.07-4.092.085-3.561.049-8.732.065-15.172.059-12.88-.01-30.833-.112-51.131-.288h-.131l-.027-.127c-.365-1.738-.74-3.522-1.12-5.336-.364-1.818-.735-3.665-1.108-5.527-4.41-22.481-6.995-43.078-8.384-58.016-.7-7.471-1.117-13.527-1.382-17.714-.114-2.087-.2-3.71-.265-4.824-.025-.544-.045-.961-.059-1.255s-.009-.428-.009-.428.02.144.042.426.052.71.092,1.253c.076,1.113.186,2.734.327,4.819.3,4.184.757,10.236,1.486,17.7,1.448,14.927,4.068,35.507,8.475,57.975.372,1.861.742,3.708,1.106,5.525.38,1.813.754,3.6,1.117,5.334l-.157-.129,51.128.4,15.17.04,4.09-.028c.466,0,.818-.035,1.057-.039S121.876,361.271,121.876,361.271Z" transform="translate(-37.58 -268.005)" fill="#263238"/>
              </g>
            </g>
            <g id="Group_11737" data-name="Group 11737" transform="translate(83.793 61.068)">
              <g id="Group_11736" data-name="Group 11736">
                <path id="Path_14148" data-name="Path 14148" d="M167.191,399.758a1.841,1.841,0,0,1,.037-.394c.043-.291.1-.661.166-1.119.08-.485.174-1.077.25-1.771s.2-1.477.263-2.352c.08-.873.169-1.83.206-2.86.069-1.029.073-2.131.088-3.289a70.234,70.234,0,0,0-.439-7.522,73.406,73.406,0,0,0-1.3-7.425c-.531-2.258-1.1-4.267-1.647-5.935-.252-.841-.535-1.582-.759-2.242s-.436-1.222-.612-1.681l-.392-1.061a1.769,1.769,0,0,1-.116-.379,1.846,1.846,0,0,1,.177.353l.449,1.039c.2.451.427,1.007.666,1.664s.54,1.394.807,2.234c.574,1.664,1.173,3.675,1.722,5.938a68.958,68.958,0,0,1,1.331,7.456,66.178,66.178,0,0,1,.416,7.561c-.024,1.164-.037,2.27-.119,3.3-.049,1.034-.152,1.994-.246,2.869-.077.877-.216,1.662-.313,2.354s-.207,1.284-.305,1.767c-.093.454-.169.822-.227,1.109A1.736,1.736,0,0,1,167.191,399.758Z" transform="translate(-162.933 -361.727)" fill="#263238"/>
              </g>
            </g>
            <g id="Group_11739" data-name="Group 11739" transform="translate(23.683 31.037)">
              <g id="Group_11738" data-name="Group 11738">
                <path id="Path_14149" data-name="Path 14149" d="M67.691,322.806a2.425,2.425,0,0,1,.355-.3l1.06-.809.772-.579c.295-.192.627-.383.979-.6a23.282,23.282,0,0,1,2.441-1.364l1.465-.711c.507-.252,1.068-.436,1.632-.669.571-.214,1.147-.475,1.767-.67l1.91-.6a54.735,54.735,0,0,1,8.721-1.814,63.543,63.543,0,0,1,8.892-.54c1.371-.023,2.67.087,3.887.132,1.213.112,2.346.191,3.372.336a43.717,43.717,0,0,1,4.823.885l1.285.356a2.37,2.37,0,0,1,.441.146,2.507,2.507,0,0,1-.459-.082l-1.3-.3c-1.128-.239-2.773-.543-4.822-.779-1.023-.13-2.153-.2-3.361-.295-1.212-.033-2.507-.133-3.871-.1a65.989,65.989,0,0,0-8.848.562,56.539,56.539,0,0,0-8.677,1.779l-1.9.587c-.618.188-1.192.443-1.761.649-.562.226-1.123.4-1.629.647l-1.464.688a24.437,24.437,0,0,0-2.449,1.313c-.354.206-.69.388-.988.572l-.784.553-1.093.757A2.5,2.5,0,0,1,67.691,322.806Z" transform="translate(-67.69 -314.143)" fill="#263238"/>
              </g>
            </g>
          </g>
          <g id="Group_11742" data-name="Group 11742" transform="translate(8.299 44.187)">
            <g id="Group_11741" data-name="Group 11741">
              <path id="Path_14150" data-name="Path 14150" d="M110.9,334.979a1,1,0,0,1-.06.208c-.047.134-.11.339-.213.6a8.379,8.379,0,0,1-1.3,2.068,10.561,10.561,0,0,1-3.035,2.383,14.438,14.438,0,0,1-2.237.926,14.623,14.623,0,0,1-2.659.544,21.973,21.973,0,0,1-6.189-.35c-2.2-.393-4.493-1.027-6.919-1.611a30.632,30.632,0,0,0-7.714-1.019,14.665,14.665,0,0,0-4.042.62,12.667,12.667,0,0,0-3.744,1.9,21.988,21.988,0,0,0-5.482,6.243c-1.442,2.295-2.586,4.661-3.8,6.849a34.185,34.185,0,0,1-3.95,5.917,14.612,14.612,0,0,1-4.856,3.837,12.424,12.424,0,0,1-4.972,1.171,9.242,9.242,0,0,1-3.789-.709,8.206,8.206,0,0,1-1.243-.671c-.325-.249-.6-.46-.807-.648l-.437-.461a1.018,1.018,0,0,1-.14-.165,1.11,1.11,0,0,1,.165.141l.457.435c.211.179.49.379.816.616a8.464,8.464,0,0,0,1.24.635,9.247,9.247,0,0,0,3.735.642,12.313,12.313,0,0,0,4.877-1.2,14.438,14.438,0,0,0,4.749-3.8,34.24,34.24,0,0,0,3.891-5.886c1.206-2.183,2.345-4.556,3.8-6.874a22.209,22.209,0,0,1,5.561-6.338,12.948,12.948,0,0,1,3.841-1.944,14.946,14.946,0,0,1,4.131-.63,30.719,30.719,0,0,1,7.791,1.046c2.432.593,4.718,1.235,6.9,1.637a21.931,21.931,0,0,0,6.116.388,13.424,13.424,0,0,0,4.834-1.4,10.626,10.626,0,0,0,3.024-2.3A9.131,9.131,0,0,0,110.9,334.979Z" transform="translate(-43.314 -334.978)" fill="#fff"/>
            </g>
          </g>
          <g id="Group_11744" data-name="Group 11744" transform="translate(10.458 78.519)">
            <g id="Group_11743" data-name="Group 11743">
              <path id="Path_14151" data-name="Path 14151" d="M144.265,395.419s-.093.028-.277.067l-.815.163a11.882,11.882,0,0,0-1.287.4,6.416,6.416,0,0,0-.788.344,7.354,7.354,0,0,0-.872.445,21.825,21.825,0,0,0-4.021,3.039c-1.464,1.321-3.029,2.945-4.949,4.542a18.1,18.1,0,0,1-3.243,2.2,13.814,13.814,0,0,1-1.922.834l-1.043.28a9.529,9.529,0,0,1-1.083.187,13.28,13.28,0,0,1-4.55-.231,18.978,18.978,0,0,1-4.526-1.683,39.423,39.423,0,0,1-8.379-6.042A70.789,70.789,0,0,0,98,392.94a21.345,21.345,0,0,0-4.98-2.483,14.275,14.275,0,0,0-5.314-.737,15.759,15.759,0,0,0-5.047,1.21,31.028,31.028,0,0,0-4.448,2.328c-2.79,1.724-5.329,3.567-7.91,4.973a31.979,31.979,0,0,1-7.6,2.932,32.436,32.436,0,0,1-11.727.707,25.538,25.538,0,0,1-4.235-.857s.1.011.28.049l.814.174c.715.152,1.777.346,3.156.507a32.927,32.927,0,0,0,11.656-.805,31.962,31.962,0,0,0,7.525-2.945c2.555-1.4,5.082-3.251,7.882-4.992a31.24,31.24,0,0,1,4.487-2.36,16.029,16.029,0,0,1,5.148-1.241,14.582,14.582,0,0,1,5.435.747,21.637,21.637,0,0,1,5.057,2.518,70.514,70.514,0,0,1,8.552,7.064,39.327,39.327,0,0,0,8.3,6.01,18.716,18.716,0,0,0,4.453,1.671,13.028,13.028,0,0,0,4.451.243,9.1,9.1,0,0,0,1.058-.179l1.021-.268a13.608,13.608,0,0,0,1.886-.809,17.95,17.95,0,0,0,3.212-2.158c1.915-1.573,3.492-3.186,4.973-4.5a21.5,21.5,0,0,1,4.082-3.014,7.5,7.5,0,0,1,.887-.436,6.357,6.357,0,0,1,.8-.333,10.957,10.957,0,0,1,1.306-.372l.825-.133C144.169,395.424,144.265,395.419,144.265,395.419Z" transform="translate(-46.735 -389.376)" fill="#fff"/>
            </g>
          </g>
          <g id="Group_11746" data-name="Group 11746" transform="translate(3.9 15.623)">
            <g id="Group_11745" data-name="Group 11745">
              <path id="Path_14152" data-name="Path 14152" d="M52.6,289.72a3.267,3.267,0,0,1-.172.8,10.993,10.993,0,0,1-.843,2.061,12.152,12.152,0,0,1-12.315,6.432,11,11,0,0,1-2.173-.485,3.3,3.3,0,0,1-.753-.315,22.107,22.107,0,0,0,2.951.569,12.379,12.379,0,0,0,12.086-6.312A22.155,22.155,0,0,0,52.6,289.72Z" transform="translate(-36.344 -289.72)" fill="#fff"/>
            </g>
          </g>
        </g>
      </g>
    </g>
    <g id="Group_11766" data-name="Group 11766" transform="translate(121.222 110.457)">
      <g id="Group_11753" data-name="Group 11753" transform="translate(0)">
        <g id="Group_11750" data-name="Group 11750" transform="translate(0.167 0.164)">
          <rect id="Rectangle_348" data-name="Rectangle 348" width="128.078" height="41.061" rx="6.943" fill="#fff"/>
        </g>
        <g id="Group_11752" data-name="Group 11752">
          <g id="Group_11751" data-name="Group 11751">
            <path id="Path_14153" data-name="Path 14153" d="M302.647,199.284a7.948,7.948,0,0,0,.846-.1,4.374,4.374,0,0,0,2.17-1.152,4.3,4.3,0,0,0,1.01-1.511,5.182,5.182,0,0,0,.307-2.172c0-1.612-.009-3.47-.015-5.561-.008-4.186-.017-9.305-.028-15.248q-.006-4.458-.013-9.52a10.219,10.219,0,0,0-.153-2.522,4.266,4.266,0,0,0-3.741-3.141c-.892-.038-1.831-.009-2.761-.017l-116.928.049a4.214,4.214,0,0,0-4.2,3.741c-.057.668-.016,1.4-.028,2.1q0,4.229,0,8.4,0,8.34,0,16.422,0,2.019,0,4.02c0,.664-.008,1.338.008,1.99a4.2,4.2,0,0,0,3.459,4,12.567,12.567,0,0,0,1.925.072h1.947l15.2.005,52.568.035,35.439.052,9.635.031,2.506.016c.564.005.853.016.853.016s-.289.011-.853.017l-2.506.016-9.635.03-35.439.052-52.568.035-15.2.006H184.5a12.668,12.668,0,0,1-1.981-.076,4.519,4.519,0,0,1-3.722-4.3c-.017-.675-.005-1.332-.009-2q0-2,0-4.02,0-8.075,0-16.422,0-4.17,0-8.4c.014-.713-.03-1.394.031-2.135a4.546,4.546,0,0,1,4.523-4.033l116.928.048c.939.01,1.85-.018,2.781.023a4.488,4.488,0,0,1,3.929,3.311,4.734,4.734,0,0,1,.156,1.3q0,.641,0,1.273-.008,5.054-.013,9.52c-.011,5.943-.021,11.062-.028,15.248-.006,2.092-.011,3.95-.015,5.561a5.26,5.26,0,0,1-.328,2.2,4.406,4.406,0,0,1-3.25,2.666,3.912,3.912,0,0,1-.637.064C302.72,199.286,302.647,199.284,302.647,199.284Z" transform="translate(-178.784 -158.059)" fill="#263238"/>
          </g>
        </g>
      </g>
      <g id="Group_11756" data-name="Group 11756" transform="translate(118.866 5.241)">
        <g id="Group_11754" data-name="Group 11754" transform="translate(0 0.013)">
          <path id="Path_14154" data-name="Path 14154" d="M367.283,169.723a.158.158,0,0,1-.109-.272l3.156-3.023a.158.158,0,0,1,.218.228l-3.156,3.022A.154.154,0,0,1,367.283,169.723Z" transform="translate(-367.124 -166.384)" fill="#263238"/>
        </g>
        <g id="Group_11755" data-name="Group 11755" transform="translate(0.016)">
          <path id="Path_14155" data-name="Path 14155" d="M370.432,169.728a.158.158,0,0,1-.11-.045l-3.124-3.049a.158.158,0,1,1,.221-.225l3.124,3.048a.158.158,0,0,1-.11.271Z" transform="translate(-367.15 -166.364)" fill="#263238"/>
        </g>
      </g>
      <g id="Group_11759" data-name="Group 11759" transform="translate(9.415 9.526)">
        <g id="Group_11757" data-name="Group 11757">
          <path id="Path_14156" data-name="Path 14156" d="M212.055,192.3l-1.288-1.824a6.521,6.521,0,0,1-1.193-3.758l0-4.1a6.689,6.689,0,0,0-5.672-6.609v-1.956a.9.9,0,0,0-.9-.9h0a.9.9,0,0,0-.9.9v1.926a6.688,6.688,0,0,0-5.9,6.643l0,4.246a6.524,6.524,0,0,1-1.39,4.026l-1.106,1.411Z" transform="translate(-193.701 -173.153)" fill="#7d0d35"/>
        </g>
        <g id="Group_11758" data-name="Group 11758" transform="translate(6.624 20.41)">
          <path id="Path_14157" data-name="Path 14157" d="M205.783,207.209a2.9,2.9,0,0,0,3-.516,2.814,2.814,0,0,0,.758-1.163l-5.346-.038A2.907,2.907,0,0,0,205.783,207.209Z" transform="translate(-204.196 -205.492)" fill="#7d0d35"/>
        </g>
      </g>
      <g id="Group_11761" data-name="Group 11761" transform="translate(35.737 13.872)">
        <g id="Group_11760" data-name="Group 11760">
          <path id="Path_14158" data-name="Path 14158" d="M299.495,180.2c0,.091-14.347.164-32.041.164s-32.045-.073-32.045-.164,14.344-.165,32.045-.165S299.495,180.113,299.495,180.2Z" transform="translate(-235.409 -180.039)" fill="#263238"/>
        </g>
      </g>
      <g id="Group_11763" data-name="Group 11763" transform="translate(35.737 21.628)">
        <g id="Group_11762" data-name="Group 11762">
          <path id="Path_14159" data-name="Path 14159" d="M314.6,192.492c0,.091-17.728.165-39.592.165s-39.6-.074-39.6-.165,17.724-.164,39.6-.164S314.6,192.4,314.6,192.492Z" transform="translate(-235.409 -192.328)" fill="#e0e0e0"/>
        </g>
      </g>
      <g id="Group_11765" data-name="Group 11765" transform="translate(35.737 26.272)">
        <g id="Group_11764" data-name="Group 11764">
          <path id="Path_14160" data-name="Path 14160" d="M314.6,199.852c0,.09-17.728.164-39.592.164s-39.6-.074-39.6-.164,17.724-.165,39.6-.165S314.6,199.761,314.6,199.852Z" transform="translate(-235.409 -199.687)" fill="#e0e0e0"/>
        </g>
      </g>
    </g>
    <g id="Group_11783" data-name="Group 11783" transform="translate(140.811 157.928)">
      <g id="Group_11770" data-name="Group 11770">
        <g id="Group_11767" data-name="Group 11767" transform="translate(0.166 0.164)">
          <rect id="Rectangle_349" data-name="Rectangle 349" width="87.999" height="28.212" rx="6.943" fill="#fafafa"/>
        </g>
        <g id="Group_11769" data-name="Group 11769">
          <g id="Group_11768" data-name="Group 11768">
            <path id="Path_14161" data-name="Path 14161" d="M293.605,261.652c0-.011.2-.008.577-.059a4.167,4.167,0,0,0,1.589-.555,4.335,4.335,0,0,0,2.157-3.711q0-.946,0-2.013c-.008-2.848-.017-6.328-.028-10.367q-.007-3.032-.013-6.473a6.417,6.417,0,0,0-.139-1.7,4.265,4.265,0,0,0-3.871-3.2l-79.5.035a4.227,4.227,0,0,0-2.593.892,4.185,4.185,0,0,0-1.493,2.279,4.9,4.9,0,0,0-.137,1.382v4.276q0,5.671,0,11.166,0,1.373,0,2.733c0,.45-.011.914.02,1.341a4.581,4.581,0,0,0,.319,1.257A4.261,4.261,0,0,0,214.6,261.5l10.332.006,35.744.035,24.1.052,6.552.031,1.7.016c.384.005.58.016.58.016s-.2.011-.58.017l-1.7.016-6.552.031-24.1.052-35.744.035-10.332.006a4.577,4.577,0,0,1-4.4-2.752,4.9,4.9,0,0,1-.345-1.351c-.035-.474-.018-.916-.022-1.371q0-1.36,0-2.733,0-5.491,0-11.166,0-1.418,0-2.846v-1.431a5.222,5.222,0,0,1,.146-1.464,4.515,4.515,0,0,1,1.609-2.457,4.562,4.562,0,0,1,2.8-.962l79.512.062a4.483,4.483,0,0,1,4.064,3.378,6.608,6.608,0,0,1,.14,1.758q-.007,3.436-.013,6.473c-.011,4.039-.02,7.52-.028,10.367q-.006,1.067-.011,2.014A4.409,4.409,0,0,1,295.8,261.1a4.091,4.091,0,0,1-1.617.531A3.563,3.563,0,0,1,293.605,261.652Z" transform="translate(-209.822 -233.276)" fill="#263238"/>
          </g>
        </g>
      </g>
      <g id="Group_11773" data-name="Group 11773" transform="translate(81.671 3.604)">
        <g id="Group_11771" data-name="Group 11771" transform="translate(0 0.009)">
          <path id="Path_14162" data-name="Path 14162" d="M339.387,241.392a.157.157,0,0,1-.109-.271l2.169-2.077a.158.158,0,0,1,.218.228l-2.168,2.077A.158.158,0,0,1,339.387,241.392Z" transform="translate(-339.229 -239)" fill="#263238"/>
        </g>
        <g id="Group_11772" data-name="Group 11772" transform="translate(0.011)">
          <path id="Path_14163" data-name="Path 14163" d="M341.551,241.4a.158.158,0,0,1-.11-.045l-2.146-2.095a.158.158,0,0,1,.22-.225l2.147,2.095a.158.158,0,0,1-.11.271Z" transform="translate(-339.246 -238.986)" fill="#263238"/>
        </g>
      </g>
      <g id="Group_11776" data-name="Group 11776" transform="translate(6.52 6.597)">
        <g id="Group_11774" data-name="Group 11774">
          <path id="Path_14164" data-name="Path 14164" d="M232.763,256.883l-.885-1.253a4.472,4.472,0,0,1-.82-2.582v-2.816a4.6,4.6,0,0,0-3.9-4.541v-1.344a.619.619,0,0,0-.619-.618h0a.619.619,0,0,0-.618.618v1.323a4.6,4.6,0,0,0-4.056,4.564v2.918a4.479,4.479,0,0,1-.955,2.766l-.76.969Z" transform="translate(-220.153 -243.729)" fill="#455a64"/>
        </g>
        <g id="Group_11775" data-name="Group 11775" transform="translate(4.551 14.023)">
          <path id="Path_14165" data-name="Path 14165" d="M228.454,267.128a1.994,1.994,0,0,0,2.063-.355,1.931,1.931,0,0,0,.521-.8l-3.673-.026A2,2,0,0,0,228.454,267.128Z" transform="translate(-227.364 -265.948)" fill="#455a64"/>
        </g>
      </g>
      <g id="Group_11778" data-name="Group 11778" transform="translate(24.605 9.531)">
        <g id="Group_11777" data-name="Group 11777">
          <path id="Path_14166" data-name="Path 14166" d="M292.841,248.543c0,.091-9.858.164-22.015.164s-22.017-.073-22.017-.164,9.856-.165,22.017-.165S292.841,248.452,292.841,248.543Z" transform="translate(-248.809 -248.378)" fill="#263238"/>
        </g>
      </g>
      <g id="Group_11780" data-name="Group 11780" transform="translate(24.605 14.86)">
        <g id="Group_11779" data-name="Group 11779">
          <path id="Path_14167" data-name="Path 14167" d="M303.217,256.986c0,.091-12.181.164-27.2.164s-27.205-.073-27.205-.164,12.178-.164,27.205-.164S303.217,256.9,303.217,256.986Z" transform="translate(-248.809 -256.822)" fill="#e0e0e0"/>
        </g>
      </g>
      <g id="Group_11782" data-name="Group 11782" transform="translate(24.605 18.051)">
        <g id="Group_11781" data-name="Group 11781">
          <path id="Path_14168" data-name="Path 14168" d="M303.217,262.042c0,.091-12.181.165-27.2.165s-27.205-.074-27.205-.165,12.178-.164,27.205-.164S303.217,261.952,303.217,262.042Z" transform="translate(-248.809 -261.878)" fill="#e0e0e0"/>
        </g>
      </g>
    </g>
    <g id="Group_11800" data-name="Group 11800" transform="translate(141.143 190.529)">
      <g id="Group_11787" data-name="Group 11787">
        <g id="Group_11784" data-name="Group 11784" transform="translate(0.165 0.165)">
          <rect id="Rectangle_350" data-name="Rectangle 350" width="87.335" height="27.999" rx="6.943" fill="#fafafa"/>
        </g>
        <g id="Group_11786" data-name="Group 11786">
          <g id="Group_11785" data-name="Group 11785">
            <path id="Path_14169" data-name="Path 14169" d="M293.467,313.1c0-.011.2-.008.572-.059a4.189,4.189,0,0,0,1.578-.546,4.339,4.339,0,0,0,2.17-3.668q0-.938,0-2c-.008-2.826-.017-6.279-.028-10.287q-.006-3.009-.013-6.423a6.374,6.374,0,0,0-.139-1.691,4.267,4.267,0,0,0-3.828-3.2l-78.876.032a4.234,4.234,0,0,0-4.076,3.13,4.608,4.608,0,0,0-.147,1.368V294q0,5.627,0,11.079,0,1.362,0,2.712c0,.447-.011.907.021,1.33a4.609,4.609,0,0,0,.316,1.247,4.253,4.253,0,0,0,4.064,2.569l10.252.006,35.465.035,23.909.052,6.5.031,1.69.016c.381.006.576.017.576.017s-.2.011-.576.017l-1.69.016-6.5.03-23.909.052-35.465.035-10.252.006a4.57,4.57,0,0,1-4.357-2.758,4.932,4.932,0,0,1-.341-1.341c-.035-.47-.019-.909-.023-1.361q0-1.35,0-2.712,0-5.448,0-11.079v-4.243a4.981,4.981,0,0,1,.158-1.452,4.565,4.565,0,0,1,4.393-3.374l78.893.064a4.49,4.49,0,0,1,4.02,3.377,6.555,6.555,0,0,1,.139,1.744q-.007,3.41-.013,6.423c-.011,4.008-.02,7.461-.028,10.287q-.007,1.059-.013,2a4.41,4.41,0,0,1-2.25,3.723,4.114,4.114,0,0,1-1.606.522A3.627,3.627,0,0,1,293.467,313.1Z" transform="translate(-210.348 -284.932)" fill="#263238"/>
          </g>
        </g>
      </g>
      <g id="Group_11790" data-name="Group 11790" transform="translate(81.054 3.577)">
        <g id="Group_11788" data-name="Group 11788" transform="translate(0 0.009)">
          <path id="Path_14170" data-name="Path 14170" d="M338.935,292.99a.157.157,0,0,1-.109-.271l2.152-2.061a.158.158,0,1,1,.218.228l-2.152,2.061A.159.159,0,0,1,338.935,292.99Z" transform="translate(-338.777 -290.614)" fill="#263238"/>
        </g>
        <g id="Group_11789" data-name="Group 11789" transform="translate(0.011)">
          <path id="Path_14171" data-name="Path 14171" d="M341.083,292.995a.159.159,0,0,1-.11-.045l-2.13-2.079a.158.158,0,1,1,.22-.226l2.13,2.079a.158.158,0,0,1-.11.271Z" transform="translate(-338.794 -290.6)" fill="#263238"/>
        </g>
      </g>
      <g id="Group_11793" data-name="Group 11793" transform="translate(6.471 6.549)">
        <g id="Group_11791" data-name="Group 11791">
          <path id="Path_14172" data-name="Path 14172" d="M233.116,308.364l-.878-1.244a4.44,4.44,0,0,1-.814-2.562v-2.8a4.561,4.561,0,0,0-3.868-4.506v-1.334a.614.614,0,0,0-.614-.613h0a.614.614,0,0,0-.614.614v1.313a4.56,4.56,0,0,0-4.025,4.53v2.9a4.45,4.45,0,0,1-.948,2.745l-.754.962Z" transform="translate(-220.601 -295.309)" fill="#e0e0e0"/>
        </g>
        <g id="Group_11792" data-name="Group 11792" transform="translate(4.517 13.917)">
          <path id="Path_14173" data-name="Path 14173" d="M228.84,318.531a1.978,1.978,0,0,0,2.047-.352,1.924,1.924,0,0,0,.517-.793l-3.645-.026A1.98,1.98,0,0,0,228.84,318.531Z" transform="translate(-227.758 -317.36)" fill="#e0e0e0"/>
        </g>
      </g>
      <g id="Group_11795" data-name="Group 11795" transform="translate(24.42 9.46)">
        <g id="Group_11794" data-name="Group 11794">
          <path id="Path_14174" data-name="Path 14174" d="M292.74,300.086c0,.091-9.783.164-21.849.164s-21.851-.073-21.851-.164,9.781-.164,21.851-.164S292.74,300,292.74,300.086Z" transform="translate(-249.041 -299.922)" fill="#263238"/>
        </g>
      </g>
      <g id="Group_11797" data-name="Group 11797" transform="translate(24.42 14.748)">
        <g id="Group_11796" data-name="Group 11796">
          <path id="Path_14175" data-name="Path 14175" d="M303.038,308.465c0,.091-12.089.165-27,.165s-27-.074-27-.165,12.086-.164,27-.164S303.038,308.374,303.038,308.465Z" transform="translate(-249.041 -308.301)" fill="#e0e0e0"/>
        </g>
      </g>
      <g id="Group_11799" data-name="Group 11799" transform="translate(24.42 17.915)">
        <g id="Group_11798" data-name="Group 11798">
          <path id="Path_14176" data-name="Path 14176" d="M303.038,313.483c0,.091-12.089.165-27,.165s-27-.074-27-.165,12.086-.164,27-.164S303.038,313.393,303.038,313.483Z" transform="translate(-249.041 -313.319)" fill="#e0e0e0"/>
        </g>
      </g>
    </g>
    <g id="Group_11822" data-name="Group 11822" transform="translate(77.26 74.902)">
      <g id="Group_11818" data-name="Group 11818" transform="translate(0)">
        <g id="Group_11817" data-name="Group 11817">
          <g id="Group_11816" data-name="Group 11816">
            <g id="Group_11815" data-name="Group 11815">
              <g id="Group_11814" data-name="Group 11814">
                <g id="Group_11806" data-name="Group 11806" transform="translate(0.083 0.104)">
                  <g id="Group_11805" data-name="Group 11805">
                    <g id="Group_11804" data-name="Group 11804">
                      <g id="Group_11803" data-name="Group 11803">
                        <g id="Group_11802" data-name="Group 11802">
                          <g id="Group_11801" data-name="Group 11801">
                            <path id="Path_14177" data-name="Path 14177" d="M117.06,144.932l.687-8.155a19.072,19.072,0,1,1,6.276,2.7l.009.005Z" transform="translate(-109.258 -101.888)" fill="#fff"/>
                          </g>
                        </g>
                      </g>
                    </g>
                  </g>
                </g>
                <g id="Group_11813" data-name="Group 11813">
                  <g id="Group_11812" data-name="Group 11812">
                    <g id="Group_11811" data-name="Group 11811">
                      <g id="Group_11810" data-name="Group 11810">
                        <g id="Group_11809" data-name="Group 11809">
                          <g id="Group_11808" data-name="Group 11808">
                            <g id="Group_11807" data-name="Group 11807">
                              <path id="Path_14178" data-name="Path 14178" d="M117.012,144.872l7.008-5.4.072-.055-.081-.043-.009-.005-.04.109a19.528,19.528,0,0,0,4.545.5,19.093,19.093,0,0,0,5.367-.833,17.1,17.1,0,0,0,2.8-1.124c.458-.244.933-.477,1.4-.74l1.359-.895a19.214,19.214,0,0,0,7.609-11.922,18.986,18.986,0,0,0-.158-8.029,19.418,19.418,0,0,0-3.751-7.6,18.793,18.793,0,0,0-6.987-5.4l-1.065-.451c-.353-.154-.729-.242-1.091-.366-.368-.1-.724-.252-1.1-.322l-1.116-.238a8.025,8.025,0,0,0-1.121-.172l-1.123-.128-1.125-.023a8.908,8.908,0,0,0-1.117.016,19.426,19.426,0,0,0-8.3,2.384,18.782,18.782,0,0,0-6.146,5.384,19.32,19.32,0,0,0-3.551,13.887,20.57,20.57,0,0,0,1.842,5.972,18.947,18.947,0,0,0,3.086,4.466,19.318,19.318,0,0,0,3.451,2.921l-.025-.052c-.4,5.212-.6,7.76-.63,8.16.036-.4.268-2.944.743-8.15l0-.033-.028-.019a19.293,19.293,0,0,1-3.411-2.922,18.858,18.858,0,0,1-3.043-4.444,20.457,20.457,0,0,1-1.806-5.924,19.155,19.155,0,0,1,3.542-13.735,18.6,18.6,0,0,1,6.082-5.313,19.216,19.216,0,0,1,8.2-2.35,8.818,8.818,0,0,1,1.1-.015l1.111.023,1.109.127a7.944,7.944,0,0,1,1.108.17l1.1.235c.371.069.722.215,1.086.319.358.122.73.209,1.078.361l1.051.446a18.57,18.57,0,0,1,6.9,5.335,19.2,19.2,0,0,1,3.713,7.507,18.787,18.787,0,0,1,.166,7.936,19.046,19.046,0,0,1-7.5,11.812l-1.344.89c-.46.262-.929.494-1.383.737a16.984,16.984,0,0,1-2.774,1.124,19.041,19.041,0,0,1-5.32.848,19.532,19.532,0,0,1-4.517-.476l-.04.109h0l.009.005-.009-.1Z" transform="translate(-109.126 -101.723)" fill="#263238"/>
                            </g>
                          </g>
                        </g>
                      </g>
                    </g>
                  </g>
                </g>
              </g>
            </g>
          </g>
        </g>
      </g>
      <g id="Group_11821" data-name="Group 11821" transform="translate(16.321 7.943)">
        <g id="Group_11819" data-name="Group 11819" transform="translate(0.106)">
          <path id="Path_14179" data-name="Path 14179" d="M135.157,115.8l.591,11.081a1.8,1.8,0,0,0,1.669,1.7h0A1.8,1.8,0,0,0,139.325,127l1.34-11.117a1.41,1.41,0,0,0-1.405-1.578l-2.7.011A1.41,1.41,0,0,0,135.157,115.8Z" transform="translate(-135.155 -114.309)" fill="#7d0d35"/>
        </g>
        <g id="Group_11820" data-name="Group 11820" transform="translate(0 16.29)">
          <path id="Path_14180" data-name="Path 14180" d="M140.255,143.676a2.7,2.7,0,1,1-1.713-3.417A2.7,2.7,0,0,1,140.255,143.676Z" transform="translate(-134.986 -140.121)" fill="#7d0d35"/>
        </g>
      </g>
    </g>
  </g>
</svg>
